<svg width="493" height="272" viewBox="0 0 493 272" fill="none" xmlns="http://www.w3.org/2000/svg">
<g clip-path="url(#clip0_540_228)">
<path d="M132.439 218.558C177.946 218.558 214.836 181.667 214.836 136.161C214.836 90.6541 177.946 53.7637 132.439 53.7637C86.9325 53.7637 50.0421 90.6541 50.0421 136.161C50.0421 181.667 86.9325 218.558 132.439 218.558Z" fill="white"/>
<path d="M356.665 218.558C402.172 218.558 439.062 181.667 439.062 136.161C439.062 90.6541 402.172 53.7637 356.665 53.7637C311.158 53.7637 274.268 90.6541 274.268 136.161C274.268 181.667 311.158 218.558 356.665 218.558Z" fill="white"/>
<path d="M134.349 243.403C75.2155 243.403 27.1058 195.294 27.1058 136.16C27.1058 77.2238 74.8896 29.2404 133.751 28.918V31.1118C76.0986 31.433 29.2996 78.4341 29.2996 136.16C29.2996 194.085 76.4245 241.209 134.349 241.209C178.618 241.209 218.279 213.301 233.232 171.705L235.302 172.435C220.04 214.909 179.548 243.403 134.349 243.403Z" fill="white"/>
<path d="M236.852 173.773C235.946 173.169 235.14 172.413 234.776 171.647L234.526 171.121L233.994 171.357C233.43 171.606 232.743 171.732 231.95 171.732C231.645 171.732 231.325 171.714 230.99 171.677C232.435 171.048 233.952 170.214 235.261 169.038C235.506 170.612 236.044 172.211 236.852 173.773Z" fill="white"/>
<path d="M393.138 234.968C435.348 219.814 463.66 179.586 463.66 134.671C463.66 75.9263 415.867 28.1333 357.122 28.1333C308.6 28.1333 266.302 60.7858 254.049 107.616L251.923 107.072C264.423 59.2718 307.596 25.9395 357.122 25.9395C417.076 25.9395 465.854 74.7161 465.854 134.671C465.854 180.512 436.952 221.574 393.868 237.038L393.138 234.968Z" fill="white"/>
<path d="M98.9285 124.297L101.446 123.912L109.798 102.885H111.9L120.222 123.971L122.444 124.297V125.689H113.499V124.297L116.046 124.031L114.21 119.025H105.681L103.845 123.941L106.866 124.297V125.689H98.9285L98.9285 124.297ZM113.47 117.042L109.975 107.565L106.422 117.042H113.47Z" fill="#231815"/>
<path d="M124.779 124.327L126.822 123.971V104.514L124.511 104.247V102.885H132.537C138.668 102.885 141.096 104.958 141.096 108.808C141.096 111.799 139.112 113.991 135.914 114.613V114.731C138.46 114.909 139.408 115.946 140.178 118.255L142.073 124L144.236 124.356V125.689H138.697L136.358 118.522C135.618 116.3 134.64 115.619 132.715 115.619H130.405V123.971L133.011 124.327V125.689H124.779V124.327ZM132.715 113.724C135.736 113.724 137.335 111.977 137.335 109.015C137.335 106.083 135.765 104.78 132.271 104.78H130.405V113.724H132.715Z" fill="#231815"/>
<path d="M150.717 124.297L153.679 123.853V104.869H148.703C148.081 105.758 147.756 106.617 147.549 108.394H146.008L146.275 102.767L148.792 102.885H162.238L164.784 102.767L165.021 108.394H163.511C163.304 106.617 162.948 105.758 162.326 104.869H157.351V123.853L160.283 124.297V125.689H150.717V124.297Z" fill="#231815"/>
<path d="M314.913 114.287C314.913 106.823 319.325 102.529 326.522 102.529C328.832 102.529 331.438 102.944 333.748 103.744L333.985 109.667H332.386C332 107.919 331.497 106.528 330.816 105.402C329.543 104.869 328.033 104.602 326.522 104.602C321.902 104.602 319.059 107.89 319.059 114.169C319.059 120.655 322.109 123.794 326.937 123.794C328.447 123.794 329.869 123.616 331.142 123.142C331.883 122.017 332.356 120.595 332.652 118.67H334.251L333.985 124.919C331.793 125.63 329.336 125.926 327.025 125.926C319.977 125.926 314.913 122.461 314.913 114.287Z" fill="#231815"/>
<path d="M337.267 124.297L339.784 123.912L348.136 102.885H350.239L358.561 123.971L360.782 124.297V125.689H351.838V124.297L354.385 124.031L352.549 119.025H344.02L342.184 123.941L345.204 124.297V125.689H337.267V124.297ZM351.809 117.042L348.314 107.565L344.76 117.042H351.809Z" fill="#231815"/>
<path d="M363.057 124.327L365.13 123.971V104.81L362.761 104.218V102.885H379.227L379.315 107.831H377.776C377.628 106.379 377.332 105.61 376.769 104.839H368.713V113.161H373.304C373.837 112.569 374.103 111.74 374.37 110.526H375.673V117.752H374.37C374.103 116.508 373.837 115.738 373.304 115.146H368.713V123.941L372.386 124.237V125.689H363.057V124.327Z" fill="#231815"/>
<path d="M382.008 124.268L384.347 123.705V104.839L382.008 104.336V102.885H398.089L398.415 107.89H396.875C396.638 106.439 396.223 105.61 395.631 104.839H387.96L387.99 113.251H393.143C393.706 112.658 393.972 111.769 394.209 110.555H395.542V117.929H394.209C393.972 116.686 393.706 115.827 393.143 115.205H387.99V123.705H395.838C396.431 122.994 396.845 122.194 397.082 120.773H398.622L398.296 125.689H382.008V124.268Z" fill="#231815"/>
<path d="M304.955 166.347C307.962 165.117 309.043 163.056 309.818 160.004C309.84 159.924 309.806 159.89 309.715 159.89C308.019 159.981 306.777 160.107 305.717 160.312C305.342 160.379 305.251 160.46 305.046 160.46C304.738 160.46 304.26 160.015 304.078 159.24C304.056 159.081 304.272 159.025 304.328 159.127C304.625 159.65 304.841 159.742 305.274 159.742C305.775 159.742 307.426 159.559 309.658 159.457C309.954 159.445 310.205 159.059 310.444 159.059C310.683 159.059 311.115 159.491 311.115 159.685C311.115 159.879 310.786 160.05 310.683 160.379C309.806 163.295 308.429 165.607 305.069 166.62C304.932 166.666 304.807 166.404 304.955 166.347ZM311.036 158.068C311.036 157.487 311.503 157.021 312.084 157.021C312.664 157.021 313.143 157.487 313.143 158.068C313.143 158.649 312.664 159.127 312.084 159.127C311.503 159.127 311.036 158.649 311.036 158.068ZM312.847 158.068C312.847 157.646 312.505 157.305 312.084 157.305C311.663 157.305 311.32 157.646 311.32 158.068C311.32 158.489 311.663 158.83 312.084 158.83C312.505 158.83 312.847 158.489 312.847 158.068Z" fill="#231815"/>
<path d="M316.516 165.367C316.516 165.219 316.55 165.037 316.561 164.684C316.572 162.748 316.561 160.334 316.538 160.003C316.504 159.571 316.413 159.388 315.752 159.286C315.604 159.264 315.627 159.012 315.787 159.012C316.823 158.921 317.494 159.252 317.494 159.571C317.494 159.753 317.427 159.855 317.403 160.231C317.369 160.88 317.346 161.598 317.346 162.452V163.203C317.346 164.49 317.346 164.832 317.358 165.003C317.369 165.174 317.415 165.231 317.586 165.196C320.148 164.559 322.483 162.634 323.804 160.766C323.906 160.607 324.18 160.766 324.077 160.926C322.915 162.965 320.41 165.185 317.746 165.971C317.449 166.061 317.346 166.153 317.21 166.153C316.879 166.153 316.516 165.675 316.516 165.367Z" fill="#231815"/>
<path d="M331.06 165.721C330.045 164.981 328.998 164.468 327.302 164.024C327.119 163.99 327.176 163.705 327.358 163.728C330.603 164.035 332.869 165.71 332.869 166.222C332.869 166.472 332.699 166.654 332.437 166.654C332.152 166.654 331.982 166.382 331.06 165.721ZM331.196 159.776C330.433 159.309 329.602 158.956 328.269 158.627C328.087 158.592 328.144 158.319 328.315 158.341C331.06 158.524 332.95 159.697 332.95 160.231C332.95 160.426 332.812 160.608 332.574 160.608C332.255 160.608 332.027 160.288 331.196 159.776ZM330.66 162.407C330.012 161.951 329.442 161.678 328.486 161.405C328.292 161.359 328.372 161.086 328.542 161.108C330.706 161.279 332.073 162.236 332.073 162.714C332.073 162.908 331.913 163.079 331.697 163.079C331.423 163.079 331.298 162.828 330.66 162.407Z" fill="#231815"/>
<path d="M338.406 166.848C340.673 165.675 341.412 163.751 341.664 162.009C341.674 161.883 341.697 161.792 341.697 161.713C341.697 161.416 341.572 161.279 340.98 161.165C340.844 161.132 340.878 160.915 341.002 160.927C341.891 160.903 342.438 161.086 342.631 161.302C343.349 160.789 343.952 160.255 344.521 159.605C344.567 159.549 344.567 159.502 344.464 159.514C342.358 159.605 340.763 159.776 339.215 160.05C338.793 160.129 338.69 160.221 338.486 160.221C338.201 160.221 337.723 159.731 337.529 158.934C337.506 158.797 337.723 158.74 337.78 158.854C338.099 159.366 338.315 159.457 338.782 159.457C339.249 159.457 341.743 159.207 344.51 159.082C344.784 159.07 345.136 158.717 345.375 158.717C345.615 158.717 346.104 159.195 346.104 159.401C346.104 159.559 345.808 159.651 345.523 159.856C344.555 160.608 343.713 161.143 342.688 161.644C342.654 161.758 342.586 161.918 342.529 162.236C342.176 164.058 341.162 166.085 338.554 167.11C338.383 167.178 338.247 166.928 338.406 166.848Z" fill="#231815"/>
<path d="M348.816 164.958C348.77 164.821 349.009 164.719 349.089 164.844C349.362 165.276 349.51 165.345 349.852 165.345C350 165.345 350.217 165.333 350.489 165.322C351.39 163.364 352.016 161.723 352.653 159.799C352.722 159.56 352.745 159.446 352.745 159.344C352.745 159.161 352.631 158.968 352.084 158.808C351.971 158.774 352.016 158.569 352.152 158.581C353.155 158.615 353.838 159.048 353.838 159.344C353.838 159.526 353.667 159.651 353.439 160.186C352.722 161.883 351.959 163.443 350.946 165.276C352.176 165.163 354.077 164.924 355.842 164.651C355.444 163.932 354.931 163.25 354.145 162.521C354.032 162.407 354.236 162.213 354.362 162.316C356.218 163.409 357.471 165.562 357.471 166.096C357.471 166.358 357.288 166.541 357.026 166.541C356.719 166.541 356.582 166.188 356.206 165.39C356.149 165.266 356.082 165.128 356.025 164.992C353.975 165.471 352.209 165.778 350.524 166.051C350.137 166.119 350.022 166.222 349.795 166.222C349.488 166.222 349.043 165.732 348.816 164.958Z" fill="#231815"/>
<path d="M364.055 166.291C366.662 165.538 367.813 163.979 367.813 162.35C367.813 160.767 366.583 159.492 364.75 159.492C364.648 159.492 364.556 159.492 364.465 159.503C364.863 159.731 365 159.97 365 160.288C365 161.098 364.238 163.364 363.304 164.707C362.916 165.254 362.518 165.527 362.13 165.527C361.447 165.527 360.399 164.548 360.399 163.079C360.399 161.177 362.187 159.127 364.852 159.127C367.153 159.127 368.713 160.46 368.713 162.395C368.713 164.252 367.243 166.086 364.146 166.586C363.976 166.62 363.884 166.336 364.055 166.291ZM361.231 163.01C361.231 163.979 361.8 164.604 362.074 164.604C362.21 164.604 362.346 164.525 362.551 164.275C363.452 163.124 364.203 160.915 364.203 160.107C364.203 159.868 364.169 159.719 363.986 159.571C362.313 159.947 361.231 161.53 361.231 163.01Z" fill="#231815"/>
<path d="M373.588 166.426V167.143C373.588 167.291 373.52 167.383 373.372 167.462C373.246 167.519 373.064 167.553 372.905 167.553C372.734 167.553 372.643 167.486 372.643 167.281C372.7 164.228 372.722 161.256 372.688 159.355C372.688 158.797 372.655 158.421 372.586 158.101C372.563 158.022 372.62 157.965 372.712 157.987C373.019 158.079 373.372 158.239 373.679 158.432H378.257C378.394 158.261 378.553 158.09 378.678 157.977C378.724 157.942 378.78 157.931 378.861 157.977C379.077 158.101 379.35 158.295 379.544 158.478C379.635 158.557 379.623 158.671 379.361 158.91C379.304 158.978 379.294 159.002 379.294 159.069C379.247 161.245 379.271 163.978 379.339 167.076C379.35 167.235 379.259 167.338 379.099 167.417C378.975 167.474 378.792 167.519 378.622 167.519C378.451 167.519 378.348 167.451 378.348 167.246V166.426L373.588 166.426ZM373.588 158.705V162.258H378.348V158.705H373.588ZM373.588 162.532V166.153H378.348V162.532H373.588Z" fill="#231815"/>
<path d="M386.913 157.099C387.244 157.122 387.642 157.168 387.938 157.201C388.121 157.225 388.109 157.43 387.961 157.487C387.79 157.544 387.778 157.566 387.778 157.725C387.767 158.409 387.756 159.115 387.745 159.855H390.455C390.523 159.855 390.557 159.832 390.603 159.798C390.774 159.604 390.945 159.422 391.104 159.263C391.15 159.229 391.207 159.229 391.274 159.263C391.536 159.411 391.832 159.65 392.037 159.866C392.106 159.946 391.98 160.128 391.832 160.128H387.938C388.758 162.28 390.318 163.977 392.63 165.002C392.687 165.025 392.687 165.082 392.642 165.116C392.413 165.253 392.197 165.447 392.049 165.651C391.97 165.731 391.913 165.731 391.81 165.674C389.817 164.41 388.439 162.645 387.745 160.459C387.733 161.814 387.733 163.271 387.745 164.82H388.61C388.679 164.82 388.712 164.797 388.746 164.763C388.894 164.603 389.054 164.433 389.179 164.296C389.225 164.262 389.282 164.262 389.339 164.296C389.566 164.433 389.828 164.638 390.011 164.832C390.068 164.923 389.965 165.082 389.828 165.082H387.745C387.756 165.811 387.756 166.562 387.767 167.325C387.767 167.485 387.699 167.575 387.551 167.656C387.414 167.713 387.244 167.747 387.084 167.747C386.913 167.747 386.811 167.678 386.811 167.473C386.822 166.665 386.834 165.868 386.844 165.082H385.512C385.376 165.082 385.137 165.082 384.978 165.094C384.84 165.105 384.806 165.094 384.738 164.946C384.681 164.82 384.704 164.775 384.829 164.786C385 164.808 385.228 164.82 385.398 164.82H386.856C386.868 163.624 386.879 162.474 386.879 161.426C385.774 163.237 384.203 164.808 382.404 165.766C382.233 165.868 382.062 165.674 382.199 165.537C384.134 164.239 385.729 162.27 386.572 160.128H383.929C383.758 160.128 383.394 160.128 383.189 160.151C383.041 160.163 382.995 160.14 382.927 159.992C382.859 159.844 382.893 159.809 383.019 159.82C383.269 159.844 383.588 159.855 383.827 159.855H386.879C386.868 159.296 386.868 158.784 386.856 158.318C386.856 157.919 386.844 157.532 386.811 157.225C386.799 157.144 386.834 157.087 386.913 157.099Z" fill="#231815"/>
<path d="M398.382 159.662C398.668 159.696 399.009 159.753 399.282 159.81C399.419 159.832 399.35 160.072 399.214 160.049H399.145C400.079 161.381 401.64 162.36 403.837 162.861C403.906 162.873 403.917 162.93 403.86 162.987C403.655 163.135 403.461 163.351 403.313 163.556C403.256 163.647 403.189 163.647 403.074 163.613C401.149 162.873 399.715 161.734 398.918 160.242C397.801 161.928 396.082 163.135 394.112 163.761C393.907 163.818 393.793 163.568 393.976 163.488C395.706 162.725 397.267 161.426 398.201 159.707C398.234 159.65 398.28 159.639 398.382 159.662ZM396.879 157.134C397.21 157.145 397.551 157.179 397.824 157.213C397.996 157.236 397.984 157.418 397.836 157.463C397.688 157.51 397.665 157.544 397.665 157.646V158.557H399.783V157.76C399.783 157.577 399.772 157.407 399.76 157.248C399.748 157.168 399.772 157.122 399.851 157.122C400.182 157.145 400.535 157.168 400.808 157.202C400.979 157.236 400.968 157.407 400.82 157.463C400.672 157.51 400.649 157.544 400.649 157.635V158.557H402.038C402.107 158.557 402.14 158.545 402.186 158.5C402.345 158.33 402.517 158.147 402.653 158.011C402.698 157.976 402.755 157.976 402.824 158.011C403.074 158.147 403.348 158.363 403.553 158.568C403.609 158.648 403.507 158.819 403.359 158.819H400.649C400.649 159.093 400.66 159.388 400.66 159.684C400.672 159.798 400.603 159.867 400.467 159.924C400.353 159.969 400.182 160.003 400.022 160.003C399.863 160.003 399.783 159.958 399.783 159.787V158.819H397.665V159.753C397.665 159.867 397.608 159.935 397.472 159.992C397.358 160.037 397.186 160.06 397.038 160.06C396.879 160.06 396.776 160.015 396.788 159.855C396.8 159.502 396.8 159.15 396.811 158.819H395.148C394.977 158.819 394.602 158.819 394.385 158.83C394.248 158.853 394.203 158.83 394.135 158.683C394.066 158.557 394.1 158.511 394.226 158.523C394.476 158.545 394.807 158.557 395.046 158.557H396.811V157.771C396.811 157.589 396.8 157.407 396.788 157.248C396.776 157.179 396.8 157.134 396.879 157.134ZM396.879 164.433C397.129 164.547 397.415 164.695 397.642 164.82C397.745 164.889 397.642 165.07 397.539 165.025C397.437 164.98 397.415 164.991 397.369 165.037C396.766 165.914 395.889 166.688 394.932 167.2C394.772 167.303 394.579 167.167 394.693 167.029C395.479 166.369 396.23 165.492 396.709 164.467C396.743 164.41 396.788 164.388 396.879 164.433ZM398.337 161.974C398.668 161.996 399.031 162.031 399.328 162.076C399.487 162.098 399.476 162.27 399.35 162.315C399.18 162.36 399.168 162.406 399.157 162.52C399.157 162.861 399.145 163.215 399.145 163.579H400.318C400.375 163.579 400.42 163.568 400.455 163.533C400.603 163.385 400.751 163.226 400.877 163.101C400.922 163.078 400.968 163.078 401.035 163.101C401.252 163.226 401.502 163.42 401.685 163.602C401.742 163.67 401.64 163.83 401.514 163.83H399.145C399.134 164.912 399.145 166.107 399.157 167.383C399.168 167.519 399.1 167.599 398.952 167.656C398.838 167.713 398.656 167.747 398.508 167.747C398.337 167.747 398.234 167.691 398.246 167.508C398.268 166.176 398.28 164.889 398.28 163.83H396.663C396.514 163.83 396.264 163.83 396.094 163.841C395.968 163.852 395.923 163.841 395.866 163.704C395.809 163.58 395.832 163.545 395.957 163.556C396.139 163.568 396.378 163.58 396.56 163.58H398.28C398.28 163.318 398.268 163.066 398.268 162.839C398.268 162.565 398.257 162.315 398.234 162.098C398.223 162.031 398.258 161.974 398.337 161.974ZM399.943 164.707C399.806 164.615 399.874 164.422 400.057 164.445C401.013 164.786 401.856 165.492 402.243 166.142C402.505 166.552 402.471 166.859 402.277 166.995C402.072 167.155 401.753 167.098 401.605 166.79C401.252 165.994 400.625 165.185 399.943 164.707Z" fill="#231815"/>
<path d="M405.979 159.742C405.9 159.605 406.151 159.469 406.231 159.594C406.732 160.209 407.085 160.368 407.654 160.368C407.847 160.368 408.064 160.357 408.291 160.322C408.508 159.89 408.69 159.457 408.838 159.059C408.998 158.615 409.032 158.466 409.032 158.353C409.032 158.17 408.907 157.988 408.485 157.851C408.371 157.795 408.428 157.59 408.565 157.612C409.67 157.703 410.057 158.113 410.057 158.387C410.057 158.592 409.829 158.808 409.601 159.343C409.487 159.605 409.362 159.879 409.237 160.141C409.613 160.038 410.023 159.902 410.478 159.731C410.706 159.64 410.786 159.583 410.786 159.537C410.786 159.469 410.649 159.332 410.364 159.07C410.33 158.956 410.535 158.876 410.604 158.979C411.081 159.355 411.15 159.378 411.503 159.378C411.663 159.378 411.742 159.445 411.742 159.537C411.742 159.788 411.56 160.026 410.809 160.3C410.114 160.551 409.453 160.732 408.884 160.835C408.588 161.37 408.269 161.906 407.893 162.452C407.881 162.475 407.893 162.486 407.916 162.475C408.531 162.054 409.032 161.849 409.51 161.849C410.023 161.849 410.319 162.156 410.467 162.976C411.162 162.612 412.015 162.213 413.063 161.769C413.348 161.655 413.428 161.587 413.428 161.507C413.428 161.359 413.234 161.097 412.721 160.994C412.608 160.937 412.687 160.744 412.835 160.778C413.917 160.87 414.305 161.484 414.305 161.849C414.305 162.19 414.043 162.224 413.428 162.418C412.22 162.817 411.275 163.193 410.535 163.534C410.569 163.864 410.581 164.275 410.581 164.741C410.581 165.333 410.455 165.572 410.228 165.572C409.988 165.572 409.783 165.3 409.783 164.89C409.783 164.514 409.772 164.194 409.761 163.91C408.679 164.502 408.281 164.992 408.281 165.402C408.281 165.891 408.805 166.165 410.342 166.165C411.503 166.165 412.004 165.972 412.254 165.972C412.608 165.972 412.858 166.222 412.858 166.404C412.858 166.62 412.106 166.837 410.364 166.837C408.519 166.837 407.802 166.29 407.802 165.505C407.802 164.878 408.257 164.228 409.738 163.375C409.67 162.475 409.51 162.236 409.203 162.236C408.85 162.236 408.348 162.464 407.676 163.09C406.97 163.83 406.606 164.354 406.356 164.354C406.196 164.354 406.071 164.228 406.071 164.035C406.071 163.83 406.162 163.534 406.276 163.386C406.446 163.181 406.663 162.976 406.948 162.589C407.323 162.076 407.666 161.507 407.973 160.937C407.938 160.949 407.893 160.949 407.859 160.949C407.016 160.949 406.492 160.665 405.979 159.742Z" fill="#231815"/>
<path d="M336.754 186.46C336.731 186.392 336.766 186.335 336.833 186.323C337.016 186.289 337.29 186.232 337.619 186.141C337.665 184.046 337.676 182.11 337.653 180.846C337.653 180.675 337.654 180.539 337.642 180.424C337.346 180.732 337.028 181.017 336.697 181.278C336.583 181.404 336.378 181.268 336.47 181.108C337.437 180.038 338.337 178.637 338.884 177.065C338.894 177.008 338.94 176.997 339.042 177.008C339.304 177.054 339.647 177.122 339.897 177.179C340.022 177.213 339.966 177.419 339.84 177.407C339.714 177.395 339.692 177.407 339.669 177.464C339.661 177.471 339.658 177.479 339.658 177.486C340.5 177.851 341.206 178.523 341.537 179.126C341.776 179.514 341.73 179.798 341.548 179.912C341.355 180.048 341.081 179.991 340.956 179.707C340.66 178.978 340.124 178.227 339.533 177.748C339.145 178.534 338.644 179.286 338.075 179.946C338.212 180.003 338.348 180.083 338.474 180.162H338.986C338.986 179.889 338.986 179.605 338.975 179.376C338.975 179.24 338.975 179.092 338.952 178.978C338.94 178.91 338.975 178.864 339.042 178.864C339.339 178.876 339.658 178.909 339.909 178.933C340.057 178.956 340.045 179.115 339.919 179.161C339.771 179.206 339.749 179.24 339.749 179.32V180.162H340.216C340.329 180.048 340.455 179.935 340.557 179.855C340.603 179.833 340.648 179.833 340.705 179.855C340.899 179.957 341.104 180.094 341.275 180.231C341.343 180.299 341.343 180.391 341.127 180.618C341.093 180.663 341.081 180.686 341.081 180.732C341.07 181.483 341.07 182.417 341.093 183.442C341.093 183.556 341.047 183.625 340.91 183.692C340.796 183.739 340.648 183.761 340.5 183.761C340.364 183.761 340.273 183.716 340.273 183.556V183.363H338.439V185.913C338.986 185.743 339.635 185.538 340.341 185.298C340.124 184.9 339.852 184.535 339.555 184.251C339.476 184.149 339.566 184.011 339.714 184.057C340.489 184.399 341.104 185.071 341.355 185.651C341.525 186.05 341.468 186.346 341.229 186.437C341.001 186.528 340.751 186.415 340.694 186.141C340.626 185.936 340.557 185.731 340.455 185.538C339.191 186.232 338.018 186.778 337.38 187.052C337.335 187.064 337.323 187.086 337.346 187.155C337.369 187.269 337.187 187.337 337.118 187.223C337.016 187.018 336.868 186.711 336.754 186.46ZM340.273 180.413H338.439V181.586H340.273V180.413ZM340.273 183.124V181.825H338.439V183.124H340.273ZM342.824 179.707C342.516 180.584 342.129 181.381 341.673 182.064C341.56 182.224 341.32 182.121 341.389 181.95C341.992 180.606 342.425 178.944 342.596 177.076C342.607 177.019 342.642 176.985 342.755 177.008C343.017 177.054 343.359 177.122 343.61 177.19C343.734 177.224 343.689 177.429 343.564 177.419C343.439 177.407 343.415 177.429 343.405 177.486C343.279 178.17 343.12 178.819 342.915 179.445H345.693C345.841 179.32 346.012 179.171 346.149 179.081C346.206 179.047 346.263 179.047 346.32 179.081C346.502 179.206 346.718 179.376 346.901 179.548C346.98 179.638 346.958 179.753 346.65 179.912C346.57 179.957 346.536 179.981 346.513 180.026C346.183 180.744 345.774 181.449 345.374 181.996C345.272 182.099 345.078 182.019 345.135 181.871C345.364 181.256 345.579 180.527 345.762 179.707H344.384C344.373 180.265 344.338 180.777 344.292 181.268C344.475 184.171 345.409 185.948 347.197 186.95C347.254 186.973 347.254 187.03 347.208 187.064C346.992 187.188 346.787 187.371 346.627 187.553C346.559 187.633 346.491 187.633 346.399 187.576C345.067 186.506 344.316 184.979 344.087 182.691C343.575 185.481 342.425 186.859 340.557 187.679C340.398 187.793 340.216 187.61 340.352 187.474C342.516 186.278 343.484 184.342 343.529 179.707L342.824 179.707Z" fill="#231815"/>
<path d="M348.576 179.821C348.508 179.685 348.713 179.571 348.793 179.673C349.283 180.243 349.624 180.357 350.137 180.357C350.444 180.357 350.785 180.311 351.161 180.22C351.173 179.651 351.173 179.139 351.173 178.751C351.161 178.398 351.059 178.205 350.456 178.079C350.33 178.045 350.342 177.829 350.478 177.829C351.514 177.783 352.084 178.068 352.084 178.364C352.084 178.512 352.015 178.626 351.993 179.093C351.97 179.32 351.959 179.616 351.947 179.97C352.198 179.878 352.448 179.776 352.699 179.662C352.847 179.594 352.881 179.56 352.881 179.503C352.881 179.423 352.813 179.309 352.505 178.979C352.482 178.853 352.665 178.786 352.722 178.865C353.166 179.287 353.257 179.32 353.507 179.32C353.735 179.32 353.826 179.389 353.826 179.514C353.826 179.754 353.678 179.958 352.938 180.278C352.596 180.425 352.255 180.562 351.924 180.664C351.913 181.268 351.902 181.939 351.902 182.6C351.924 182.783 351.936 182.964 351.936 183.112C351.936 183.545 351.81 183.876 351.526 184.206C351.15 184.707 351.025 184.98 351.025 185.276C351.025 185.766 351.571 186.131 352.699 186.131C354.715 186.131 355.591 185.504 355.591 184.741C355.591 183.774 354.874 182.737 354.874 181.769C354.874 181.097 355.306 180.55 355.99 180.55C357.003 180.55 357.994 181.667 357.994 182.406C357.994 182.84 357.732 183.215 357.391 183.215C357.265 183.215 357.209 183.147 357.026 183.067C356.844 182.988 356.64 182.964 356.149 183.045C356.035 183.078 355.99 182.862 356.104 182.828C356.48 182.749 356.742 182.68 356.947 182.611C357.117 182.566 357.152 182.497 357.152 182.361C357.152 181.792 356.354 180.983 355.785 180.983C355.444 180.983 355.215 181.336 355.215 181.701C355.215 183.135 356.377 184.092 356.377 184.923C356.377 185.936 355.113 186.848 352.87 186.848C351.185 186.848 350.399 186.244 350.399 185.424C350.399 185.151 350.478 184.878 350.683 184.525C350.604 184.559 350.524 184.582 350.422 184.582C349.806 184.582 349.271 184.069 349.271 183.226C349.271 182.282 349.829 181.701 350.501 181.701C350.809 181.701 351.013 181.825 351.15 182.02V180.858C350.82 180.926 350.513 180.96 350.239 180.96C349.555 180.96 349.066 180.71 348.576 179.821ZM351.195 183.033C351.195 182.464 350.968 182.03 350.546 182.03C350.17 182.03 349.886 182.464 349.886 183.102C349.886 183.693 350.16 183.989 350.523 183.989C350.945 183.989 351.195 183.614 351.195 183.033Z" fill="#231815"/>
<path d="M359.441 183.716C359.316 183.863 359.066 183.716 359.168 183.534C360.363 181.848 361.366 179.65 361.89 177.179C361.902 177.111 361.947 177.076 362.06 177.1C362.345 177.157 362.698 177.236 362.972 177.316C363.108 177.35 363.04 177.577 362.915 177.566C362.778 177.555 362.744 177.577 362.732 177.634C362.436 178.682 362.038 179.684 361.571 180.618C361.673 180.629 361.788 180.641 361.878 180.663C362.026 180.686 362.015 180.846 361.902 180.891C361.731 180.948 361.719 180.982 361.719 181.12C361.685 182.907 361.685 184.98 361.707 187.314C361.719 187.44 361.65 187.519 361.514 187.588C361.4 187.633 361.24 187.667 361.092 187.667C360.933 187.667 360.842 187.61 360.842 187.428C360.876 185.469 360.887 183.568 360.887 181.825C360.444 182.52 359.965 183.146 359.441 183.716ZM365.398 177.065C365.705 177.088 366.069 177.122 366.342 177.167C366.502 177.19 366.502 177.372 366.366 177.419C366.206 177.475 366.194 177.498 366.183 177.657C366.171 178.443 366.161 179.263 366.161 180.117H368.267C368.324 180.117 368.358 180.105 368.404 180.072C368.552 179.9 368.723 179.719 368.859 179.581C368.904 179.548 368.961 179.548 369.03 179.581C369.269 179.719 369.543 179.935 369.736 180.14C369.793 180.219 369.679 180.391 369.543 180.391H366.32C366.98 182.452 368.244 184.035 369.998 185.059C370.055 185.083 370.055 185.139 370.01 185.174C369.793 185.298 369.588 185.481 369.44 185.663C369.371 185.731 369.304 185.731 369.212 185.674C367.765 184.467 366.707 182.85 366.149 180.834C366.149 182.087 366.149 183.42 366.161 184.821H366.787C366.833 184.821 366.866 184.809 366.9 184.775C367.003 184.626 367.128 184.467 367.231 184.342C367.276 184.308 367.322 184.308 367.379 184.342C367.561 184.467 367.755 184.672 367.891 184.854C367.937 184.934 367.834 185.083 367.72 185.083H366.161C366.161 185.788 366.171 186.506 366.183 187.245C366.183 187.394 366.115 187.485 365.978 187.553C365.864 187.61 365.694 187.645 365.556 187.645C365.397 187.645 365.294 187.576 365.306 187.383C365.317 186.608 365.329 185.834 365.341 185.083H364.452C364.326 185.083 364.121 185.083 363.962 185.093C363.837 185.105 363.803 185.093 363.735 184.945C363.678 184.821 363.701 184.786 363.826 184.797C363.985 184.809 364.19 184.821 364.35 184.821H365.341C365.351 183.773 365.363 182.759 365.363 181.825C364.566 183.431 363.427 184.866 362.106 185.834C361.958 185.948 361.764 185.777 361.89 185.641C363.325 184.308 364.486 182.383 365.079 180.391H363.279C363.12 180.391 362.812 180.391 362.63 180.413C362.493 180.424 362.448 180.402 362.379 180.253C362.322 180.117 362.345 180.083 362.47 180.095C362.687 180.117 362.96 180.117 363.165 180.117H365.363C365.363 179.433 365.351 178.808 365.351 178.238C365.341 177.839 365.341 177.486 365.306 177.19C365.294 177.111 365.317 177.065 365.398 177.065Z" fill="#231815"/>
<path d="M371.343 184.251C371.355 184.149 371.515 184.137 371.548 184.24C371.742 184.969 371.663 185.812 371.264 186.381C371.15 186.563 370.957 186.62 370.797 186.529C370.649 186.427 370.626 186.21 370.762 186.074C371.172 185.584 371.367 184.912 371.343 184.251ZM374.885 182.452C374.92 182.418 374.965 182.418 375.022 182.452C375.204 182.554 375.421 182.702 375.58 182.85C375.648 182.907 375.637 183.01 375.409 183.203C375.352 183.249 375.33 183.272 375.33 183.329C375.261 186.494 374.987 187.042 374.715 187.246C374.555 187.383 374.225 187.508 373.838 187.508C373.735 187.508 373.678 187.474 373.644 187.406C373.576 187.223 373.45 187.099 372.608 186.927C372.494 186.894 372.506 186.689 372.642 186.699C373.279 186.779 373.576 186.802 373.838 186.813C373.997 186.813 374.053 186.791 374.122 186.734C374.315 186.597 374.555 186.13 374.589 182.998H372.187V183.26C372.187 183.386 372.13 183.454 372.004 183.511C371.901 183.556 371.753 183.579 371.617 183.579C371.48 183.579 371.4 183.522 371.4 183.363C371.434 181.427 371.446 179.559 371.434 178.307C371.424 177.953 371.412 177.703 371.367 177.487C371.355 177.407 371.389 177.362 371.469 177.385C371.72 177.464 371.982 177.578 372.22 177.714H374.463C374.51 177.714 374.544 177.703 374.589 177.669C374.703 177.543 374.828 177.395 374.942 177.282C374.976 177.259 375.022 177.259 375.078 177.293C375.273 177.395 375.489 177.578 375.637 177.748C375.683 177.817 375.592 177.965 375.466 177.965H373.815V179.332H374.213C374.258 179.332 374.293 179.32 374.327 179.297C374.43 179.172 374.555 179.047 374.646 178.944C374.692 178.922 374.737 178.922 374.794 178.944C374.965 179.047 375.159 179.218 375.295 179.366C375.34 179.445 375.249 179.582 375.135 179.582H373.815V181.017H374.202C374.248 181.017 374.282 181.006 374.315 180.972C374.43 180.858 374.544 180.721 374.646 180.619C374.68 180.596 374.725 180.596 374.782 180.619C374.954 180.732 375.159 180.903 375.283 181.051C375.33 181.12 375.238 181.268 375.135 181.268H373.815V182.748H374.532C374.646 182.634 374.771 182.521 374.885 182.452ZM371.901 184.194C371.856 184.103 371.97 184.012 372.072 184.092C372.425 184.445 372.619 185.059 372.654 185.561C372.676 185.914 372.608 186.084 372.437 186.108C372.289 186.141 372.163 186.05 372.152 185.846C372.152 185.264 372.084 184.616 371.901 184.194ZM372.187 179.332H373.086V177.965H372.187V179.332ZM372.187 181.017H373.086V179.582H372.187V181.017ZM372.187 182.748H373.086V181.268H372.187V182.748ZM372.711 183.989C372.654 183.91 372.744 183.807 372.847 183.875C373.234 184.172 373.496 184.695 373.588 185.117C373.655 185.424 373.598 185.595 373.45 185.641C373.314 185.674 373.188 185.607 373.154 185.412C373.097 184.9 372.938 184.354 372.711 183.989ZM373.519 183.75C373.462 183.682 373.541 183.568 373.644 183.625C374.031 183.853 374.315 184.274 374.441 184.627C374.532 184.889 374.498 185.059 374.361 185.105C374.236 185.151 374.1 185.105 374.043 184.923C373.963 184.49 373.769 184.046 373.519 183.75ZM377.322 180.186C377.208 180.186 377.037 180.186 376.901 180.197C376.776 180.209 376.741 180.197 376.684 180.061C376.673 180.026 376.662 180.004 376.662 179.981C376.286 180.345 375.876 180.653 375.443 180.915C375.307 181.039 375.113 180.903 375.216 180.767C376.252 179.867 377.151 178.615 377.652 177.066C377.664 177.009 377.709 176.985 377.812 176.997C378.074 177.031 378.404 177.088 378.666 177.133C378.791 177.157 378.734 177.362 378.621 177.362C378.552 177.35 378.507 177.362 378.484 177.373C379.088 178.591 380.101 179.594 381.4 180.209C381.456 180.231 381.467 180.288 381.41 180.322C381.228 180.448 381.046 180.619 380.921 180.789C380.852 180.869 380.795 180.869 380.704 180.812C379.668 180.015 378.826 178.933 378.324 177.669C377.926 178.534 377.379 179.287 376.741 179.912H376.776C376.912 179.924 377.084 179.935 377.22 179.935H378.552C378.609 179.935 378.643 179.924 378.678 179.89C378.769 179.776 378.893 179.651 378.985 179.548C379.019 179.525 379.065 179.525 379.122 179.548C379.293 179.651 379.486 179.821 379.622 179.969C379.656 180.049 379.565 180.186 379.463 180.186H378.529V181.461H379.646C379.759 181.336 379.884 181.211 379.999 181.131C380.032 181.096 380.078 181.096 380.146 181.131C380.328 181.222 380.511 181.358 380.682 181.506C380.761 181.575 380.75 181.677 380.556 181.871C380.523 181.906 380.511 181.939 380.511 181.973C380.499 182.486 380.499 183.181 380.523 183.875C380.523 183.978 380.477 184.046 380.328 184.103C380.226 184.149 380.078 184.172 379.942 184.172C379.805 184.172 379.713 184.137 379.713 183.989V183.739H378.552C378.962 185.31 379.918 186.346 381.342 186.894C381.4 186.916 381.41 186.961 381.365 187.007C381.16 187.144 380.966 187.326 380.83 187.519C380.761 187.599 380.682 187.599 380.59 187.554C379.475 186.825 378.712 185.743 378.369 184.206C378.04 185.788 377.129 186.882 375.238 187.645C375.045 187.747 374.885 187.531 375.033 187.44C376.753 186.551 377.459 185.436 377.664 183.739H376.605V183.932C376.605 184.046 376.56 184.103 376.434 184.149C376.331 184.194 376.183 184.217 376.047 184.217C375.91 184.217 375.819 184.172 375.831 184.023C375.853 183.193 375.864 182.338 375.853 181.746C375.853 181.552 375.842 181.382 375.807 181.234C375.797 181.165 375.842 181.12 375.91 181.142C376.16 181.199 376.445 181.325 376.684 181.461H377.732C377.732 181.039 377.732 180.596 377.721 180.186L377.322 180.186ZM376.605 181.723V183.488H377.698C377.732 183.112 377.744 182.726 377.732 182.304V181.723H376.605ZM378.529 182.361C378.529 182.759 378.518 183.135 378.484 183.488H379.713V181.723H378.529V182.361Z" fill="#231815"/>
<path d="M75.5985 166.824V167.43C75.6103 167.578 75.5297 167.658 75.3929 167.727C75.267 167.784 75.0959 167.817 74.9365 167.817C74.7654 167.817 74.6621 167.76 74.6739 167.555C74.7309 164.643 74.7418 161.822 74.7192 159.995C74.7083 159.47 74.6847 159.104 74.6169 158.796C74.5932 158.717 74.6513 158.67 74.7418 158.694C75.0388 158.785 75.3929 158.945 75.69 159.128H76.9461C77.1861 158.534 77.4025 157.883 77.551 157.198C77.5746 157.141 77.6199 157.106 77.7222 157.129C78.0536 157.198 78.453 157.3 78.7619 157.392C78.9104 157.437 78.8415 157.666 78.693 157.643C78.5681 157.62 78.5445 157.632 78.4992 157.677C78.1678 158.191 77.7684 158.694 77.369 159.128H80.2353C80.3721 158.957 80.5206 158.796 80.6573 158.682C80.6917 158.648 80.7488 158.636 80.8285 158.67C81.0458 158.796 81.3085 158.99 81.5022 159.173C81.5819 159.253 81.5819 159.356 81.3193 159.607C81.274 159.664 81.2514 159.688 81.2514 159.755C81.217 161.822 81.2396 164.426 81.2967 167.361C81.3085 167.521 81.217 167.612 81.0685 167.692C80.9317 167.749 80.7606 167.795 80.6003 167.795C80.4173 167.795 80.315 167.727 80.3258 167.521V166.824H75.5985ZM75.5985 159.401V161.549H80.3258V159.401H75.5985ZM75.5985 161.822V164.015H80.3258V161.822H75.5985ZM75.5985 164.289V166.55H80.3258V164.289H75.5985Z" fill="#231815"/>
<path d="M88.0021 157.449C88.2874 157.518 88.6415 157.62 88.9149 157.701C89.0526 157.746 88.972 157.974 88.847 157.952C88.7093 157.929 88.6749 157.952 88.6523 158.009C87.7729 160.007 86.3004 161.594 84.4955 162.565C84.3361 162.691 84.1187 162.52 84.2446 162.371C85.786 161.252 87.0883 159.607 87.8192 157.506C87.8418 157.449 87.887 157.426 88.0021 157.449ZM86.9398 162.233C86.7913 162.233 86.4942 162.233 86.3112 162.245C86.1863 162.268 86.1401 162.245 86.0722 162.097C86.0142 161.96 86.0378 161.925 86.1627 161.937C86.3683 161.96 86.6309 161.96 86.8257 161.96H91.3474C91.496 161.811 91.6563 161.651 91.7812 161.549C91.8274 161.502 91.8845 161.502 91.9415 161.549C92.1471 161.675 92.3871 161.868 92.5691 162.062C92.6606 162.154 92.6379 162.257 92.3635 162.473C92.2956 162.52 92.2838 162.553 92.272 162.611C92.1009 166.265 91.6445 167.064 91.2215 167.361C91.0159 167.521 90.6392 167.646 90.1602 167.646C90.0343 167.646 89.9772 167.612 89.931 167.532C89.8513 167.316 89.7028 167.178 88.6749 166.962C88.5382 166.927 88.5608 166.687 88.7211 166.71C89.4972 166.813 89.8631 166.848 90.1828 166.848C90.3884 166.848 90.4799 166.813 90.5713 166.744C90.8674 166.539 91.2786 165.865 91.4163 162.233H89.2582C88.8126 165.637 87.4995 167.133 85.2381 167.829C85.067 167.909 84.9184 167.703 85.067 167.589C87.0195 166.779 88.0474 165.386 88.3326 162.233H86.9398ZM90.1602 157.563C90.0795 157.392 90.3195 157.233 90.4799 157.392C91.2107 159.253 92.638 160.738 94.7843 161.606C94.8423 161.628 94.8531 161.685 94.7961 161.72C94.5679 161.868 94.3505 162.086 94.1911 162.29C94.1223 162.382 94.0534 162.382 93.9393 162.325C92.0665 161.195 90.7769 159.573 90.1602 157.563Z" fill="#231815"/>
<path d="M96.4653 160.236C96.3965 160.098 96.6138 159.973 96.6935 160.098C97.2188 160.715 97.6181 160.864 98.224 160.864C98.3952 160.864 98.6008 160.853 98.8398 160.806C98.9431 160.419 99.0454 160.041 99.126 159.711C99.2509 159.185 99.2854 158.957 99.2854 158.785C99.2854 158.557 99.2057 158.408 98.6804 158.237C98.5663 158.192 98.6008 157.986 98.7493 157.997C99.7654 157.997 100.325 158.408 100.325 158.728C100.325 158.945 100.154 159.174 99.9483 159.847C99.8795 160.098 99.8106 160.35 99.731 160.613C100.051 160.533 100.393 160.419 100.736 160.293C100.93 160.224 100.964 160.179 100.964 160.122C100.964 160.065 100.885 159.939 100.621 159.642C100.564 159.516 100.77 159.425 100.839 159.516C101.238 159.927 101.295 159.951 101.558 159.951C101.82 159.951 101.901 160.041 101.901 160.179C101.901 160.407 101.763 160.625 101.136 160.864C100.553 161.092 99.9936 161.264 99.5028 161.366C99.0227 162.931 98.4749 164.575 98.0519 165.66C97.6073 166.813 97.1961 167.133 96.9679 167.133C96.7958 167.133 96.6817 166.928 96.6817 166.494C96.6817 166.299 96.9335 166.071 97.2876 165.272C97.7322 164.336 98.2348 162.862 98.6342 161.492C98.5545 161.503 98.4748 161.503 98.406 161.503C97.6643 161.503 96.9906 161.207 96.4653 160.236ZM100.119 164.438C100.096 164.267 100.348 164.198 100.393 164.347C100.793 165.58 101.341 165.888 102.757 165.888C103.865 165.888 104.047 165.763 104.207 165.763C104.619 165.763 104.859 165.957 104.859 166.151C104.859 166.425 104.299 166.631 103.043 166.631C101.056 166.631 100.336 166.105 100.119 164.438ZM102.129 162.919C102.848 162.451 103.225 162.257 103.225 162.188C103.225 162.143 103.054 162.086 102.597 162.086C101.901 162.086 101.341 162.223 100.724 162.6C100.588 162.714 100.427 162.52 100.541 162.406C101.227 161.755 102.003 161.458 103.077 161.458C104.047 161.458 104.367 161.755 104.367 161.995C104.367 162.166 104.218 162.291 103.865 162.394C103.408 162.52 103.019 162.679 102.278 163.125C102.152 163.216 102.003 163.011 102.129 162.919ZM103.202 159.414C103.043 159.048 102.837 158.74 102.437 158.398C102.357 158.329 102.461 158.18 102.575 158.226C103.408 158.522 103.831 159.174 103.831 159.471C103.831 159.654 103.717 159.779 103.544 159.779C103.408 159.779 103.316 159.676 103.202 159.414ZM104.276 158.809C104.116 158.443 103.91 158.146 103.511 157.803C103.43 157.724 103.534 157.586 103.648 157.632C104.47 157.918 104.904 158.557 104.904 158.854C104.904 159.048 104.802 159.163 104.629 159.163C104.493 159.163 104.401 159.06 104.276 158.809Z" fill="#231815"/>
<path d="M108.548 163.422C108.548 161.492 109.142 160.008 109.142 159.208C109.142 158.832 109.039 158.592 108.651 158.272C108.548 158.192 108.64 158.009 108.788 158.055C109.725 158.431 110.09 158.9 110.09 159.322C110.09 159.905 109.324 161.321 109.324 163.319C109.324 164.461 109.713 165.147 109.884 165.147C109.987 165.147 110.204 164.484 110.558 163.433C110.604 163.285 110.855 163.343 110.81 163.49C110.581 164.324 110.421 164.998 110.364 165.306C110.341 165.477 110.341 165.626 110.352 165.763C110.352 165.843 110.352 165.912 110.341 165.992C110.33 166.22 110.227 166.356 110.01 166.356C109.45 166.356 108.548 165.192 108.548 163.422ZM111.083 160.625C111.015 160.499 111.197 160.373 111.289 160.487C111.757 161.047 112.145 161.184 112.682 161.184C113.094 161.184 113.562 161.138 114.03 161.035C113.996 160.419 113.949 159.848 113.87 159.311C113.79 158.671 113.733 158.5 113.733 158.317C113.733 158.146 113.961 157.93 114.12 157.93C114.395 157.93 114.578 158.317 115.331 159.163C115.423 159.277 115.252 159.426 115.16 159.323C114.875 159.015 114.761 158.911 114.726 158.911C114.692 158.911 114.68 158.934 114.692 159.003C114.749 159.54 114.806 160.145 114.851 160.819C115.046 160.762 115.229 160.704 115.411 160.625C115.811 160.487 115.868 160.43 115.868 160.361C115.868 160.293 115.822 160.19 115.639 159.927C115.606 159.825 115.765 159.768 115.822 159.848C116.131 160.19 116.188 160.236 116.347 160.236C116.587 160.236 116.713 160.304 116.713 160.43C116.713 160.693 116.53 160.921 115.651 161.241C115.4 161.332 115.148 161.413 114.886 161.481C114.908 161.971 114.92 162.497 114.92 163.08C114.92 164.975 114.36 166.596 112.248 167.522C112.088 167.602 111.917 167.362 112.066 167.27C113.824 166.277 114.087 164.838 114.087 163.068C114.087 162.577 114.075 162.109 114.063 161.675C113.63 161.755 113.219 161.8 112.899 161.8C112.157 161.8 111.586 161.515 111.083 160.625Z" fill="#231815"/>
<path d="M123.132 166.38C125.747 165.625 126.901 164.061 126.901 162.428C126.901 160.841 125.667 159.562 123.829 159.562C123.727 159.562 123.635 159.562 123.544 159.573C123.943 159.802 124.08 160.041 124.08 160.361C124.08 161.172 123.315 163.445 122.379 164.792C121.99 165.34 121.591 165.614 121.203 165.614C120.517 165.614 119.466 164.632 119.466 163.159C119.466 161.252 121.26 159.196 123.931 159.196C126.239 159.196 127.803 160.533 127.803 162.474C127.803 164.336 126.329 166.174 123.224 166.676C123.053 166.71 122.961 166.425 123.132 166.38ZM120.301 163.09C120.301 164.061 120.871 164.689 121.146 164.689C121.282 164.689 121.419 164.609 121.625 164.358C122.528 163.205 123.281 160.989 123.281 160.179C123.281 159.939 123.247 159.79 123.064 159.642C121.386 160.019 120.301 161.606 120.301 163.09Z" fill="#231815"/>
<path d="M131.15 160.419C131.093 160.281 131.298 160.167 131.378 160.281C131.675 160.624 131.87 160.704 132.258 160.704C132.566 160.704 133.857 160.544 135.661 160.452V158.899C135.649 158.455 135.581 158.317 134.964 158.168C134.85 158.146 134.861 157.929 134.999 157.929C136.038 157.883 136.597 158.203 136.597 158.455C136.597 158.603 136.528 158.752 136.494 159.163C136.483 159.471 136.461 159.916 136.461 160.43C136.94 160.407 137.454 160.395 137.99 160.395C138.367 160.395 138.607 160.041 138.835 160.041C139.052 160.041 139.6 160.476 139.6 160.635C139.6 160.772 139.464 160.921 139.292 160.921C139.041 160.921 138.572 160.875 137.363 160.875C137.043 160.875 136.746 160.875 136.449 160.887V161.938C136.449 164.689 136.471 165.682 136.471 166.048C136.471 166.608 136.152 167.03 135.376 167.053C135.261 167.053 135.204 167.007 135.113 166.881C135.01 166.653 134.804 166.528 133.605 166.071C133.468 166.014 133.56 165.786 133.708 165.831C134.656 166.105 135.193 166.208 135.421 166.208C135.569 166.208 135.638 166.14 135.649 166.003C135.661 165.751 135.661 165.124 135.661 161.96C134.531 163.787 132.92 165.283 130.944 166.254C130.796 166.345 130.625 166.083 130.773 165.991C132.715 164.804 134.291 163.045 135.352 160.921C134.417 160.978 133.525 161.069 132.658 161.183C132.315 161.24 132.178 161.309 132.007 161.309C131.767 161.309 131.378 160.989 131.15 160.419Z" fill="#231815"/>
<path d="M144.33 162.771C144.33 162.691 144.364 162.451 144.364 162.063C144.376 161.686 144.387 160.373 144.376 159.722C144.352 159.174 144.273 159.025 143.725 158.899C143.587 158.877 143.621 158.66 143.759 158.66C144.81 158.648 145.278 159.014 145.278 159.253C145.278 159.414 145.209 159.54 145.197 159.893C145.174 160.167 145.164 160.635 145.164 161.229C145.164 162.2 145.174 162.508 145.174 162.828C145.174 163.182 144.969 163.502 144.741 163.502C144.547 163.502 144.33 163.159 144.33 162.771ZM144.741 167.121C147.208 166.06 147.676 164.073 147.801 162.543C147.87 161.732 147.904 160.658 147.904 159.482C147.904 158.363 147.835 158.26 147.23 158.123C147.094 158.089 147.116 157.872 147.253 157.872C148.35 157.826 148.863 158.18 148.863 158.443C148.863 158.637 148.794 158.809 148.772 159.253C148.749 160.578 148.715 161.515 148.623 162.543C148.475 164.301 147.733 166.437 144.877 167.407C144.718 167.475 144.57 167.201 144.741 167.121Z" fill="#231815"/>
<path d="M155.648 162.439C155.26 162.108 154.86 161.856 154.186 161.617C154.049 161.583 154.095 161.343 154.254 161.354C155.716 161.423 156.675 162.051 156.675 162.496C156.675 162.701 156.516 162.874 156.31 162.874C156.116 162.874 156.013 162.77 155.648 162.439ZM154.323 165.225C154.244 165.089 154.449 164.951 154.551 165.066C154.917 165.522 155.203 165.625 155.488 165.625C155.636 165.625 155.797 165.579 156.207 165.397C158.149 164.506 160.398 162.736 161.951 160.749C162.065 160.6 162.305 160.772 162.191 160.932C160.787 163.124 158.617 165.009 156.642 166.036C156.07 166.322 155.876 166.481 155.625 166.481C155.317 166.481 154.688 166.048 154.323 165.225ZM156.881 160.315C156.528 159.938 156.105 159.63 155.443 159.333C155.317 159.276 155.386 159.047 155.545 159.071C156.938 159.287 157.841 159.995 157.841 160.418C157.841 160.624 157.68 160.772 157.475 160.772C157.315 160.772 157.2 160.657 156.881 160.315ZM160.787 159.653C160.638 159.287 160.433 158.979 160.033 158.648C159.953 158.568 160.056 158.42 160.17 158.465C160.992 158.751 161.414 159.401 161.414 159.71C161.414 159.904 161.312 160.018 161.129 160.018C160.992 160.018 160.901 159.927 160.787 159.653ZM161.872 159.047C161.711 158.682 161.506 158.373 161.095 158.031C161.015 157.963 161.117 157.815 161.232 157.86C162.065 158.145 162.499 158.785 162.499 159.082C162.499 159.276 162.385 159.401 162.214 159.401C162.077 159.401 161.986 159.299 161.872 159.047Z" fill="#231815"/>
<path d="M164.934 161.103C164.888 160.954 165.116 160.875 165.173 160.989C165.459 161.423 165.641 161.491 165.961 161.491C166.327 161.491 167.514 161.286 169.181 161.183C169.181 160.818 169.193 160.464 169.193 160.167C169.193 159.162 169.17 158.865 169.113 158.717C169.033 158.499 168.862 158.373 168.336 158.316C168.2 158.294 168.211 158.066 168.348 158.054C169.513 157.986 170.198 158.283 170.198 158.591C170.198 158.751 170.107 158.888 170.095 159.379C170.095 160.03 170.083 160.624 170.061 161.149C170.278 161.149 170.506 161.137 170.724 161.137H172.242C172.47 161.137 172.79 160.795 172.996 160.795C173.269 160.795 173.852 161.24 173.852 161.423C173.852 161.571 173.692 161.777 173.487 161.777C173.179 161.777 172.585 161.663 170.689 161.663H170.05C170.026 162.028 170.015 162.336 169.993 162.599C169.844 164.552 168.942 166.402 166.109 167.247C165.938 167.304 165.836 167.029 166.019 166.961C168.405 166.002 169.022 164.335 169.124 162.587C169.147 162.325 169.159 162.017 169.159 161.697C168.245 161.742 167.457 161.834 166.532 161.994C166.121 162.074 166.007 162.153 165.836 162.153C165.527 162.153 165.15 161.777 164.934 161.103Z" fill="#231815"/>
<path d="M175.304 166.71C177.862 165.592 178.615 163.844 178.878 161.606C178.901 161.366 178.912 161.23 178.912 161.116C178.912 160.876 178.832 160.715 178.318 160.601C178.193 160.567 178.228 160.35 178.352 160.35C179.289 160.328 179.883 160.704 179.883 160.955C179.883 161.138 179.769 161.252 179.677 161.823C179.323 164.153 178.387 166.014 175.429 166.985C175.258 167.042 175.144 166.779 175.304 166.71ZM181.07 165.055C181.07 164.941 181.094 164.781 181.105 164.507C181.127 164.084 181.151 162.999 181.151 161.983V161.778C181.151 160.887 181.151 159.996 181.116 159.585C181.105 159.288 181.013 159.163 180.5 159.082C180.351 159.048 180.386 158.832 180.511 158.82C181.436 158.74 182.076 159.037 182.076 159.334C182.076 159.505 181.996 159.63 181.984 160.065C181.939 161.081 181.904 162.657 181.904 164.267C181.904 164.518 181.904 164.621 181.915 164.701C181.927 164.815 181.972 164.838 182.11 164.792C183.697 164.221 185.158 162.977 186.129 161.584C186.221 161.423 186.483 161.584 186.403 161.732C185.512 163.319 184.062 164.792 182.316 165.535C181.972 165.683 181.858 165.763 181.71 165.763C181.481 165.763 181.07 165.375 181.07 165.055Z" fill="#231815"/>
<path d="M191.658 166.38C194.272 165.625 195.426 164.061 195.426 162.428C195.426 160.841 194.192 159.562 192.354 159.562C192.252 159.562 192.16 159.562 192.069 159.573C192.468 159.802 192.605 160.041 192.605 160.361C192.605 161.172 191.841 163.445 190.904 164.792C190.516 165.34 190.116 165.614 189.728 165.614C189.042 165.614 187.992 164.632 187.992 163.159C187.992 161.252 189.785 159.196 192.456 159.196C194.764 159.196 196.328 160.533 196.328 162.474C196.328 164.336 194.854 166.174 191.749 166.676C191.578 166.71 191.487 166.425 191.658 166.38ZM188.826 163.09C188.826 164.061 189.396 164.689 189.671 164.689C189.807 164.689 189.944 164.609 190.15 164.358C191.053 163.205 191.806 160.989 191.806 160.179C191.806 159.939 191.772 159.79 191.589 159.642C189.911 160.019 188.826 161.606 188.826 163.09Z" fill="#231815"/>
<path d="M107.872 187.062V187.451C107.872 187.553 107.815 187.622 107.689 187.679C107.587 187.714 107.439 187.736 107.301 187.736C107.164 187.736 107.073 187.69 107.085 187.541C107.107 186.48 107.119 185.406 107.107 184.664C107.095 184.436 107.085 184.241 107.05 184.082C107.038 184.013 107.085 183.956 107.164 183.979C107.404 184.048 107.701 184.173 107.94 184.333H109.391C109.414 184.298 109.436 184.276 109.459 184.241C108.524 183.671 107.735 182.963 107.199 182.175H105.965C105.337 183.032 104.572 183.751 103.693 184.31C103.704 184.322 103.716 184.322 103.716 184.333H105.086C105.2 184.196 105.337 184.059 105.44 183.968C105.485 183.944 105.531 183.933 105.588 183.968C105.782 184.07 105.988 184.219 106.159 184.367C106.24 184.436 106.228 184.528 106.01 184.721C105.965 184.767 105.953 184.79 105.953 184.835C105.943 185.521 105.953 186.423 105.965 187.359C105.977 187.462 105.92 187.531 105.782 187.599C105.68 187.645 105.531 187.667 105.395 187.667C105.246 187.667 105.166 187.622 105.166 187.474V187.062H103.647V187.451C103.647 187.553 103.602 187.622 103.476 187.667C103.362 187.714 103.225 187.736 103.076 187.736C102.95 187.736 102.859 187.69 102.871 187.541C102.893 186.525 102.893 185.509 102.893 184.767C102.448 184.995 101.98 185.178 101.501 185.338C101.34 185.418 101.181 185.247 101.318 185.133C101.865 184.893 102.38 184.618 102.871 184.288C102.859 184.219 102.848 184.15 102.836 184.082C102.824 184.013 102.871 183.968 102.95 183.979C103.019 184.001 103.111 184.036 103.19 184.07C103.899 183.545 104.526 182.917 105.063 182.175H102.643C102.471 182.175 102.06 182.175 101.855 182.197C101.706 182.209 101.672 182.187 101.592 182.049C101.535 181.912 101.558 181.867 101.694 181.878C101.945 181.912 102.288 181.912 102.539 181.912H105.234C105.463 181.57 105.668 181.216 105.851 180.827C105.828 180.839 105.794 180.862 105.76 180.873C105.657 180.919 105.509 180.941 105.371 180.941C105.234 180.941 105.143 180.907 105.143 180.758V180.382H103.59V180.701C103.59 180.815 103.545 180.873 103.419 180.93C103.316 180.964 103.168 180.998 103.03 180.998C102.893 180.998 102.802 180.953 102.814 180.805C102.836 179.868 102.848 178.932 102.836 178.281C102.836 178.064 102.824 177.881 102.791 177.733C102.779 177.664 102.814 177.619 102.893 177.629C103.144 177.698 103.43 177.824 103.67 177.973H105.074C105.189 177.847 105.314 177.71 105.428 177.619C105.463 177.596 105.509 177.584 105.577 177.619C105.771 177.721 105.965 177.859 106.136 178.018C106.216 178.087 106.205 178.178 105.988 178.372C105.943 178.407 105.931 178.441 105.931 178.475C105.931 179.058 105.931 179.834 105.953 180.622C105.977 180.542 106.01 180.473 106.045 180.405C106.067 180.347 106.102 180.325 106.216 180.347C106.468 180.416 106.788 180.496 107.028 180.565C107.152 180.61 107.073 180.815 106.959 180.793C106.822 180.77 106.798 180.793 106.765 180.839C106.582 181.216 106.376 181.581 106.148 181.912H110.031C110.088 181.912 110.133 181.9 110.167 181.867C110.338 181.684 110.499 181.501 110.647 181.352C110.693 181.318 110.75 181.318 110.818 181.352C111.069 181.489 111.344 181.718 111.549 181.924C111.606 182.004 111.504 182.175 111.356 182.175H107.598C108.557 183.203 109.996 184.013 111.846 184.47C111.903 184.493 111.914 184.538 111.869 184.585C111.686 184.71 111.527 184.881 111.413 185.053C111.355 185.133 111.298 185.133 111.195 185.098C110.898 184.984 110.601 184.858 110.328 184.721C110.328 184.721 110.316 184.721 110.316 184.732C110.271 184.767 110.259 184.801 110.259 184.835C110.259 185.521 110.259 186.423 110.281 187.359C110.281 187.462 110.224 187.531 110.088 187.599C109.985 187.645 109.837 187.667 109.688 187.667C109.551 187.667 109.459 187.622 109.459 187.474V187.062L107.872 187.062ZM105.143 180.131V178.224H103.59V180.131H105.143ZM105.166 186.811V184.585H103.647V186.811H105.166ZM107.872 180.382V180.656C107.872 180.77 107.826 180.827 107.701 180.884C107.598 180.919 107.449 180.941 107.301 180.941C107.164 180.941 107.085 180.896 107.085 180.748C107.107 179.846 107.119 178.92 107.107 178.27C107.107 178.064 107.095 177.881 107.062 177.733C107.05 177.664 107.095 177.607 107.176 177.629C107.415 177.698 107.712 177.824 107.952 177.973H109.426C109.54 177.847 109.676 177.71 109.791 177.619C109.825 177.584 109.87 177.584 109.939 177.619C110.133 177.71 110.338 177.859 110.511 178.018C110.578 178.087 110.578 178.178 110.35 178.372C110.305 178.418 110.305 178.441 110.305 178.486C110.293 179.058 110.305 179.822 110.316 180.599C110.316 180.69 110.271 180.77 110.133 180.827C110.019 180.873 109.87 180.896 109.733 180.896C109.585 180.896 109.505 180.862 109.505 180.713V180.382H107.872ZM107.872 178.224V180.131H109.505V178.224H107.872ZM107.872 184.585V186.811H109.459V184.585H107.872Z" fill="#231815"/>
<path d="M113.777 179.799C113.698 179.663 113.949 179.526 114.029 179.651C114.532 180.268 114.886 180.428 115.456 180.428C115.65 180.428 115.867 180.416 116.096 180.382C116.313 179.948 116.495 179.514 116.644 179.115C116.804 178.669 116.838 178.521 116.838 178.406C116.838 178.224 116.712 178.041 116.29 177.904C116.175 177.847 116.232 177.641 116.37 177.664C117.478 177.755 117.866 178.166 117.866 178.441C117.866 178.646 117.637 178.863 117.409 179.4C117.295 179.663 117.169 179.937 117.044 180.2C117.421 180.096 117.832 179.96 118.288 179.788C118.516 179.697 118.597 179.64 118.597 179.594C118.597 179.526 118.459 179.388 118.174 179.126C118.14 179.011 118.345 178.932 118.414 179.034C118.893 179.412 118.962 179.434 119.316 179.434C119.476 179.434 119.556 179.502 119.556 179.594C119.556 179.846 119.373 180.085 118.62 180.359C117.923 180.61 117.26 180.793 116.69 180.896C116.393 181.432 116.073 181.969 115.696 182.517C115.684 182.54 115.696 182.552 115.719 182.54C116.336 182.118 116.838 181.912 117.317 181.912C117.832 181.912 118.129 182.22 118.277 183.042C118.974 182.677 119.829 182.277 120.88 181.832C121.166 181.718 121.246 181.65 121.246 181.57C121.246 181.421 121.052 181.159 120.538 181.055C120.424 180.998 120.503 180.805 120.652 180.839C121.737 180.93 122.125 181.546 122.125 181.912C122.125 182.254 121.863 182.289 121.246 182.483C120.035 182.883 119.088 183.26 118.345 183.602C118.38 183.933 118.391 184.345 118.391 184.813C118.391 185.406 118.266 185.646 118.037 185.646C117.797 185.646 117.592 185.373 117.592 184.961C117.592 184.585 117.58 184.265 117.569 183.979C116.484 184.573 116.085 185.064 116.085 185.475C116.085 185.966 116.61 186.24 118.151 186.24C119.316 186.24 119.819 186.046 120.069 186.046C120.424 186.046 120.675 186.297 120.675 186.48C120.675 186.697 119.921 186.914 118.174 186.914C116.324 186.914 115.605 186.366 115.605 185.578C115.605 184.95 116.061 184.298 117.546 183.443C117.478 182.54 117.317 182.301 117.009 182.301C116.655 182.301 116.153 182.529 115.479 183.156C114.771 183.899 114.406 184.424 114.155 184.424C113.995 184.424 113.869 184.298 113.869 184.105C113.869 183.899 113.96 183.602 114.074 183.453C114.245 183.248 114.463 183.042 114.748 182.655C115.125 182.14 115.468 181.57 115.776 180.998C115.742 181.01 115.696 181.01 115.662 181.01C114.817 181.01 114.292 180.725 113.777 179.799Z" fill="#231815"/>
<path d="M124.285 183.636C124.159 183.773 123.919 183.636 124.011 183.453C125.21 181.775 126.26 179.605 126.843 177.241C126.855 177.173 126.912 177.15 127.014 177.161C127.3 177.219 127.642 177.298 127.916 177.378C128.042 177.413 127.985 177.641 127.848 177.618C127.71 177.606 127.688 177.629 127.665 177.686C127.368 178.622 126.991 179.525 126.546 180.381C126.672 180.405 126.808 180.416 126.922 180.427C127.083 180.462 127.071 180.633 126.946 180.678C126.775 180.735 126.763 180.77 126.751 180.906C126.717 182.803 126.717 185.006 126.751 187.484C126.751 187.622 126.683 187.701 126.546 187.77C126.421 187.827 126.249 187.85 126.101 187.85C125.941 187.85 125.838 187.793 125.849 187.61C125.884 185.486 125.896 183.442 125.884 181.535C125.404 182.3 124.856 183.007 124.285 183.636ZM129.378 179.754C128.876 180.747 128.259 181.649 127.563 182.403C127.437 182.551 127.185 182.425 127.277 182.243C128.19 180.896 128.967 179.171 129.378 177.241C129.389 177.184 129.436 177.15 129.55 177.173C129.835 177.23 130.177 177.309 130.44 177.39C130.577 177.423 130.509 177.641 130.383 177.629C130.257 177.606 130.223 177.629 130.212 177.698C130.018 178.315 129.789 178.909 129.515 179.491H133.078C133.147 179.491 133.18 179.468 133.227 179.434C133.375 179.263 133.534 179.091 133.672 178.966C133.717 178.931 133.774 178.931 133.831 178.954C134.071 179.091 134.346 179.308 134.528 179.502C134.597 179.582 134.483 179.754 134.346 179.754H131.034C131.022 180.427 131.011 181.112 131.011 181.808H132.553C132.61 181.808 132.655 181.798 132.689 181.763C132.838 181.604 132.987 181.432 133.123 181.307C133.169 181.272 133.215 181.272 133.284 181.307C133.512 181.432 133.763 181.637 133.946 181.82C134.003 181.9 133.888 182.071 133.763 182.071H131.011C131 182.757 131 183.453 131 184.173H132.61C132.667 184.173 132.701 184.161 132.746 184.127C132.884 183.968 133.044 183.807 133.169 183.67C133.215 183.648 133.272 183.648 133.329 183.67C133.557 183.807 133.809 184.013 133.992 184.196C134.049 184.275 133.946 184.436 133.809 184.436H131C131.011 185.395 131.011 186.388 131.022 187.416C131.034 187.565 130.954 187.655 130.817 187.724C130.692 187.781 130.509 187.815 130.348 187.815C130.189 187.815 130.086 187.747 130.086 187.553C130.132 184.835 130.155 182.231 130.12 179.754L129.378 179.754Z" fill="#231815"/>
<path d="M138.972 185.783C138.972 185.292 139.395 184.88 140.102 184.88C140.879 184.88 141.507 185.36 141.792 186.217C142.717 185.874 143.322 185.132 143.322 184.298C143.322 183.408 142.626 182.791 141.439 182.791C140.627 182.791 139.623 183.237 138.675 184.139C137.933 184.858 137.738 185.189 137.465 185.189C137.293 185.189 137.133 184.984 137.133 184.755C137.133 184.424 137.465 184.218 138.058 183.533C139.051 182.425 140.594 180.678 141.644 179.411C141.667 179.365 141.655 179.343 141.61 179.343C140.97 179.457 140.25 179.628 139.714 179.788C139.44 179.88 139.326 179.948 139.177 179.948C138.915 179.948 138.446 179.514 138.286 178.748C138.229 178.6 138.446 178.508 138.526 178.623C138.801 179.08 139.041 179.182 139.348 179.182C139.634 179.182 140.627 179.068 141.598 178.909C141.964 178.852 142.158 178.612 142.329 178.612C142.557 178.612 142.991 178.988 142.991 179.137C142.991 179.308 142.774 179.434 142.249 179.959C141.621 180.621 140.25 182.152 139.497 183.042C139.485 183.054 139.509 183.076 139.52 183.066C140.262 182.654 140.947 182.46 141.575 182.46C143.139 182.46 144.179 183.18 144.179 184.379C144.179 185.772 142.763 186.971 140.833 186.971C139.691 186.971 138.972 186.399 138.972 185.783ZM139.988 185.258C139.623 185.258 139.405 185.452 139.405 185.703C139.405 186.079 139.896 186.399 140.673 186.399C140.833 186.399 140.981 186.399 141.119 186.377C140.936 185.646 140.49 185.258 139.988 185.258Z" fill="#231815"/>
<path d="M147.058 183.854C146.932 184.001 146.681 183.854 146.784 183.671C147.983 181.981 148.988 179.776 149.513 177.299C149.525 177.23 149.57 177.195 149.684 177.219C149.97 177.276 150.324 177.356 150.598 177.435C150.735 177.47 150.667 177.698 150.541 177.686C150.404 177.675 150.37 177.698 150.358 177.755C150.061 178.806 149.662 179.811 149.194 180.747C149.296 180.758 149.411 180.77 149.501 180.793C149.65 180.815 149.639 180.975 149.525 181.021C149.354 181.078 149.342 181.112 149.342 181.25C149.308 183.042 149.308 185.12 149.33 187.462C149.342 187.587 149.273 187.667 149.137 187.736C149.022 187.781 148.862 187.816 148.714 187.816C148.554 187.816 148.463 187.759 148.463 187.576C148.497 185.611 148.508 183.705 148.508 181.957C148.063 182.655 147.583 183.282 147.058 183.854ZM153.031 177.185C153.339 177.207 153.705 177.242 153.978 177.287C154.138 177.309 154.138 177.492 154.002 177.539C153.841 177.596 153.829 177.618 153.819 177.778C153.807 178.566 153.796 179.388 153.796 180.245H155.908C155.965 180.245 155.999 180.233 156.046 180.199C156.194 180.027 156.365 179.845 156.502 179.708C156.547 179.674 156.604 179.674 156.673 179.708C156.913 179.845 157.188 180.062 157.381 180.267C157.438 180.347 157.324 180.519 157.188 180.519H153.955C154.617 182.586 155.885 184.173 157.644 185.2C157.701 185.224 157.701 185.281 157.656 185.315C157.438 185.44 157.233 185.623 157.084 185.806C157.015 185.874 156.948 185.874 156.856 185.817C155.405 184.607 154.344 182.985 153.784 180.964C153.784 182.22 153.784 183.557 153.796 184.961H154.424C154.47 184.961 154.503 184.949 154.538 184.915C154.641 184.766 154.766 184.607 154.869 184.481C154.914 184.447 154.961 184.447 155.018 184.481C155.201 184.607 155.394 184.813 155.531 184.995C155.577 185.075 155.474 185.224 155.36 185.224H153.796C153.796 185.931 153.807 186.651 153.819 187.393C153.819 187.541 153.75 187.633 153.613 187.702C153.499 187.759 153.328 187.793 153.19 187.793C153.031 187.793 152.927 187.724 152.939 187.53C152.95 186.753 152.962 185.977 152.974 185.224H152.083C151.957 185.224 151.751 185.224 151.592 185.235C151.466 185.246 151.431 185.235 151.364 185.086C151.306 184.961 151.329 184.927 151.455 184.938C151.614 184.949 151.82 184.961 151.98 184.961H152.974C152.985 183.911 152.996 182.894 152.996 181.957C152.197 183.567 151.055 185.006 149.731 185.977C149.582 186.091 149.387 185.92 149.513 185.783C150.952 184.447 152.117 182.517 152.711 180.519H150.906C150.747 180.519 150.438 180.519 150.256 180.542C150.118 180.553 150.073 180.53 150.004 180.381C149.947 180.245 149.97 180.21 150.096 180.222C150.313 180.245 150.586 180.245 150.792 180.245H152.996C152.996 179.559 152.985 178.932 152.985 178.36C152.974 177.961 152.974 177.607 152.939 177.31C152.927 177.23 152.95 177.185 153.031 177.185Z" fill="#231815"/>
<path d="M158.993 184.39C159.005 184.288 159.165 184.276 159.198 184.379C159.393 185.11 159.313 185.955 158.913 186.526C158.799 186.709 158.605 186.766 158.445 186.674C158.296 186.572 158.274 186.354 158.41 186.218C158.822 185.727 159.016 185.053 158.993 184.39ZM162.545 182.586C162.579 182.552 162.624 182.552 162.681 182.586C162.864 182.689 163.082 182.837 163.241 182.986C163.31 183.043 163.298 183.146 163.07 183.34C163.013 183.386 162.99 183.409 162.99 183.466C162.921 186.64 162.647 187.189 162.373 187.393C162.213 187.531 161.883 187.656 161.494 187.656C161.391 187.656 161.334 187.622 161.3 187.554C161.231 187.371 161.106 187.246 160.261 187.074C160.147 187.04 160.158 186.835 160.295 186.845C160.934 186.925 161.231 186.949 161.494 186.959C161.653 186.959 161.71 186.937 161.779 186.88C161.974 186.743 162.213 186.275 162.248 183.134H159.839V183.397C159.839 183.523 159.781 183.591 159.656 183.649C159.552 183.694 159.404 183.716 159.267 183.716C159.13 183.716 159.051 183.659 159.051 183.5C159.084 181.558 159.096 179.685 159.084 178.429C159.073 178.075 159.062 177.824 159.016 177.607C159.005 177.527 159.039 177.482 159.119 177.505C159.37 177.584 159.633 177.699 159.872 177.835H162.122C162.168 177.835 162.202 177.824 162.248 177.79C162.362 177.664 162.488 177.516 162.602 177.401C162.636 177.379 162.681 177.379 162.738 177.413C162.933 177.516 163.15 177.699 163.298 177.87C163.344 177.939 163.253 178.087 163.127 178.087H161.471V179.457H161.871C161.916 179.457 161.951 179.445 161.985 179.423C162.088 179.297 162.213 179.172 162.305 179.069C162.351 179.046 162.396 179.046 162.453 179.069C162.624 179.172 162.819 179.343 162.956 179.492C163.001 179.571 162.91 179.708 162.795 179.708H161.471V181.147H161.859C161.905 181.147 161.94 181.136 161.974 181.102C162.088 180.988 162.202 180.85 162.305 180.748C162.339 180.725 162.384 180.725 162.441 180.748C162.613 180.862 162.819 181.033 162.944 181.182C162.99 181.25 162.899 181.399 162.795 181.399H161.471V182.883H162.191C162.305 182.769 162.431 182.655 162.545 182.586ZM159.552 184.333C159.507 184.242 159.621 184.15 159.724 184.231C160.078 184.585 160.272 185.201 160.307 185.703C160.329 186.057 160.261 186.229 160.089 186.252C159.941 186.286 159.815 186.194 159.804 185.99C159.804 185.406 159.735 184.756 159.552 184.333ZM159.839 179.457H160.741V178.087H159.839V179.457ZM159.839 181.147H160.741V179.708H159.839V181.147ZM159.839 182.883H160.741V181.399H159.839V182.883ZM160.364 184.128C160.307 184.048 160.397 183.945 160.501 184.013C160.889 184.31 161.152 184.836 161.242 185.259C161.311 185.567 161.254 185.738 161.106 185.784C160.969 185.817 160.843 185.75 160.809 185.555C160.751 185.041 160.592 184.493 160.364 184.128ZM161.174 183.888C161.117 183.82 161.197 183.706 161.3 183.763C161.688 183.991 161.974 184.413 162.099 184.767C162.19 185.03 162.156 185.201 162.019 185.247C161.893 185.292 161.757 185.247 161.7 185.064C161.62 184.63 161.425 184.185 161.174 183.888ZM164.988 180.314C164.874 180.314 164.703 180.314 164.566 180.325C164.44 180.337 164.406 180.325 164.349 180.188C164.338 180.154 164.326 180.131 164.326 180.108C163.949 180.473 163.538 180.782 163.104 181.045C162.968 181.17 162.773 181.033 162.876 180.896C163.915 179.994 164.817 178.738 165.319 177.185C165.331 177.128 165.376 177.104 165.48 177.116C165.742 177.151 166.073 177.208 166.336 177.253C166.461 177.277 166.404 177.482 166.29 177.482C166.221 177.47 166.176 177.482 166.154 177.493C166.758 178.715 167.775 179.72 169.077 180.337C169.134 180.359 169.145 180.416 169.088 180.451C168.905 180.577 168.723 180.748 168.597 180.919C168.528 180.999 168.471 180.999 168.379 180.942C167.341 180.143 166.496 179.058 165.993 177.79C165.594 178.658 165.045 179.412 164.406 180.04H164.44C164.577 180.051 164.749 180.062 164.886 180.062H166.221C166.278 180.062 166.313 180.051 166.347 180.017C166.439 179.903 166.564 179.777 166.655 179.675C166.69 179.651 166.736 179.651 166.793 179.675C166.964 179.777 167.158 179.948 167.295 180.097C167.329 180.176 167.237 180.314 167.135 180.314H166.199V181.593H167.318C167.432 181.467 167.557 181.342 167.672 181.261C167.706 181.227 167.752 181.227 167.821 181.261C168.003 181.353 168.186 181.489 168.357 181.638C168.437 181.707 168.426 181.809 168.231 182.004C168.198 182.038 168.186 182.072 168.186 182.106C168.174 182.621 168.174 183.317 168.198 184.013C168.198 184.117 168.151 184.185 168.003 184.242C167.9 184.288 167.752 184.31 167.615 184.31C167.478 184.31 167.386 184.276 167.386 184.128V183.877H166.221C166.633 185.452 167.592 186.491 169.019 187.04C169.077 187.063 169.088 187.108 169.042 187.154C168.837 187.291 168.642 187.474 168.505 187.668C168.437 187.747 168.357 187.747 168.265 187.702C167.147 186.971 166.382 185.886 166.038 184.345C165.708 185.931 164.794 187.028 162.899 187.794C162.704 187.896 162.545 187.679 162.693 187.588C164.417 186.697 165.126 185.578 165.331 183.877H164.269V184.07C164.269 184.185 164.224 184.242 164.098 184.288C163.994 184.333 163.846 184.356 163.709 184.356C163.573 184.356 163.481 184.31 163.493 184.162C163.515 183.329 163.526 182.472 163.515 181.878C163.515 181.684 163.504 181.513 163.469 181.365C163.458 181.296 163.504 181.25 163.572 181.273C163.823 181.33 164.109 181.456 164.349 181.593H165.399C165.399 181.17 165.399 180.725 165.388 180.314H164.988ZM164.269 181.855V183.625H165.365C165.399 183.248 165.411 182.861 165.399 182.438V181.855H164.269ZM166.199 182.495C166.199 182.894 166.187 183.271 166.154 183.625H167.386V181.855H166.199V182.495Z" fill="#231815"/>
<path d="M401.774 260.972C454.662 242.049 490.154 191.673 490.154 135.429C490.154 61.9255 430.355 2.12605 356.851 2.12605C296.092 2.12605 243.13 43.0527 227.847 101.724L225.786 101.197C241.308 41.5831 295.119 0 356.851 0C431.527 0 492.28 60.7527 492.28 135.429C492.28 192.575 456.219 243.756 402.481 262.978L401.774 260.972Z" fill="url(#paint0_linear_540_228)"/>
<path d="M135.246 271.126C60.826 271.126 0.280151 210.58 0.280151 136.16C0.280151 61.9396 60.5025 1.51987 134.648 1.19629V3.35739C61.6952 3.68331 2.44125 63.1323 2.44125 136.16C2.44125 209.389 62.0176 268.965 135.246 268.965C164.148 268.965 191.624 259.842 214.705 242.582C236.861 226.012 253.605 202.463 261.901 176.223L263.964 176.865C255.533 203.537 238.518 227.472 215.998 244.312C192.542 261.854 164.619 271.126 135.246 271.126Z" fill="url(#paint1_linear_540_228)"/>
</g>
<defs>
<linearGradient id="paint0_linear_540_228" x1="225.786" y1="131.489" x2="492.28" y2="131.489" gradientUnits="userSpaceOnUse">
<stop offset="0.00064" stop-color="#DAE000" stop-opacity="0.65"/>
<stop offset="0.54606" stop-color="#EA5514" stop-opacity="0.7"/>
<stop offset="0.63433" stop-color="#E86511" stop-opacity="0.69418"/>
<stop offset="0.78459" stop-color="#E3900B" stop-opacity="0.67853"/>
<stop offset="0.97749" stop-color="#DBD701" stop-opacity="0.65323"/>
<stop offset="1" stop-color="#DAE000" stop-opacity="0.65"/>
</linearGradient>
<linearGradient id="paint1_linear_540_228" x1="0.280151" y1="136.161" x2="263.964" y2="136.161" gradientUnits="userSpaceOnUse">
<stop offset="0.00064" stop-color="#256AB4" stop-opacity="0.65"/>
<stop offset="0.10755" stop-color="#82C2CA"/>
<stop offset="0.17119" stop-color="#77BFC6" stop-opacity="0.99229"/>
<stop offset="0.27954" stop-color="#5CB8BC" stop-opacity="0.97153"/>
<stop offset="0.41841" stop-color="#31AEAC" stop-opacity="0.93804"/>
<stop offset="0.55511" stop-color="#00A29A" stop-opacity="0.9"/>
<stop offset="0.57119" stop-color="#07A49E" stop-opacity="0.90892"/>
<stop offset="0.65194" stop-color="#2AADB0" stop-opacity="0.94836"/>
<stop offset="0.72848" stop-color="#42B3BD" stop-opacity="0.97682"/>
<stop offset="0.79837" stop-color="#51B7C5" stop-opacity="0.99403"/>
<stop offset="0.85556" stop-color="#57B9C8"/>
<stop offset="0.8806" stop-color="#4CABC5"/>
<stop offset="0.9586" stop-color="#2F87BD"/>
<stop offset="1" stop-color="#2579BA"/>
</linearGradient>
<clipPath id="clip0_540_228">
<rect width="492" height="271.126" fill="white" transform="translate(0.280151)"/>
</clipPath>
</defs>
</svg>
