<svg width="19" height="15" viewBox="0 0 19 15" fill="none" xmlns="http://www.w3.org/2000/svg">
<path d="M11.7784 14.9682L11.222 14.8659L11.2727 14.6573C11.3637 13.8782 12.0478 10.0836 16.6797 7.9632H0L0.0641299 7.12811H16.5918C12.2695 5.20304 11.2953 1.52571 11.0944 0.379115L11.0596 0.179734L11.2636 0.107493L11.8584 0L11.8926 0.212679C11.9012 0.265845 12.8179 5.54634 18.5914 6.96629C18.6568 6.98247 18.6885 6.9923 18.7178 7.00154C18.7447 7.00963 18.7697 7.01715 18.8308 7.0316L18.9982 7.06974L19 8.04238H18.8198C13.1178 9.42708 12.1314 14.2447 12.0374 14.7896L12.0013 15L11.7784 14.9682Z" fill="#FBFCFE"/>
</svg>
