<svg width="20" height="12" viewBox="0 0 20 12" fill="none" xmlns="http://www.w3.org/2000/svg">
<g clip-path="url(#clip0_961_195)">
<path d="M12.0167 13.4682L11.4603 13.3659L11.511 13.1573C11.602 12.3782 12.286 8.5836 16.918 6.4632H0.238281L0.302411 5.62811H16.8301C12.5078 3.70304 11.5336 0.0257146 11.3327 -1.12089L11.2978 -1.32027L11.5018 -1.39251L12.0967 -1.5L12.1309 -1.28732C12.1395 -1.23415 13.0562 4.04634 18.8297 5.46629C18.895 5.48247 18.9268 5.4923 18.9561 5.50154C18.983 5.50963 19.008 5.51715 19.0691 5.5316L19.2364 5.56974L19.2383 6.54238H19.0581C13.3561 7.92708 12.3697 12.7447 12.2757 13.2896L12.2396 13.5L12.0167 13.4682Z" fill="white"/>
</g>
<defs>
<clipPath id="clip0_961_195">
<rect width="19" height="12" fill="white" transform="translate(0.238281)"/>
</clipPath>
</defs>
</svg>
