<svg width="177" height="177" viewBox="0 0 177 177" fill="none" xmlns="http://www.w3.org/2000/svg">
<path d="M86.7778 46.6655V86.9536H144.968" stroke="white" stroke-width="0.88" stroke-miterlimit="10"/>
<path d="M91.2441 82.4691L102.019 66.1306L109.723 73.8346L120.683 56.1748L129.616 65.1071L142.902 47.3542" stroke="white" stroke-width="0.88" stroke-miterlimit="10"/>
<path d="M122.6 100.427H86.7778V107.144H122.6V100.427Z" stroke="white" stroke-width="0.88" stroke-miterlimit="10"/>
<path d="M144.986 107.144H86.7778V113.862H144.986V107.144Z" stroke="white" stroke-width="0.88" stroke-miterlimit="10"/>
<path d="M109.164 118.328H86.7778V125.046H109.164V118.328Z" stroke="white" stroke-width="0.88" stroke-miterlimit="10"/>
<path d="M138.268 125.046H86.7778V131.764H138.268V125.046Z" stroke="white" stroke-width="0.88" stroke-miterlimit="10"/>
<path d="M50.0816 109.378H36.646V131.764H50.0816V109.378Z" stroke="white" stroke-width="0.88" stroke-miterlimit="10"/>
<path d="M76.9341 113.862H63.4985V131.764H76.9341V113.862Z" stroke="white" stroke-width="0.88" stroke-miterlimit="10"/>
<path d="M63.4986 100.427H50.063V131.764H63.4986V100.427Z" stroke="white" stroke-width="0.88" stroke-miterlimit="10"/>
<path d="M77.8833 65.0698C77.4583 59.7827 75.1652 54.8194 71.4146 51.0688C67.6639 47.3182 62.7007 45.0251 57.4136 44.6001V60.4362C58.5191 60.7492 59.5265 61.3389 60.3405 62.1497C61.1546 62.9605 61.7484 63.9656 62.0658 65.0698H77.8833Z" stroke="white" stroke-width="0.88" stroke-miterlimit="10"/>
<path d="M55.6271 89.2613C60.7219 89.25 65.6597 87.4968 69.621 84.2927L58.3254 72.9972C57.4783 73.3847 56.5586 73.5877 55.6271 73.5927C54.0572 73.5416 52.5555 72.939 51.3857 71.8906C50.216 70.8423 49.453 69.4154 49.2309 67.8604C49.0088 66.3054 49.3416 64.7219 50.171 63.388C51.0005 62.0541 52.2734 61.0551 53.7662 60.5665V44.6001C50.8337 44.7223 47.954 45.4209 45.2915 46.656C42.629 47.8911 40.2358 49.6385 38.2486 51.7985C34.2353 56.1608 32.1193 61.9387 32.3661 67.8611C32.6128 73.7836 35.2022 79.3654 39.5645 83.3787C43.9268 87.392 49.7047 89.508 55.6271 89.2613Z" stroke="white" stroke-width="0.88" stroke-miterlimit="10"/>
<path d="M72.319 81.8177C75.553 78.2022 77.5139 73.6269 77.9016 68.7915H62.0655C61.8827 69.4573 61.5869 70.0867 61.1909 70.6524L72.319 81.8177Z" stroke="white" stroke-width="0.88" stroke-miterlimit="10"/>
</svg>
