<svg width="177" height="177" viewBox="0 0 177 177" fill="none" xmlns="http://www.w3.org/2000/svg">
<path d="M141.113 64.536L136.247 69.4024V64.536H118.825V45.0706H149.645V64.536H141.113Z" stroke="white" stroke-width="0.88" stroke-miterlimit="10"/>
<path d="M140.724 56.2955C141.62 56.2955 142.346 55.5693 142.346 54.6734C142.346 53.7775 141.62 53.0513 140.724 53.0513C139.828 53.0513 139.102 53.7775 139.102 54.6734C139.102 55.5693 139.828 56.2955 140.724 56.2955Z" fill="white"/>
<path d="M134.235 56.2955C135.131 56.2955 135.858 55.5693 135.858 54.6734C135.858 53.7775 135.131 53.0513 134.235 53.0513C133.34 53.0513 132.613 53.7775 132.613 54.6734C132.613 55.5693 133.34 56.2955 134.235 56.2955Z" fill="white"/>
<path d="M127.747 56.2955C128.643 56.2955 129.369 55.5693 129.369 54.6734C129.369 53.7775 128.643 53.0513 127.747 53.0513C126.851 53.0513 126.125 53.7775 126.125 54.6734C126.125 55.5693 126.851 56.2955 127.747 56.2955Z" fill="white"/>
<path d="M136.668 121.245C136.668 116.943 134.959 112.817 131.917 109.775C128.875 106.733 124.749 105.024 120.447 105.024" stroke="white" stroke-width="0.88" stroke-miterlimit="10"/>
<path d="M39.3413 121.245C39.3413 116.943 41.0503 112.817 44.0924 109.775C47.1344 106.733 51.2604 105.024 55.5625 105.024" stroke="white" stroke-width="0.88" stroke-miterlimit="10"/>
<path d="M51.2801 68.2666C48.2686 68.2666 45.3805 69.4629 43.251 71.5924C41.1216 73.7218 39.9253 76.6099 39.9253 79.6214C39.9253 82.6329 41.1216 85.5211 43.251 87.6505C45.3805 89.78 48.2686 90.9763 51.2801 90.9763V68.2666Z" stroke="white" stroke-width="0.88" stroke-miterlimit="10"/>
<path d="M88.0049 49.8396C79.4006 49.8396 71.1488 53.2576 65.0647 59.3418C58.9805 65.4259 55.5625 73.6777 55.5625 82.282V96.8811H120.447V82.282C120.447 73.6777 117.029 65.4259 110.945 59.3418C104.861 53.2576 96.6091 49.8396 88.0049 49.8396Z" stroke="white" stroke-width="0.88" stroke-miterlimit="10"/>
<path d="M55.5625 100.158H120.447V122.867C120.447 125.449 119.422 127.924 117.597 129.749C115.771 131.575 113.296 132.6 110.715 132.6H65.2952C62.7139 132.6 60.2384 131.575 58.4131 129.749C56.5879 127.924 55.5625 125.449 55.5625 122.867V100.158Z" stroke="white" stroke-width="0.88" stroke-miterlimit="10"/>
<path d="M79.8945 50.76L79.8945 80.6922C79.8945 82.8432 80.7491 84.9062 82.2701 86.4272C83.7911 87.9483 85.8541 88.8028 88.0051 88.8028C90.1562 88.8028 92.2192 87.9483 93.7402 86.4272C95.2613 84.9062 96.1157 82.8432 96.1157 80.6922V50.76" stroke="white" stroke-width="0.88" stroke-miterlimit="10"/>
<path d="M88.005 85.5098C90.6926 85.5098 92.8714 83.3311 92.8714 80.6435C92.8714 77.9558 90.6926 75.7771 88.005 75.7771C85.3174 75.7771 83.1387 77.9558 83.1387 80.6435C83.1387 83.3311 85.3174 85.5098 88.005 85.5098Z" stroke="white" stroke-width="0.88" stroke-miterlimit="10"/>
<path d="M89.6109 80.6599C89.1807 80.6599 88.768 80.489 88.4638 80.1848C88.1596 79.8806 87.9887 79.468 87.9887 79.0378C87.9945 78.7576 88.0727 78.4838 88.2158 78.2429H88.0049C87.5237 78.2429 87.0533 78.3856 86.6531 78.653C86.253 78.9203 85.9412 79.3004 85.757 79.745C85.5728 80.1896 85.5246 80.6788 85.6185 81.1508C85.7124 81.6228 85.9442 82.0563 86.2844 82.3966C86.6247 82.7369 87.0583 82.9686 87.5302 83.0625C88.0022 83.1564 88.4915 83.1082 88.9361 82.9241C89.3807 82.7399 89.7607 82.428 90.0281 82.0279C90.2954 81.6278 90.4381 81.1573 90.4381 80.6761C90.446 80.5952 90.446 80.5137 90.4381 80.4328C90.1898 80.5861 89.9027 80.6649 89.6109 80.6599Z" fill="white"/>
<path d="M51.2803 69.8889C54.1215 62.4511 59.1537 56.0511 65.7114 51.5355C72.269 47.0199 80.043 44.6014 88.005 44.6001" stroke="white" stroke-width="0.88" stroke-miterlimit="10"/>
<path d="M69.9346 88.7541C71.2785 88.7541 72.3678 87.6647 72.3678 86.3209C72.3678 84.9771 71.2785 83.8877 69.9346 83.8877C68.5908 83.8877 67.5015 84.9771 67.5015 86.3209C67.5015 87.6647 68.5908 88.7541 69.9346 88.7541Z" stroke="white" stroke-width="0.88"/>
<path d="M51.2803 86.321H67.5015" stroke="white" stroke-width="0.88" stroke-miterlimit="10"/>
<path d="M93.6825 121.635L88.0051 127.312L82.3276 121.635L88.0051 110.28L93.6825 121.635Z" stroke="white" stroke-width="0.88" stroke-miterlimit="10"/>
<path d="M88.005 109.079C89.3488 109.079 90.4381 107.99 90.4381 106.646C90.4381 105.302 89.3488 104.213 88.005 104.213C86.6611 104.213 85.5718 105.302 85.5718 106.646C85.5718 107.99 86.6611 109.079 88.005 109.079Z" stroke="white" stroke-width="0.88"/>
</svg>
