<svg width="176" height="177" viewBox="0 0 176 177" fill="none" xmlns="http://www.w3.org/2000/svg">
<path d="M135.198 95.0803C135.198 99.2265 133.551 103.203 130.619 106.135C127.687 109.067 123.711 110.714 119.564 110.714" stroke="white" stroke-width="0.88" stroke-miterlimit="10"/>
<path d="M33.5811 87.2637C33.5811 89.3368 34.4046 91.325 35.8705 92.7909C37.3364 94.2568 39.3246 95.0803 41.3977 95.0803C43.4708 95.0803 45.459 94.2568 46.9249 92.7909C48.3908 91.325 49.2144 89.3368 49.2144 87.2637" stroke="white" stroke-width="0.88" stroke-miterlimit="10"/>
<path d="M41.3975 95.0803C41.3975 99.2265 43.0445 103.203 45.9764 106.135C48.9082 109.067 52.8846 110.714 57.0308 110.714" stroke="white" stroke-width="0.88" stroke-miterlimit="10"/>
<path d="M75.7285 106.664V119.171L88.2352 112.918L75.7285 106.664Z" stroke="white" stroke-width="0.88" stroke-miterlimit="10"/>
<path d="M100.742 106.664V119.171L88.2349 112.918L100.742 106.664Z" stroke="white" stroke-width="0.88" stroke-miterlimit="10"/>
<path d="M88.2979 52.8389C80.0055 52.8389 72.0527 56.133 66.189 61.9967C60.3254 67.8603 57.0313 75.8131 57.0312 84.1055V98.1755H119.565V84.1055C119.565 75.8131 116.27 67.8603 110.407 61.9967C104.543 56.133 96.5903 52.8389 88.2979 52.8389Z" stroke="white" stroke-width="0.88" stroke-miterlimit="10"/>
<path d="M56.9683 101.333H119.502V123.22C119.502 125.708 118.513 128.094 116.754 129.853C114.995 131.612 112.609 132.6 110.122 132.6H66.3483C63.8605 132.6 61.4747 131.612 59.7156 129.853C57.9565 128.094 56.9683 125.708 56.9683 123.22V101.333Z" stroke="white" stroke-width="0.88" stroke-miterlimit="10"/>
<path d="M80.481 54.0657V82.5736C80.481 84.6467 81.3045 86.6349 82.7704 88.1008C84.2363 89.5667 86.2245 90.3902 88.2976 90.3902C90.3707 90.3902 92.3589 89.5667 93.8248 88.1008C95.2907 86.6349 96.1143 84.6467 96.1143 82.5736V54.0657" stroke="white" stroke-width="0.88" stroke-miterlimit="10"/>
<path d="M88.2351 126.206C89.5302 126.206 90.5801 125.156 90.5801 123.861C90.5801 122.566 89.5302 121.516 88.2351 121.516C86.94 121.516 85.8901 122.566 85.8901 123.861C85.8901 125.156 86.94 126.206 88.2351 126.206Z" stroke="white" stroke-width="0.88"/>
<path d="M88.2351 49.2901C89.5302 49.2901 90.5801 48.2402 90.5801 46.9451C90.5801 45.65 89.5302 44.6001 88.2351 44.6001C86.94 44.6001 85.8901 45.65 85.8901 46.9451C85.8901 48.2402 86.94 49.2901 88.2351 49.2901Z" stroke="white" stroke-width="0.88"/>
<path d="M88.2349 87.2323C90.8251 87.2323 92.9249 85.1325 92.9249 82.5423C92.9249 79.9521 90.8251 77.8523 88.2349 77.8523C85.6447 77.8523 83.5449 79.9521 83.5449 82.5423C83.5449 85.1325 85.6447 87.2323 88.2349 87.2323Z" stroke="white" stroke-width="0.88" stroke-miterlimit="10"/>
<path d="M89.8605 82.5423C89.4459 82.5423 89.0482 82.3775 88.755 82.0844C88.4618 81.7912 88.2971 81.3935 88.2971 80.9789C88.3054 80.7143 88.3807 80.4561 88.516 80.2285H88.3128C87.849 80.2285 87.3956 80.366 87.01 80.6237C86.6243 80.8814 86.3238 81.2476 86.1463 81.6761C85.9688 82.1046 85.9223 82.5761 86.0128 83.031C86.1033 83.4859 86.3267 83.9037 86.6546 84.2317C86.9826 84.5596 87.4004 84.783 87.8553 84.8735C88.3102 84.9639 88.7817 84.9175 89.2102 84.74C89.6387 84.5625 90.0049 84.262 90.2626 83.8763C90.5202 83.4907 90.6578 83.0373 90.6578 82.5735C90.6654 82.4955 90.6654 82.417 90.6578 82.339C90.4178 82.4838 90.1405 82.5545 89.8605 82.5423Z" fill="white"/>
<path d="M43.6802 62.2502H38.9902V84.1369L41.3352 87.2636L43.6802 84.1369V62.2502Z" stroke="white" stroke-width="0.88" stroke-miterlimit="10"/>
<path d="M43.6802 57.5601H38.9902V62.2501H43.6802V57.5601Z" stroke="white" stroke-width="0.88" stroke-miterlimit="10"/>
<path d="M38.8493 62.2502H35.7227V73.1936" stroke="white" stroke-width="0.88" stroke-miterlimit="10"/>
<path d="M146.86 72.7087H134.354" stroke="white" stroke-width="0.88" stroke-miterlimit="10"/>
<path d="M146.86 77.3987H134.354" stroke="white" stroke-width="0.88" stroke-miterlimit="10"/>
<path d="M149.268 85.7002V68.5035C149.268 67.467 148.856 66.4729 148.123 65.7399C147.39 65.007 146.396 64.5952 145.359 64.5952H128.163" stroke="white" stroke-width="0.88" stroke-miterlimit="10"/>
<path d="M124.254 71.6302V68.5035C124.254 67.467 124.666 66.4729 125.399 65.7399C126.132 65.007 127.126 64.5952 128.162 64.5952C129.199 64.5952 130.193 65.007 130.926 65.7399C131.659 66.4729 132.071 67.467 132.071 68.5035V87.2635C132.071 88.3001 132.482 89.2942 133.215 90.0271C133.948 90.7601 134.942 91.1719 135.979 91.1719M135.979 91.1719C137.015 91.1719 138.01 90.7601 138.743 90.0271C139.475 89.2942 139.887 88.3001 139.887 87.2635V85.7002H154.739V87.2635C154.739 88.3001 154.327 89.2942 153.594 90.0271C152.861 90.7601 151.867 91.1719 150.831 91.1719H135.979Z" stroke="white" stroke-width="0.88" stroke-miterlimit="10"/>
<path d="M88.2349 52.8388V49.29" stroke="white" stroke-width="0.88"/>
</svg>
