<svg width="16" height="12" viewBox="0 0 16 12" fill="none" xmlns="http://www.w3.org/2000/svg">
<path d="M9.42274 11.9746L8.97762 11.8927L9.01817 11.7258C9.09097 11.1026 9.63821 8.06688 13.3438 6.37056H0L0.0513039 5.70248H13.2734C9.81558 4.16243 9.03625 1.22057 8.8755 0.303292L8.84765 0.143787L9.01085 0.0859947L9.48675 0L9.51411 0.170143C9.52095 0.212676 10.2543 4.43707 14.8731 5.57303C14.9254 5.58598 14.9508 5.59384 14.9743 5.60124C14.9958 5.60771 15.0158 5.61372 15.0647 5.62528L15.1985 5.65579L15.2 6.4339H15.0559C10.4942 7.54167 9.70515 11.3957 9.62991 11.8317L9.60108 12L9.42274 11.9746Z" fill="#030201"/>
</svg>
