<svg width="128" height="122" viewBox="0 0 128 122" fill="none" xmlns="http://www.w3.org/2000/svg">
<g clip-path="url(#clip0_929_249)">
<path d="M118.395 29.3555H128V0.000225067H118.395V29.3555Z" fill="#040000"/>
<path d="M128 8.48381V0L96.6822 0V8.48381L128 8.48381Z" fill="#040000"/>
<path d="M118.395 121.037H128V91.6814H118.395V121.037Z" fill="#040000"/>
<path d="M96.6826 112.553V121.037H128V112.553H96.6826Z" fill="#040000"/>
<path d="M118.395 121.037H128V91.6814H118.395V121.037Z" fill="#040000"/>
<path d="M96.6826 112.553V121.037H128V112.553H96.6826Z" fill="#040000"/>
<path d="M9.60528 91.6812H0V121.036H9.60528V91.6812Z" fill="#040000"/>
<path d="M0 112.553L0 121.037H31.3178V112.553H0Z" fill="#040000"/>
<path d="M9.60528 0H0V29.3552H9.60528V0Z" fill="#040000"/>
<path d="M31.3174 8.48381V0L-0.000459671 0V8.48381L31.3174 8.48381Z" fill="#040000"/>
<path d="M9.60528 0H0V29.3552H9.60528V0Z" fill="#040000"/>
<path d="M31.3174 8.48381V0L-0.000459671 0V8.48381L31.3174 8.48381Z" fill="#040000"/>
</g>
<defs>
<clipPath id="clip0_929_249">
<rect width="128" height="121.036" fill="white"/>
</clipPath>
</defs>
</svg>
