<svg width="140" height="33" viewBox="0 0 140 33" fill="none" xmlns="http://www.w3.org/2000/svg">
<g clip-path="url(#clip0_833_2492)">
<path d="M29.3566 8.54785H31.7383V1.18487H29.3566V8.54785Z" fill="#040000"/>
<path d="M31.7383 3.31251V1.18457L23.9727 1.18457V3.31251L31.7383 3.31251Z" fill="#040000"/>
<path d="M29.3566 31.5435H31.7383V24.1805H29.3566V31.5435Z" fill="#040000"/>
<path d="M23.9736 29.4155V31.5435H31.7392V29.4155H23.9736Z" fill="#040000"/>
<path d="M29.3566 31.5435H31.7383V24.1805H29.3566V31.5435Z" fill="#040000"/>
<path d="M23.9736 29.4155V31.5435H31.7392V29.4155H23.9736Z" fill="#040000"/>
<path d="M2.38172 24.1802H0V31.5432H2.38172V24.1802Z" fill="#040000"/>
<path d="M0 29.4155L0 31.5435H7.76554V29.4155H0Z" fill="#040000"/>
<path d="M2.38172 1.18457H0V8.54755H2.38172V1.18457Z" fill="#040000"/>
<path d="M7.76562 3.31251V1.18457L8.86917e-05 1.18457V3.31251L7.76562 3.31251Z" fill="#040000"/>
<path d="M2.38172 1.18457H0V8.54755H2.38172V1.18457Z" fill="#040000"/>
<path d="M7.76562 3.31251V1.18457L8.86917e-05 1.18457V3.31251L7.76562 3.31251Z" fill="#040000"/>
</g>
<g clip-path="url(#clip1_833_2492)">
<path d="M43.398 12.2313H43.8473C44.3129 12.2313 44.4574 12.0541 44.4574 11.4907V1.9756C44.4574 1.37997 44.4093 1.23505 43.8155 1.23505H43.4142C43.1733 1.23505 43.1733 0.800293 43.4142 0.800293C44.0402 0.800293 44.6181 0.816239 45.3243 0.816239C45.9983 0.816239 46.6242 0.800293 47.2343 0.800293C47.4589 0.800293 47.4589 1.23505 47.2343 1.23505H46.7365C46.2713 1.23505 46.1106 1.41222 46.1106 1.9756V7.3047L50.9257 2.05603C51.2147 1.718 51.327 1.23505 50.7653 1.23505H50.1553C49.9627 1.23505 49.9627 0.800293 50.1715 0.800293C50.7173 0.800293 51.2631 0.816239 51.9212 0.816239C52.5471 0.816239 52.8361 0.800293 53.3334 0.800293C53.5744 0.800293 53.5581 1.23505 53.3334 1.23505H53.1409C52.4666 1.23505 52.0653 1.52489 51.5838 2.05603L48.4219 5.48522L52.3224 10.7339C53.237 12.0059 53.6383 12.3117 54.4893 12.1345C54.6977 12.1668 54.7298 12.5048 54.5052 12.6015C54.1682 12.7302 53.7026 12.7784 53.2691 12.7784C52.1939 12.7784 51.5679 12.5371 50.9578 11.6838L47.2823 6.70907L46.1106 7.98075V11.4907C46.1106 12.0701 46.207 12.2313 46.7687 12.2313H47.2021C47.4427 12.2313 47.4427 12.6657 47.2021 12.6657C46.5762 12.6657 45.9018 12.6497 45.2119 12.6497C44.5376 12.6497 43.9759 12.6657 43.398 12.6657C43.1733 12.6657 43.1733 12.2313 43.398 12.2313Z" fill="#040000"/>
<path d="M55.6921 12.2154H55.9651C56.4466 12.2154 56.7356 12.0382 57.0404 11.2654L61.2617 0.736201C61.3582 0.527148 61.663 0.51085 61.7595 0.736201L66.109 11.5393C66.3015 12.0063 66.5103 12.2154 66.9437 12.2154H67.1684C67.3772 12.2154 67.3772 12.6661 67.1525 12.6661C66.5103 12.6661 65.9645 12.6501 65.2584 12.6501C64.4399 12.6501 63.7013 12.6661 62.9792 12.6661C62.7383 12.6661 62.7546 12.2154 62.9792 12.2154H63.7818C64.2954 12.2154 64.4078 11.9255 64.2311 11.4266L63.0435 8.39996H58.7258L57.6021 11.2654C57.3294 11.8933 57.5378 12.2154 58.2764 12.2154H58.9663C59.2073 12.2154 59.2073 12.6661 58.9826 12.6661C58.3086 12.6661 57.843 12.6501 57.1206 12.6501C56.607 12.6501 56.2541 12.6661 55.6921 12.6661C55.4515 12.6661 55.4674 12.2154 55.6921 12.2154ZM62.8669 7.9489L60.9085 2.90965L58.9183 7.9489H62.8669Z" fill="#040000"/>
<path d="M70.4421 2.32993V11.0397C70.4421 11.9896 70.7311 12.215 71.5337 12.215H72.0794C72.3363 12.215 72.3204 12.6657 72.0794 12.6657C71.4213 12.6657 70.9077 12.6497 70.2337 12.6497C69.5594 12.6497 69.2065 12.6657 68.6607 12.6657C68.4039 12.6657 68.4039 12.215 68.6286 12.215H69.1263C69.6717 12.215 69.9448 11.9896 69.9448 11.0397V1.68576C69.6717 1.41222 69.3669 1.23506 68.9175 1.23506H68.5484C68.3237 1.23506 68.3237 0.816239 68.5484 0.816239H71.0522C71.261 0.816239 71.3571 0.864783 71.4535 0.993403L77.8738 9.88066V2.29769C77.8738 1.42817 77.665 1.251 76.9108 1.251H76.3008C76.0761 1.251 76.0439 0.800293 76.3008 0.800293C76.8624 0.800293 77.4403 0.816239 78.1627 0.816239C78.9332 0.816239 79.1578 0.800293 79.7036 0.800293C79.9442 0.800293 79.9283 1.251 79.6873 1.251H79.2543C78.6121 1.251 78.3715 1.42816 78.3715 2.32993V12.4566C78.3715 12.7302 78.0504 12.7947 77.8738 12.553L70.4421 2.32993Z" fill="#040000"/>
<path d="M80.0075 12.2154H80.2806C80.7621 12.2154 81.051 12.0382 81.3559 11.2654L85.5772 0.736201C85.6736 0.527148 85.9785 0.51085 86.0749 0.736201L90.4244 11.5393C90.617 12.0063 90.8257 12.2154 91.2592 12.2154H91.4838C91.6926 12.2154 91.6926 12.6661 91.4679 12.6661C90.8257 12.6661 90.28 12.6501 89.5738 12.6501C88.7553 12.6501 88.0167 12.6661 87.2947 12.6661C87.0537 12.6661 87.07 12.2154 87.2947 12.2154H88.0972C88.6109 12.2154 88.7232 11.9255 88.5466 11.4266L87.359 8.39996H83.0412L81.9175 11.2654C81.6448 11.8933 81.8532 12.2154 82.5919 12.2154H83.2818C83.5227 12.2154 83.5227 12.6661 83.298 12.6661C82.624 12.6661 82.1584 12.6501 81.4361 12.6501C80.9224 12.6501 80.5695 12.6661 80.0075 12.6661C79.767 12.6661 79.7829 12.2154 80.0075 12.2154ZM87.1823 7.9489L85.2239 2.90965L83.2337 7.9489H87.1823Z" fill="#040000"/>
<path d="M92.9601 12.1995L99.5407 1.30005H95.5441C94.7415 1.30005 94.2922 1.62178 93.9873 2.66847C93.9552 2.79709 93.9071 2.92606 93.875 3.10323C93.8266 3.29634 93.4094 3.26409 93.4253 3.05468C93.5217 2.41087 93.6341 1.67032 93.7464 1.01021C93.7785 0.8008 93.8587 0.768555 94.0834 0.768555L95.7366 0.816742H101.274C101.483 0.816742 101.579 1.0584 101.419 1.28375L94.9022 12.1832H99.1235C100.119 12.1832 100.664 11.7648 101.066 10.4927C101.13 10.3159 101.178 10.1388 101.242 9.91341C101.306 9.704 101.74 9.75219 101.708 9.9616C101.531 10.7989 101.355 11.668 101.162 12.4086C101.098 12.618 101.001 12.6502 100.777 12.6502H93.1367C92.9117 12.6502 92.8156 12.3927 92.9601 12.1995Z" fill="#040000"/>
<path d="M102.911 12.2154H103.184C103.665 12.2154 103.954 12.0382 104.259 11.2654L108.48 0.736201C108.577 0.527148 108.882 0.51085 108.978 0.736201L113.328 11.5393C113.52 12.0063 113.729 12.2154 114.162 12.2154H114.387C114.596 12.2154 114.596 12.6661 114.371 12.6661C113.729 12.6661 113.183 12.6501 112.477 12.6501C111.659 12.6501 110.92 12.6661 110.198 12.6661C109.957 12.6661 109.973 12.2154 110.198 12.2154H111.001C111.514 12.2154 111.627 11.9255 111.45 11.4266L110.262 8.39996H105.945L104.821 11.2654C104.548 11.8933 104.757 12.2154 105.495 12.2154H106.185C106.426 12.2154 106.426 12.6661 106.201 12.6661C105.527 12.6661 105.062 12.6501 104.339 12.6501C103.826 12.6501 103.473 12.6661 102.911 12.6661C102.67 12.6661 102.686 12.2154 102.911 12.2154ZM110.086 7.9489L108.127 2.90965L106.137 7.9489H110.086Z" fill="#040000"/>
<path d="M121.208 3.82697L118.351 12.553C118.271 12.7784 117.902 12.7624 117.837 12.5693L114.065 2.08828C113.857 1.49265 113.584 1.251 113.118 1.251H112.781C112.573 1.251 112.573 0.800293 112.798 0.800293C113.472 0.800293 114.001 0.816239 114.74 0.816239C115.686 0.816239 116.248 0.800293 116.955 0.800293C117.163 0.800293 117.179 1.23505 116.955 1.23505H116.264C115.783 1.23505 115.655 1.5086 115.815 1.94336L118.688 10.0093L120.935 3.02193L120.614 2.10422C120.405 1.49265 120.165 1.251 119.635 1.251H119.266C119.041 1.251 119.041 0.800293 119.266 0.800293C119.972 0.800293 120.566 0.816239 121.304 0.816239C122.283 0.816239 122.733 0.800293 123.519 0.800293C123.776 0.800293 123.76 1.251 123.535 1.251H122.813C122.332 1.251 122.219 1.58903 122.363 2.00784L124.996 10.0093L127.468 2.28138C127.741 1.49265 127.548 1.23505 126.858 1.23505H126.312C126.072 1.23505 126.072 0.800293 126.296 0.800293C126.89 0.800293 127.484 0.816239 128.062 0.816239C128.671 0.816239 128.864 0.800293 129.362 0.800293C129.603 0.800293 129.586 1.23505 129.378 1.23505H129.073C128.511 1.23505 128.254 1.60533 127.997 2.34587L124.659 12.553C124.579 12.7784 124.21 12.7624 124.145 12.553L121.208 3.82697Z" fill="#040000"/>
<path d="M127.916 12.2154H128.189C128.67 12.2154 128.959 12.0382 129.264 11.2654L133.485 0.736201C133.582 0.527148 133.887 0.51085 133.983 0.736201L138.333 11.5393C138.525 12.0063 138.734 12.2154 139.167 12.2154H139.392C139.601 12.2154 139.601 12.6661 139.376 12.6661C138.734 12.6661 138.188 12.6501 137.482 12.6501C136.664 12.6501 135.925 12.6661 135.203 12.6661C134.962 12.6661 134.978 12.2154 135.203 12.2154H136.005C136.519 12.2154 136.631 11.9255 136.455 11.4266L135.267 8.39996H130.949L129.826 11.2654C129.553 11.8933 129.762 12.2154 130.5 12.2154H131.19C131.431 12.2154 131.431 12.6661 131.206 12.6661C130.532 12.6661 130.067 12.6501 129.344 12.6501C128.831 12.6501 128.477 12.6661 127.916 12.6661C127.675 12.6661 127.691 12.2154 127.916 12.2154ZM135.091 7.9489L133.132 2.90965L131.142 7.9489H135.091Z" fill="#040000"/>
<path d="M44.217 32.0069C44.0404 31.9425 43.944 31.8298 43.8959 31.6367C43.7673 31.0247 43.6713 30.2842 43.6391 29.5114C43.6229 29.2861 44.0563 29.1897 44.1206 29.3987C44.217 29.8175 44.281 30.0107 44.3933 30.252C44.554 30.8157 45.0034 31.3468 45.565 31.6044C45.9826 31.7975 46.5442 31.9106 47.1059 31.9106C48.4383 31.9106 49.3533 31.0247 49.3533 29.8498C49.3533 28.6745 48.5666 27.9017 47.0257 27.0159L46.2553 26.5815C44.7466 25.7282 43.7193 24.8747 43.7193 23.2809C43.7193 21.8321 44.9232 20.3184 47.2182 20.3184C48.0208 20.3184 48.9679 20.4314 49.7224 20.689C49.8506 20.7372 49.9149 20.7854 49.9471 20.9303C50.0594 21.4937 50.1237 22.0252 50.1876 22.6208C50.2039 22.8139 49.8185 22.8943 49.7545 22.7175C49.6903 22.4759 49.6101 22.2665 49.5295 22.1219C49.3533 21.6386 49 21.2201 48.5507 21.0593C48.1331 20.9143 47.6195 20.8336 47.1059 20.8336C45.8059 20.8336 45.0998 21.6386 45.0998 22.6048C45.0998 23.6675 45.9504 24.3272 47.1543 25.0196L47.9247 25.4543C49.7545 26.5007 50.8136 27.5633 50.8136 29.1574C50.8136 30.8802 49.289 32.4257 47.0579 32.4257C45.9826 32.4257 44.9875 32.2968 44.217 32.0069Z" fill="#040000"/>
<path d="M52.2575 31.8628H52.5306C53.0121 31.8628 53.301 31.6857 53.6059 30.9129L57.8272 20.3837C57.9236 20.1746 58.2285 20.1583 58.3249 20.3837L62.6744 31.1868C62.867 31.6534 63.0757 31.8628 63.5092 31.8628H63.7338C63.9426 31.8628 63.9426 32.3135 63.7179 32.3135C63.0757 32.3135 62.53 32.2976 61.8238 32.2976C61.0053 32.2976 60.2671 32.3135 59.5447 32.3135C59.3037 32.3135 59.32 31.8628 59.5447 31.8628H60.3472C60.8609 31.8628 60.9732 31.573 60.7966 31.0741L59.609 28.0471H55.2912L54.1675 30.9129C53.8948 31.5407 54.1036 31.8628 54.8419 31.8628H55.5318C55.7727 31.8628 55.7727 32.3135 55.548 32.3135C54.8737 32.3135 54.4084 32.2976 53.6861 32.2976C53.1724 32.2976 52.8192 32.3135 52.2575 32.3135C52.017 32.3135 52.0329 31.8628 52.2575 31.8628ZM59.4323 27.5964L57.4739 22.5571L55.4837 27.5964H59.4323Z" fill="#040000"/>
<path d="M65.7234 31.8789H66.0926C66.574 31.8789 66.7348 31.7499 66.7348 31.1543V21.6232C66.7185 21.124 66.5903 20.9149 66.0926 20.9149H65.563C65.3384 20.9149 65.3384 20.4639 65.5789 20.4639H70.0249C73.1709 20.4639 74.3105 21.4138 74.3105 23.2492C74.3268 24.634 73.4278 25.8093 71.6142 26.3567L73.829 29.8986C74.744 31.3797 75.2417 31.8626 76.2848 31.8467C76.5095 31.8467 76.5416 32.1847 76.3329 32.2651C75.9959 32.3456 75.5624 32.4263 75.1452 32.4263C73.8933 32.4263 73.2833 32.0557 72.6093 30.9771L69.9931 26.6625C69.6879 26.6947 69.3509 26.6947 69.0139 26.6947H68.3558L68.3396 31.1543C68.3396 31.7499 68.436 31.8626 69.0298 31.8789H69.5113C69.7522 31.8789 69.7522 32.3133 69.5113 32.3133C68.8853 32.3133 68.2113 32.2974 67.5211 32.2974C66.863 32.2974 66.2692 32.3133 65.7234 32.3133C65.4988 32.3133 65.4988 31.8789 65.7234 31.8789ZM68.9016 26.2277C71.3252 26.2277 72.5612 25.1651 72.5612 23.3619C72.5612 21.7841 71.6944 20.9149 69.7201 20.9149H68.8694C68.5162 20.9149 68.3558 21.0598 68.3558 21.4138V26.2277H68.9016Z" fill="#040000"/>
<path d="M79.7668 31.8787H80.4087C80.9866 31.8787 81.2113 31.653 81.2113 31.0574V27.451L77.9692 21.7198C77.6322 21.1079 77.375 20.8825 76.9578 20.8825H76.6851C76.4604 20.8825 76.4604 20.4478 76.6851 20.4478C77.2948 20.4478 77.9049 20.4637 78.563 20.4637H79.5902C80.0395 20.4478 80.4889 20.4478 80.9386 20.4478C81.1632 20.4478 81.1632 20.8985 80.9386 20.8985H80.1519C79.6866 20.8985 79.6224 21.2687 79.847 21.6712L82.5755 26.5496L85.1115 21.8807C85.4806 21.1883 85.2401 20.8985 84.7586 20.8985H84.1005C83.8596 20.8985 83.8437 20.4478 84.0842 20.4478C84.6784 20.4478 85.3202 20.4637 85.8501 20.4637C86.3955 20.4637 86.6686 20.4478 87.1338 20.4478C87.3747 20.4478 87.3747 20.8825 87.1501 20.8825H87.0377C86.4439 20.8825 86.0426 21.1561 85.6735 21.8807L82.8645 27.0163V31.0574C82.8645 31.7016 83.0891 31.8787 83.6511 31.8787H84.3092C84.5498 31.8787 84.5657 32.3131 84.3092 32.3131C83.5869 32.3131 82.8486 32.2972 82.0781 32.2972C81.2275 32.2972 80.4889 32.3131 79.7668 32.3131C79.5259 32.3131 79.5259 31.8787 79.7668 31.8787Z" fill="#040000"/>
<path d="M88.2734 26.5332C88.2734 22.5407 91.3389 20.335 94.4048 20.335C97.5508 20.335 100.087 22.3153 100.087 26.2115C100.087 30.2204 97.0209 32.4261 93.9554 32.4261C90.8253 32.4261 88.2734 30.4457 88.2734 26.5332ZM94.0515 20.8983C91.7886 20.8983 90.1354 22.9269 90.1354 26.2919C90.1354 29.8501 91.9168 31.8623 94.3083 31.8623C96.5716 31.8623 98.2407 29.8178 98.2407 26.4528C98.2407 22.9109 96.4433 20.8983 94.0515 20.8983Z" fill="#040000"/>
</g>
<defs>
<clipPath id="clip0_833_2492">
<rect width="31.7387" height="30.3588" fill="white" transform="translate(0 1.18457)"/>
</clipPath>
<clipPath id="clip1_833_2492">
<rect width="96.3175" height="31.853" fill="white" transform="translate(43.2295 0.573242)"/>
</clipPath>
</defs>
</svg>
