<svg width="185" height="43" viewBox="0 0 185 43" fill="none" xmlns="http://www.w3.org/2000/svg">
<g clip-path="url(#clip0_447_1196)">
<path d="M38.759 11.4746H41.9034V1.75354H38.759V11.4746Z" fill="#070707"/>
<path d="M41.9034 4.56334V1.75391L31.6509 1.75391V4.56334H41.9034Z" fill="#070707"/>
<path d="M38.759 41.8359H41.9034V32.1149H38.759V41.8359Z" fill="#070707"/>
<path d="M31.6509 39.0265V41.8359H41.9035V39.0265H31.6509Z" fill="#070707"/>
<path d="M38.759 41.8359H41.9034V32.1149H38.759V41.8359Z" fill="#070707"/>
<path d="M31.6509 39.0265V41.8359H41.9035V39.0265H31.6509Z" fill="#070707"/>
<path d="M3.14449 32.1143H0V41.8353H3.14449V32.1143Z" fill="#070707"/>
<path d="M0 39.0265L0 41.8359H10.2525V39.0265H0Z" fill="#070707"/>
<path d="M3.14449 1.75391H0V11.475H3.14449V1.75391Z" fill="#070707"/>
<path d="M10.2525 4.56334V1.75391L4.76837e-06 1.75391V4.56334H10.2525Z" fill="#070707"/>
<path d="M3.14449 1.75391H0V11.475H3.14449V1.75391Z" fill="#070707"/>
<path d="M10.2525 4.56334V1.75391L4.76837e-06 1.75391V4.56334H10.2525Z" fill="#070707"/>
</g>
<g clip-path="url(#clip1_447_1196)">
<path d="M57.2965 16.337H57.8898C58.5044 16.337 58.6952 16.1031 58.6952 15.3593V2.79683C58.6952 2.01044 58.6318 1.81911 57.8478 1.81911H57.318C56.9999 1.81911 56.9999 1.24512 57.318 1.24512C58.1444 1.24512 58.9074 1.26617 59.8397 1.26617C60.7295 1.26617 61.556 1.24512 62.3614 1.24512C62.658 1.24512 62.658 1.81911 62.3614 1.81911H61.7043C61.09 1.81911 60.8778 2.05302 60.8778 2.79683V9.83263L67.2351 2.90302C67.6166 2.45674 67.7649 1.81911 67.0233 1.81911H66.2179C65.9637 1.81911 65.9637 1.24512 66.2393 1.24512C66.9599 1.24512 67.6805 1.26617 68.5493 1.26617C69.3757 1.26617 69.7572 1.24512 70.4139 1.24512C70.732 1.24512 70.7105 1.81911 70.4139 1.81911H70.1597C69.2694 1.81911 68.7396 2.20178 68.1039 2.90302L63.9294 7.43045L69.0791 14.3601C70.2866 16.0395 70.8164 16.4432 71.9399 16.2093C72.2151 16.2519 72.2575 16.6982 71.9609 16.8259C71.516 16.9957 70.9013 17.0593 70.329 17.0593C68.9094 17.0593 68.0829 16.7407 67.2775 15.6142L62.4248 9.04625L60.8778 10.7252V15.3593C60.8778 16.1242 61.0052 16.337 61.7467 16.337H62.319C62.6366 16.337 62.6366 16.9105 62.319 16.9105C61.4925 16.9105 60.6022 16.8895 59.6914 16.8895C58.8011 16.8895 58.0595 16.9105 57.2965 16.9105C56.9999 16.9105 56.9999 16.337 57.2965 16.337Z" fill="#070707"/>
<path d="M73.5279 16.316H73.8885C74.5241 16.316 74.9056 16.0821 75.3081 15.0618L80.8814 1.16046C81.0087 0.884456 81.4112 0.862938 81.5385 1.16046L87.281 15.4234C87.5352 16.04 87.8108 16.316 88.3831 16.316H88.6797C88.9553 16.316 88.9553 16.911 88.6587 16.911C87.8108 16.911 87.0903 16.89 86.158 16.89C85.0774 16.89 84.1022 16.911 83.1489 16.911C82.8308 16.911 82.8523 16.316 83.1489 16.316H84.2085C84.8866 16.316 85.0349 15.9333 84.8017 15.2746L83.2338 11.2786H77.5332L76.0497 15.0618C75.6896 15.8907 75.9648 16.316 76.94 16.316H77.8508C78.1689 16.316 78.1689 16.911 77.8723 16.911C76.9824 16.911 76.3677 16.89 75.414 16.89C74.7359 16.89 74.27 16.911 73.5279 16.911C73.2103 16.911 73.2313 16.316 73.5279 16.316ZM83.0006 10.6831L80.415 4.02999L77.7874 10.6831H83.0006Z" fill="#070707"/>
<path d="M93.0016 3.26464V14.7638C93.0016 16.018 93.3831 16.3155 94.4427 16.3155H95.1633C95.5023 16.3155 95.4814 16.9105 95.1633 16.9105C94.2944 16.9105 93.6163 16.8895 92.7265 16.8895C91.8361 16.8895 91.3702 16.9105 90.6497 16.9105C90.3106 16.9105 90.3106 16.3155 90.6072 16.3155H91.2644C91.9844 16.3155 92.345 16.018 92.345 14.7638V2.41417C91.9844 2.05302 91.582 1.81912 90.9887 1.81912H90.5014C90.2047 1.81912 90.2047 1.26617 90.5014 1.26617H93.8071C94.0827 1.26617 94.2095 1.33026 94.3369 1.50007L102.813 13.2336V3.22207C102.813 2.07407 102.538 1.84017 101.542 1.84017H100.737C100.44 1.84017 100.397 1.24512 100.737 1.24512C101.478 1.24512 102.241 1.26617 103.195 1.26617C104.212 1.26617 104.509 1.24512 105.229 1.24512C105.547 1.24512 105.526 1.84017 105.208 1.84017H104.636C103.788 1.84017 103.47 2.07407 103.47 3.26464V16.6345C103.47 16.9957 103.047 17.0808 102.813 16.7618L93.0016 3.26464Z" fill="#070707"/>
<path d="M105.631 16.316H105.991C106.627 16.316 107.008 16.0821 107.411 15.0618L112.984 1.16046C113.111 0.884456 113.514 0.862938 113.641 1.16046L119.384 15.4234C119.638 16.04 119.914 16.316 120.486 16.316H120.782C121.058 16.316 121.058 16.911 120.761 16.911C119.914 16.911 119.193 16.89 118.261 16.89C117.18 16.89 116.205 16.911 115.252 16.911C114.934 16.911 114.955 16.316 115.252 16.316H116.311C116.989 16.316 117.138 15.9333 116.904 15.2746L115.337 11.2786H109.636L108.152 15.0618C107.792 15.8907 108.068 16.316 109.043 16.316H109.954C110.272 16.316 110.272 16.911 109.975 16.911C109.085 16.911 108.47 16.89 107.517 16.89C106.839 16.89 106.373 16.911 105.631 16.911C105.313 16.911 105.334 16.316 105.631 16.316ZM115.103 10.6831L112.518 4.02999L109.89 10.6831H115.103Z" fill="#070707"/>
<path d="M122.731 16.295L131.42 1.90484H126.143C125.083 1.90484 124.49 2.32961 124.088 3.71151C124.045 3.88132 123.982 4.0516 123.939 4.2855C123.875 4.54046 123.325 4.49789 123.346 4.22141C123.473 3.37141 123.621 2.3937 123.77 1.52217C123.812 1.2457 123.918 1.20312 124.215 1.20312L126.397 1.26675H133.708C133.984 1.26675 134.111 1.58579 133.899 1.88331L125.296 16.2735H130.869C132.183 16.2735 132.903 15.721 133.433 14.0416C133.517 13.8082 133.581 13.5743 133.666 13.2767C133.751 13.0003 134.323 13.0639 134.28 13.3403C134.047 14.4458 133.814 15.5933 133.56 16.571C133.475 16.8475 133.348 16.8901 133.051 16.8901H122.965C122.668 16.8901 122.541 16.55 122.731 16.295Z" fill="#070707"/>
<path d="M135.869 16.316H136.229C136.865 16.316 137.247 16.0821 137.649 15.0618L143.222 1.16046C143.35 0.884456 143.752 0.862938 143.879 1.16046L149.622 15.4234C149.876 16.04 150.152 16.316 150.724 16.316H151.021C151.296 16.316 151.296 16.911 151 16.911C150.152 16.911 149.431 16.89 148.499 16.89C147.418 16.89 146.443 16.911 145.49 16.911C145.172 16.911 145.193 16.316 145.49 16.316H146.549C147.228 16.316 147.376 15.9333 147.143 15.2746L145.575 11.2786H139.874L138.391 15.0618C138.031 15.8907 138.306 16.316 139.281 16.316H140.192C140.51 16.316 140.51 16.911 140.213 16.911C139.323 16.911 138.709 16.89 137.755 16.89C137.077 16.89 136.611 16.911 135.869 16.911C135.551 16.911 135.572 16.316 135.869 16.316ZM145.342 10.6831L142.756 4.02999L140.128 10.6831H145.342Z" fill="#070707"/>
<path d="M160.026 5.24112L156.254 16.7618C156.148 17.0593 155.661 17.0383 155.576 16.7833L150.596 2.94559C150.321 2.15921 149.96 1.84017 149.345 1.84017H148.9C148.625 1.84017 148.625 1.24512 148.922 1.24512C149.812 1.24512 150.511 1.26617 151.486 1.26617C152.736 1.26617 153.478 1.24512 154.41 1.24512C154.686 1.24512 154.707 1.81911 154.41 1.81911H153.499C152.863 1.81911 152.694 2.18026 152.906 2.75426L156.699 13.4034L159.666 4.17826L159.242 2.96664C158.966 2.15921 158.648 1.84017 157.949 1.84017H157.462C157.165 1.84017 157.165 1.24512 157.462 1.24512C158.394 1.24512 159.178 1.26617 160.153 1.26617C161.446 1.26617 162.039 1.24512 163.077 1.24512C163.417 1.24512 163.395 1.84017 163.098 1.84017H162.145C161.51 1.84017 161.361 2.28645 161.552 2.8394L165.027 13.4034L168.291 3.20055C168.651 2.15921 168.397 1.81911 167.485 1.81911H166.765C166.447 1.81911 166.447 1.24512 166.744 1.24512C167.528 1.24512 168.312 1.26617 169.075 1.26617C169.88 1.26617 170.134 1.24512 170.791 1.24512C171.109 1.24512 171.088 1.81911 170.812 1.81911H170.409C169.668 1.81911 169.329 2.30797 168.99 3.28568L164.582 16.7618C164.476 17.0593 163.989 17.0382 163.904 16.7618L160.026 5.24112Z" fill="#070707"/>
<path d="M168.882 16.316H169.243C169.879 16.316 170.26 16.0821 170.663 15.0618L176.236 1.16046C176.363 0.884456 176.766 0.862938 176.893 1.16046L182.636 15.4234C182.89 16.04 183.165 16.316 183.738 16.316H184.034C184.31 16.316 184.31 16.911 184.013 16.911C183.165 16.911 182.445 16.89 181.513 16.89C180.432 16.89 179.457 16.911 178.503 16.911C178.185 16.911 178.207 16.316 178.503 16.316H179.563C180.241 16.316 180.389 15.9333 180.156 15.2746L178.588 11.2786H172.888L171.404 15.0618C171.044 15.8907 171.32 16.316 172.295 16.316H173.205C173.523 16.316 173.523 16.911 173.227 16.911C172.337 16.911 171.722 16.89 170.769 16.89C170.09 16.89 169.624 16.911 168.882 16.911C168.565 16.911 168.586 16.316 168.882 16.316ZM178.355 10.6831L175.77 4.02999L173.142 10.6831H178.355Z" fill="#070707"/>
<path d="M58.3776 42.4466C58.1444 42.3615 58.0171 42.2127 57.9537 41.9578C57.7839 41.1499 57.657 40.1722 57.6146 39.1519C57.5931 38.8544 58.1654 38.7271 58.2503 39.0031C58.3776 39.5561 58.462 39.811 58.6103 40.1296C58.8225 40.8739 59.4158 41.5751 60.1573 41.9152C60.7086 42.1702 61.4501 42.3194 62.1917 42.3194C63.9508 42.3194 65.1588 41.1499 65.1588 39.5986C65.1588 38.0469 64.1201 37.0266 62.0858 35.8571L61.0686 35.2836C59.0767 34.1571 57.7205 33.0302 57.7205 30.926C57.7205 29.0131 59.3099 27.0146 62.34 27.0146C63.3996 27.0146 64.6499 27.1639 65.6461 27.504C65.8154 27.5676 65.9003 27.6312 65.9427 27.8225C66.0911 28.5664 66.1759 29.2681 66.2603 30.0545C66.2818 30.3094 65.773 30.4156 65.6886 30.1822C65.6037 29.8631 65.4978 29.5866 65.3915 29.3958C65.1588 28.7577 64.6924 28.2052 64.0991 27.9928C63.5479 27.8015 62.8698 27.6948 62.1917 27.6948C60.4754 27.6948 59.5431 28.7577 59.5431 30.0334C59.5431 31.4364 60.6661 32.3074 62.2555 33.2215L63.2727 33.7955C65.6886 35.1769 67.0868 36.5799 67.0868 38.6845C67.0868 40.959 65.0739 42.9996 62.1282 42.9996C60.7086 42.9996 59.3948 42.8293 58.3776 42.4466Z" fill="#070707"/>
<path d="M68.9933 42.2554H69.3538C69.9895 42.2554 70.371 42.0215 70.7735 41.0012L76.3467 27.0999C76.4741 26.8239 76.8766 26.8024 77.0039 27.0999L82.7464 41.3628C83.0006 41.9789 83.2762 42.2554 83.8485 42.2554H84.1451C84.4207 42.2554 84.4207 42.8505 84.1241 42.8505C83.2762 42.8505 82.5557 42.8294 81.6234 42.8294C80.5428 42.8294 79.568 42.8505 78.6143 42.8505C78.2962 42.8505 78.3177 42.2554 78.6143 42.2554H79.6739C80.352 42.2554 80.5003 41.8728 80.2671 41.2141L78.6992 37.2176H72.9986L71.5151 41.0012C71.155 41.8302 71.4306 42.2554 72.4054 42.2554H73.3162C73.6343 42.2554 73.6343 42.8505 73.3377 42.8505C72.4473 42.8505 71.8331 42.8294 70.8794 42.8294C70.2013 42.8294 69.7349 42.8505 68.9933 42.8505C68.6757 42.8505 68.6967 42.2554 68.9933 42.2554ZM78.466 36.6226L75.8804 29.9694L73.2528 36.6226H78.466Z" fill="#070707"/>
<path d="M86.7717 42.2769H87.2591C87.8948 42.2769 88.107 42.1066 88.107 41.3202V28.7367C88.0855 28.0776 87.9162 27.8016 87.2591 27.8016H86.56C86.2634 27.8016 86.2634 27.2061 86.581 27.2061H92.4508C96.6044 27.2061 98.109 28.4602 98.109 30.8835C98.1304 32.7117 96.9435 34.2634 94.5491 34.9861L97.4733 39.6623C98.6812 41.6178 99.3383 42.2554 100.716 42.2343C101.012 42.2343 101.055 42.6806 100.779 42.7868C100.334 42.893 99.7618 42.9997 99.211 42.9997C97.5582 42.9997 96.7527 42.5103 95.8629 41.0863L92.4089 35.3899C92.0059 35.4324 91.561 35.4324 91.1161 35.4324H90.2472L90.2257 41.3202C90.2257 42.1066 90.3531 42.2554 91.137 42.2769H91.7727C92.0908 42.2769 92.0908 42.8504 91.7727 42.8504C90.9463 42.8504 90.0564 42.8294 89.1451 42.8294C88.2763 42.8294 87.4923 42.8504 86.7717 42.8504C86.4751 42.8504 86.4751 42.2769 86.7717 42.2769ZM90.9677 34.8158C94.1676 34.8158 95.7994 33.4129 95.7994 31.0322C95.7994 28.9491 94.6549 27.8016 92.0483 27.8016H90.9253C90.4589 27.8016 90.2472 27.9929 90.2472 28.4602V34.8158H90.9677Z" fill="#070707"/>
<path d="M105.314 42.2765H106.161C106.924 42.2765 107.221 41.9785 107.221 41.1921V36.4308L102.94 28.864C102.495 28.0561 102.156 27.7586 101.605 27.7586H101.245C100.948 27.7586 100.948 27.1846 101.245 27.1846C102.05 27.1846 102.855 27.2056 103.724 27.2056H105.08C105.674 27.1846 106.267 27.1846 106.861 27.1846C107.157 27.1846 107.157 27.7796 106.861 27.7796H105.822C105.208 27.7796 105.123 28.2685 105.419 28.7999L109.022 35.2407L112.37 29.0764C112.857 28.1623 112.54 27.7796 111.904 27.7796H111.035C110.717 27.7796 110.696 27.1846 111.014 27.1846C111.798 27.1846 112.646 27.2056 113.345 27.2056C114.065 27.2056 114.426 27.1846 115.04 27.1846C115.358 27.1846 115.358 27.7586 115.061 27.7586H114.913C114.129 27.7586 113.599 28.1197 113.112 29.0764L109.403 35.8568V41.1921C109.403 42.0426 109.7 42.2765 110.442 42.2765H111.311C111.628 42.2765 111.649 42.85 111.311 42.85C110.357 42.85 109.382 42.8289 108.365 42.8289C107.242 42.8289 106.267 42.85 105.314 42.85C104.995 42.85 104.995 42.2765 105.314 42.2765Z" fill="#070707"/>
<path d="M116.544 35.2195C116.544 29.9482 120.591 27.0361 124.638 27.0361C128.792 27.0361 132.14 29.6507 132.14 34.7947C132.14 40.0875 128.092 42.9995 124.045 42.9995C119.913 42.9995 116.544 40.385 116.544 35.2195ZM124.172 27.7799C121.184 27.7799 119.002 30.4581 119.002 34.9009C119.002 39.5986 121.354 42.2553 124.511 42.2553C127.499 42.2553 129.703 39.556 129.703 35.1133C129.703 30.4371 127.33 27.7799 124.172 27.7799Z" fill="#070707"/>
</g>
<defs>
<clipPath id="clip0_447_1196">
<rect width="41.9035" height="40.0816" fill="white" transform="translate(0 1.75391)"/>
</clipPath>
<clipPath id="clip1_447_1196">
<rect width="127.164" height="42.0543" fill="white" transform="translate(57.0741 0.945312)"/>
</clipPath>
</defs>
</svg>
