<?xml version="1.0" encoding="UTF-8"?><svg id="_レイヤー_2" xmlns="http://www.w3.org/2000/svg" viewBox="0 0 388.32835 87.79658"><defs><style>.cls-1{fill:#040000;stroke-width:0px;}</style></defs><g id="_レイヤー_1-2"><polygon class="cls-1" points="92.08984 .70649 92.08984 21.83637 85.17993 21.83637 85.17993 6.81635 69.55981 6.81635 69.55981 .70649 92.08984 .70649"/><polygon class="cls-1" points="92.08984 66.67646 92.08984 87.79658 69.55981 87.79658 69.55981 81.69648 85.17993 81.69648 85.17993 66.67646 92.08984 66.67646"/><polygon class="cls-1" points="22.53003 81.69648 22.53003 87.79658 0 87.79658 0 66.67646 6.90991 66.67646 6.90991 81.69648 22.53003 81.69648"/><polygon class="cls-1" points="22.53003 .70649 22.53003 6.81635 6.90991 6.81635 6.90991 21.83637 0 21.83637 0 .70649 22.53003 .70649"/><path class="cls-1" d="m122.52193,32.13175h1.24219c1.28711,0,1.68652-.48828,1.68652-2.04102V3.86612c0-1.6416-.13281-2.04102-1.77441-2.04102h-1.10938c-.66602,0-.66602-1.19824,0-1.19824,1.73047,0,3.32812.04395,5.28027.04395,1.86328,0,3.59375-.04395,5.28027-.04395.62109,0,.62109,1.19824,0,1.19824h-1.37598c-1.28613,0-1.73047.48828-1.73047,2.04102v14.6875l13.31152-14.46582c.79883-.93164,1.10938-2.2627-.44336-2.2627h-1.68652c-.53223,0-.53223-1.19824.04492-1.19824,1.50879,0,3.01758.04395,4.83691.04395,1.73047,0,2.5293-.04395,3.9043-.04395.66602,0,.62109,1.19824,0,1.19824h-.53223c-1.86426,0-2.97363.79883-4.30469,2.2627l-8.74121,9.45117,10.7832,14.46582c2.52832,3.50586,3.6377,4.34863,5.99023,3.86035.57617.08887.66504,1.02051.04395,1.28711-.93164.35449-2.21875.4873-3.41699.4873-2.97266,0-4.70312-.66504-6.38965-3.0166l-10.16113-13.71094-3.23926,3.50488v9.67383c0,1.59668.2666,2.04102,1.81934,2.04102h1.19824c.66504,0,.66504,1.19727,0,1.19727-1.73047,0-3.59473-.04395-5.50195-.04395-1.86426,0-3.41699.04395-5.01465.04395-.62109,0-.62109-1.19727,0-1.19727Z"/><path class="cls-1" d="m156.50923,32.08683h.75488c1.33105,0,2.12988-.48828,2.97266-2.61816L171.90669.44913c.2666-.57617,1.10938-.62109,1.37598,0l12.02441,29.77441c.53223,1.28711,1.10938,1.86328,2.30762,1.86328h.62109c.57715,0,.57715,1.24219-.04395,1.24219-1.77539,0-3.28418-.04395-5.23633-.04395-2.2627,0-4.30469.04395-6.30078.04395-.66602,0-.62109-1.24219,0-1.24219h2.21875c1.41992,0,1.73047-.79883,1.24219-2.17383l-3.2832-8.3418h-11.93652l-3.10645,7.89746c-.75391,1.73047-.17773,2.61816,1.86426,2.61816h1.90723c.66602,0,.66602,1.24219.04492,1.24219-1.86328,0-3.15039-.04395-5.14746-.04395-1.41992,0-2.39551.04395-3.94922.04395-.66504,0-.62109-1.24219,0-1.24219Zm19.83496-11.75879l-5.41406-13.88867-5.50195,13.88867h10.91602Z"/><path class="cls-1" d="m197.2856,4.84269v24.00488c0,2.61816.79883,3.23926,3.01758,3.23926h1.50879c.70996,0,.66602,1.24219,0,1.24219-1.81934,0-3.23926-.04395-5.10254-.04395-1.86426,0-2.83984.04395-4.34863.04395-.70996,0-.70996-1.24219-.08887-1.24219h1.37598c1.50781,0,2.2627-.62109,2.2627-3.23926V3.0673c-.75488-.75391-1.59766-1.24219-2.83984-1.24219h-1.02051c-.62109,0-.62109-1.1543,0-1.1543h6.92188c.57715,0,.84277.13379,1.10938.48828l17.74902,24.49414V4.75382c0-2.39648-.57715-2.88477-2.66211-2.88477h-1.68652c-.62109,0-.70996-1.24219,0-1.24219,1.55273,0,3.15039.04395,5.14746.04395,2.12988,0,2.75098-.04395,4.25977-.04395.66504,0,.62109,1.24219-.04492,1.24219h-1.19727c-1.77539,0-2.44043.48828-2.44043,2.97363v27.91016c0,.75391-.8877.93164-1.37598.26562l-20.54492-28.17578Z"/><path class="cls-1" d="m223.72994,32.08683h.75488c1.33105,0,2.12988-.48828,2.97266-2.61816L239.1274.44913c.2666-.57617,1.10938-.62109,1.37598,0l12.02441,29.77441c.53223,1.28711,1.10938,1.86328,2.30762,1.86328h.62109c.57715,0,.57715,1.24219-.04395,1.24219-1.77539,0-3.28418-.04395-5.23633-.04395-2.2627,0-4.30469.04395-6.30078.04395-.66602,0-.62109-1.24219,0-1.24219h2.21875c1.41992,0,1.73047-.79883,1.24219-2.17383l-3.2832-8.3418h-11.93652l-3.10645,7.89746c-.75391,1.73047-.17773,2.61816,1.86426,2.61816h1.90723c.66602,0,.66602,1.24219.04492,1.24219-1.86328,0-3.15039-.04395-5.14746-.04395-1.41992,0-2.39551.04395-3.94922.04395-.66504,0-.62109-1.24219,0-1.24219Zm19.83496-11.75879l-5.41406-13.88867-5.50195,13.88867h10.91602Z"/><path class="cls-1" d="m259.53755,32.04288l18.19238-30.04004h-11.04883c-2.21875,0-3.46094.88672-4.30371,3.77148-.08887.35449-.22168.70996-.31055,1.19824-.13379.53223-1.28711.44336-1.24316-.13379.2666-1.77441.57715-3.81543.8877-5.63477.08887-.57715.31055-.66602.93164-.66602l4.57031.13281h15.30859c.57715,0,.84375.66602.39941,1.28711l-18.01465,30.04004h11.66992c2.75098,0,4.25977-1.15332,5.36914-4.65918.17676-.4873.31055-.97559.48828-1.59668.17676-.57715,1.375-.44434,1.28613.13281-.48828,2.30762-.97559,4.70312-1.50879,6.74414-.17676.57715-.44336.66602-1.06445.66602h-21.12109c-.62207,0-.8877-.70996-.48828-1.24219Z"/><path class="cls-1" d="m287.04634,32.08683h.75488c1.33105,0,2.12988-.48828,2.97266-2.61816L302.4438.44913c.2666-.57617,1.10938-.62109,1.37598,0l12.02441,29.77441c.53223,1.28711,1.10938,1.86328,2.30762,1.86328h.62109c.57715,0,.57715,1.24219-.04395,1.24219-1.77539,0-3.28418-.04395-5.23633-.04395-2.2627,0-4.30469.04395-6.30078.04395-.66602,0-.62109-1.24219,0-1.24219h2.21875c1.41992,0,1.73047-.79883,1.24219-2.17383l-3.2832-8.3418h-11.93652l-3.10645,7.89746c-.75391,1.73047-.17773,2.61816,1.86426,2.61816h1.90723c.66602,0,.66602,1.24219.04492,1.24219-1.86328,0-3.15039-.04395-5.14746-.04395-1.41992,0-2.39551.04395-3.94922.04395-.66504,0-.62109-1.24219,0-1.24219Zm19.83496-11.75879l-5.41406-13.88867-5.50195,13.88867h10.91602Z"/><path class="cls-1" d="m337.62935,8.96866l-7.89844,24.0498c-.22168.62109-1.24219.57715-1.41992.04492l-10.42773-28.88672c-.57617-1.6416-1.33105-2.30762-2.61816-2.30762h-.93164c-.57617,0-.57617-1.24219.04492-1.24219,1.86328,0,3.32715.04395,5.36914.04395,2.61719,0,4.1709-.04395,6.12305-.04395.57715,0,.62109,1.19824,0,1.19824h-1.9082c-1.33105,0-1.68555.75391-1.24219,1.95215l7.94238,22.23047,6.21289-19.25781-.8877-2.5293c-.57715-1.68555-1.24316-2.35156-2.70703-2.35156h-1.02051c-.62109,0-.62109-1.24219,0-1.24219,1.95215,0,3.59375.04395,5.63574.04395,2.70605,0,3.94824-.04395,6.12305-.04395.70996,0,.66504,1.24219.04395,1.24219h-1.99609c-1.33105,0-1.64258.93164-1.24316,2.08594l7.27734,22.05273,6.83398-21.29883c.75391-2.17383.22168-2.88379-1.68652-2.88379h-1.50879c-.66504,0-.66504-1.19824-.04395-1.19824,1.6416,0,3.2832.04395,4.88086.04395,1.68555,0,2.21875-.04395,3.59375-.04395.66602,0,.62109,1.19824.04492,1.19824h-.84375c-1.55273,0-2.2627,1.02051-2.97266,3.06152l-9.22949,28.13184c-.22168.62109-1.24219.57715-1.41992,0l-8.12012-24.0498Z"/><path class="cls-1" d="m356.17427,32.08683h.75488c1.33105,0,2.12988-.48828,2.97266-2.61816L371.57173.44913c.2666-.57617,1.10938-.62109,1.37598,0l12.02441,29.77441c.53223,1.28711,1.10938,1.86328,2.30762,1.86328h.62109c.57715,0,.57715,1.24219-.04395,1.24219-1.77539,0-3.28418-.04395-5.23633-.04395-2.2627,0-4.30371.04395-6.30078.04395-.66602,0-.62109-1.24219,0-1.24219h2.21875c1.41992,0,1.73047-.79883,1.24219-2.17383l-3.2832-8.3418h-11.93652l-3.10645,7.89746c-.75391,1.73047-.17676,2.61816,1.86426,2.61816h1.90723c.66602,0,.66602,1.24219.04492,1.24219-1.86426,0-3.15039-.04395-5.14746-.04395-1.41992,0-2.39648.04395-3.94922.04395-.66504,0-.62109-1.24219,0-1.24219Zm19.83496-11.75879l-5.41406-13.88867-5.50195,13.88867h10.91602Z"/><path class="cls-1" d="m124.7856,86.63572c-.48828-.17773-.75488-.48828-.8877-1.02051-.35547-1.68652-.62109-3.72754-.70996-5.85742-.04492-.62109,1.15332-.88672,1.33105-.31055.2666,1.1543.44336,1.68652.75391,2.35156.44434,1.55371,1.68652,3.01758,3.23926,3.72754,1.1543.53223,2.70703.84375,4.25977.84375,3.68359,0,6.21289-2.44141,6.21289-5.67969,0-3.23926-2.1748-5.36914-6.43457-7.81055l-2.12988-1.19727c-4.1709-2.35156-7.01074-4.7041-7.01074-9.09668,0-3.99316,3.32812-8.16504,9.67285-8.16504,2.21875,0,4.83691.31152,6.92285,1.02148.35449.13281.53223.26562.62109.66504.31055,1.55273.48828,3.01758.66504,4.65918.04492.53223-1.02051.75391-1.19727.2666-.17773-.66602-.39941-1.24316-.62207-1.6416-.4873-1.33203-1.46387-2.48535-2.70605-2.92871-1.1543-.39941-2.57422-.62207-3.99414-.62207-3.59375,0-5.5459,2.21875-5.5459,4.88184,0,2.92871,2.35156,4.74707,5.67969,6.65527l2.12988,1.19824c5.05859,2.88379,7.98633,5.8125,7.98633,10.20605,0,4.74805-4.21484,9.00781-10.38281,9.00781-2.97266,0-5.72363-.35547-7.85352-1.1543Z"/><path class="cls-1" d="m146.01405,86.2363h.75488c1.33105,0,2.12988-.48828,2.97266-2.61816l11.66992-29.01953c.2666-.57617,1.10938-.62109,1.37598,0l12.02441,29.77441c.53223,1.28613,1.10938,1.86328,2.30762,1.86328h.62109c.57715,0,.57715,1.24219-.04395,1.24219-1.77539,0-3.28418-.04395-5.23633-.04395-2.2627,0-4.30371.04395-6.30078.04395-.66602,0-.62109-1.24219,0-1.24219h2.21875c1.41992,0,1.73047-.79883,1.24219-2.17383l-3.2832-8.34277h-11.93652l-3.10645,7.89844c-.75391,1.73047-.17676,2.61816,1.86426,2.61816h1.90723c.66602,0,.66602,1.24219.04492,1.24219-1.86426,0-3.15039-.04395-5.14746-.04395-1.41992,0-2.39648.04395-3.94922.04395-.66504,0-.62109-1.24219,0-1.24219Zm19.83496-11.75879l-5.41406-13.88867-5.50195,13.88867h10.91602Z"/><path class="cls-1" d="m182.24055,86.28123h1.02051c1.33105,0,1.77539-.35547,1.77539-1.99707v-26.26855c-.04492-1.37598-.39941-1.95215-1.77539-1.95215h-1.46387c-.62109,0-.62109-1.24316.04395-1.24316h12.29102c8.69727,0,11.84766,2.61816,11.84766,7.67676.04492,3.81641-2.44043,7.05566-7.4541,8.56445l6.12305,9.76172c2.5293,4.08203,3.90527,5.41309,6.78906,5.36914.62109,0,.70996.93164.13281,1.15332-.93164.22168-2.12988.44434-3.2832.44434-3.46094,0-5.14746-1.02148-7.01074-3.99414l-7.23242-11.8916c-.84375.08887-1.77539.08887-2.70703.08887h-1.81934l-.04492,12.29102c0,1.6416.2666,1.95215,1.9082,1.99707h1.33105c.66602,0,.66602,1.19727,0,1.19727-1.73047,0-3.59375-.04395-5.50195-.04395-1.81934,0-3.46094.04395-4.96973.04395-.62109,0-.62109-1.19727,0-1.19727Zm8.78613-15.5752c6.7002,0,10.11719-2.92871,10.11719-7.89844,0-4.34863-2.39648-6.74414-7.85449-6.74414h-2.35156c-.97656,0-1.41992.39941-1.41992,1.375v13.26758h1.50879Z"/><path class="cls-1" d="m221.06575,86.28123h1.77441c1.59766,0,2.21875-.62207,2.21875-2.26367v-9.93945l-8.96289-15.7959c-.93164-1.68652-1.64258-2.30762-2.7959-2.30762h-.75391c-.62109,0-.62109-1.19824,0-1.19824,1.68555,0,3.37207.04395,5.19141.04395h2.83984c1.24219-.04395,2.48438-.04395,3.72754-.04395.62109,0,.62109,1.24219,0,1.24219h-2.1748c-1.28613,0-1.46387,1.02051-.84277,2.12988l7.54297,13.44531,7.01074-12.86816c1.02051-1.9082.35547-2.70703-.97559-2.70703h-1.81934c-.66602,0-.70996-1.24219-.04492-1.24219,1.64258,0,3.41699.04395,4.88184.04395,1.50781,0,2.2627-.04395,3.54883-.04395.66602,0,.66602,1.19824.04492,1.19824h-.31055c-1.6416,0-2.75098.75391-3.77148,2.75098l-7.76562,14.1543v11.1377c0,1.77539.62109,2.26367,2.1748,2.26367h1.81934c.66504,0,.70898,1.19727,0,1.19727-1.99707,0-4.03809-.04395-6.16797-.04395-2.35156,0-4.39355.04395-6.38965.04395-.66602,0-.66602-1.19727,0-1.19727Z"/><path class="cls-1" d="m244.5804,71.5488c0-11.00391,8.47461-17.08301,16.9502-17.08301,8.69727,0,15.70801,5.45801,15.70801,16.19629,0,11.04883-8.47559,17.12793-16.9502,17.12793-8.65332,0-15.70801-5.45801-15.70801-16.24121Zm15.97363-15.53027c-6.25586,0-10.82617,5.59082-10.82617,14.86523,0,9.80664,4.9248,15.35254,11.53613,15.35254,6.25684,0,10.87109-5.63477,10.87109-14.90918,0-9.76172-4.96875-15.30859-11.58105-15.30859Z"/></g></svg>