<svg width="185" height="43" viewBox="0 0 185 43" fill="none" xmlns="http://www.w3.org/2000/svg">
<path d="M31.6514 39.0255V41.835H41.9039V39.0255H31.6514Z" fill="#070707"/>
<path d="M0 39.0255L0 41.835H10.2525V39.0255H0Z" fill="#070707"/>
<path d="M38.7588 11.4746H41.9033V1.75354H38.7588V11.4746Z" fill="#070707"/>
<path d="M41.9033 4.56286V1.75342L31.6508 1.75342V4.56286H41.9033Z" fill="#070707"/>
<path d="M38.7588 41.835H41.9033V32.1139H38.7588V41.835Z" fill="#070707"/>
<path d="M3.14449 32.1138H0V41.8348H3.14449V32.1138Z" fill="#070707"/>
<path d="M3.14449 1.75342H0V11.4745H3.14449V1.75342Z" fill="#070707"/>
<path d="M10.2529 4.56286V1.75342L0.000386238 1.75342V4.56286H10.2529Z" fill="#070707"/>
<path d="M10.2529 4.56286V1.75342L0.000386238 1.75342V4.56286H10.2529Z" fill="#070707"/>
<g clip-path="url(#clip0_1128_301)">
<path d="M57.2967 16.3375H57.8899C58.5046 16.3375 58.6954 16.1036 58.6954 15.3598V2.79731C58.6954 2.01093 58.6319 1.8196 57.848 1.8196H57.3181C57.0001 1.8196 57.0001 1.24561 57.3181 1.24561C58.1446 1.24561 58.9076 1.26666 59.8399 1.26666C60.7297 1.26666 61.5561 1.24561 62.3616 1.24561C62.6582 1.24561 62.6582 1.8196 62.3616 1.8196H61.7044C61.0902 1.8196 60.878 2.0535 60.878 2.79732V9.83312L67.2352 2.90351C67.6167 2.45722 67.765 1.8196 67.0235 1.8196H66.2181C65.9639 1.8196 65.9639 1.24561 66.2395 1.24561C66.9601 1.24561 67.6806 1.26666 68.5495 1.26666C69.3759 1.26666 69.7574 1.24561 70.4141 1.24561C70.7321 1.24561 70.7107 1.8196 70.4141 1.8196H70.1599C69.2696 1.8196 68.7398 2.20227 68.1041 2.90351L63.9295 7.43094L69.0793 14.3605C70.2867 16.04 70.8166 16.4437 71.9401 16.2098C72.2152 16.2524 72.2577 16.6986 71.9611 16.8264C71.5161 16.9962 70.9014 17.0598 70.3292 17.0598C68.9095 17.0598 68.0831 16.7412 67.2777 15.6147L62.425 9.04674L60.878 10.7257V15.3598C60.878 16.1246 61.0053 16.3375 61.7469 16.3375H62.3191C62.6367 16.3375 62.6367 16.911 62.3191 16.911C61.4927 16.911 60.6024 16.89 59.6915 16.89C58.8012 16.89 58.0597 16.911 57.2967 16.911C57.0001 16.911 57.0001 16.3375 57.2967 16.3375Z" fill="#070707"/>
<path d="M73.5282 16.316H73.8888C74.5244 16.316 74.9059 16.0821 75.3084 15.0618L80.8817 1.16046C81.009 0.884456 81.4115 0.862938 81.5388 1.16046L87.2813 15.4234C87.5355 16.04 87.8111 16.316 88.3834 16.316H88.68C88.9556 16.316 88.9556 16.911 88.659 16.911C87.8111 16.911 87.0906 16.89 86.1583 16.89C85.0777 16.89 84.1025 16.911 83.1492 16.911C82.8311 16.911 82.8526 16.316 83.1492 16.316H84.2088C84.8869 16.316 85.0352 15.9333 84.802 15.2746L83.2341 11.2786H77.5335L76.05 15.0618C75.6899 15.8907 75.9651 16.316 76.9403 16.316H77.8511C78.1692 16.316 78.1692 16.911 77.8726 16.911C76.9827 16.911 76.368 16.89 75.4143 16.89C74.7362 16.89 74.2703 16.911 73.5283 16.911C73.2106 16.911 73.2316 16.316 73.5282 16.316ZM83.0009 10.6831L80.4153 4.02999L77.7877 10.6831H83.0009Z" fill="#070707"/>
<path d="M93.002 3.26513V14.7643C93.002 16.0185 93.3835 16.316 94.4431 16.316H95.1637C95.5027 16.316 95.4818 16.911 95.1637 16.911C94.2948 16.911 93.6167 16.89 92.7269 16.89C91.8365 16.89 91.3706 16.911 90.6501 16.911C90.311 16.911 90.311 16.316 90.6076 16.316H91.2648C91.9848 16.316 92.3454 16.0185 92.3454 14.7643V2.41466C91.9848 2.05351 91.5824 1.81961 90.9891 1.81961H90.5018C90.2051 1.81961 90.2051 1.26666 90.5018 1.26666H93.8075C94.0831 1.26666 94.2099 1.33075 94.3373 1.50056L102.814 13.2341V3.22256C102.814 2.07456 102.538 1.84066 101.542 1.84066H100.737C100.44 1.84066 100.398 1.24561 100.737 1.24561C101.478 1.24561 102.241 1.26666 103.195 1.26666C104.212 1.26666 104.509 1.24561 105.23 1.24561C105.547 1.24561 105.526 1.84066 105.208 1.84066H104.636C103.788 1.84066 103.471 2.07456 103.471 3.26512V16.635C103.471 16.9962 103.047 17.0813 102.814 16.7623L93.002 3.26513Z" fill="#070707"/>
<path d="M105.631 16.316H105.991C106.627 16.316 107.008 16.0821 107.411 15.0618L112.984 1.16046C113.112 0.884456 113.514 0.862938 113.641 1.16046L119.384 15.4234C119.638 16.04 119.914 16.316 120.486 16.316H120.783C121.058 16.316 121.058 16.911 120.762 16.911C119.914 16.911 119.193 16.89 118.261 16.89C117.18 16.89 116.205 16.911 115.252 16.911C114.934 16.911 114.955 16.316 115.252 16.316H116.311C116.989 16.316 117.138 15.9333 116.905 15.2746L115.337 11.2786H109.636L108.153 15.0618C107.792 15.8907 108.068 16.316 109.043 16.316H109.954C110.272 16.316 110.272 16.911 109.975 16.911C109.085 16.911 108.471 16.89 107.517 16.89C106.839 16.89 106.373 16.911 105.631 16.911C105.313 16.911 105.334 16.316 105.631 16.316ZM115.103 10.6831L112.518 4.02999L109.89 10.6831H115.103Z" fill="#070707"/>
<path d="M122.732 16.295L131.42 1.90484H126.144C125.084 1.90484 124.491 2.32961 124.088 3.71151C124.046 3.88132 123.982 4.0516 123.94 4.2855C123.876 4.54046 123.325 4.49789 123.346 4.22141C123.474 3.37141 123.622 2.3937 123.77 1.52217C123.813 1.2457 123.918 1.20312 124.215 1.20312L126.398 1.26675H133.709C133.984 1.26675 134.112 1.58579 133.899 1.88331L125.296 16.2735H130.869C132.183 16.2735 132.904 15.721 133.434 14.0416C133.518 13.8082 133.582 13.5743 133.667 13.2767C133.751 13.0003 134.323 13.0639 134.281 13.3403C134.048 14.4458 133.815 15.5933 133.56 16.571C133.476 16.8475 133.349 16.8901 133.052 16.8901H122.965C122.668 16.8901 122.541 16.55 122.732 16.295Z" fill="#070707"/>
<path d="M135.869 16.316H136.23C136.865 16.316 137.247 16.0821 137.649 15.0618L143.222 1.16046C143.35 0.884456 143.752 0.862938 143.88 1.16046L149.622 15.4234C149.876 16.04 150.152 16.316 150.724 16.316H151.021C151.296 16.316 151.296 16.911 151 16.911C150.152 16.911 149.431 16.89 148.499 16.89C147.418 16.89 146.443 16.911 145.49 16.911C145.172 16.911 145.193 16.316 145.49 16.316H146.55C147.228 16.316 147.376 15.9333 147.143 15.2746L145.575 11.2786H139.874L138.391 15.0618C138.031 15.8907 138.306 16.316 139.281 16.316H140.192C140.51 16.316 140.51 16.911 140.213 16.911C139.324 16.911 138.709 16.89 137.755 16.89C137.077 16.89 136.611 16.911 135.869 16.911C135.551 16.911 135.572 16.316 135.869 16.316ZM145.342 10.6831L142.756 4.02999L140.129 10.6831H145.342Z" fill="#070707"/>
<path d="M160.027 5.24161L156.254 16.7623C156.149 17.0598 155.661 17.0387 155.576 16.7838L150.596 2.94608C150.321 2.1597 149.961 1.84066 149.346 1.84066H148.901C148.626 1.84066 148.626 1.24561 148.922 1.24561C149.812 1.24561 150.511 1.26666 151.487 1.26666C152.737 1.26666 153.479 1.24561 154.411 1.24561C154.686 1.24561 154.707 1.8196 154.411 1.8196H153.5C152.864 1.8196 152.695 2.18075 152.906 2.75475L156.699 13.4039L159.666 4.17875L159.243 2.96713C158.967 2.1597 158.649 1.84066 157.95 1.84066H157.462C157.166 1.84066 157.166 1.24561 157.462 1.24561C158.395 1.24561 159.179 1.26666 160.154 1.26666C161.446 1.26666 162.039 1.24561 163.078 1.24561C163.417 1.24561 163.396 1.84066 163.099 1.84066H162.146C161.51 1.84066 161.361 2.28694 161.552 2.83989L165.028 13.4039L168.291 3.20103C168.651 2.1597 168.397 1.8196 167.486 1.8196H166.765C166.448 1.8196 166.448 1.24561 166.744 1.24561C167.528 1.24561 168.312 1.26666 169.075 1.26666C169.88 1.26666 170.135 1.24561 170.791 1.24561C171.11 1.24561 171.088 1.8196 170.813 1.8196H170.41C169.668 1.8196 169.329 2.30846 168.99 3.28617L164.583 16.7623C164.477 17.0598 163.989 17.0387 163.904 16.7623L160.027 5.24161Z" fill="#070707"/>
<path d="M168.883 16.316H169.243C169.879 16.316 170.26 16.0821 170.663 15.0618L176.236 1.16046C176.363 0.884456 176.766 0.862938 176.893 1.16046L182.636 15.4234C182.89 16.04 183.166 16.316 183.738 16.316H184.034C184.31 16.316 184.31 16.911 184.013 16.911C183.166 16.911 182.445 16.89 181.513 16.89C180.432 16.89 179.457 16.911 178.504 16.911C178.186 16.911 178.207 16.316 178.504 16.316H179.563C180.241 16.316 180.39 15.9333 180.157 15.2746L178.589 11.2786H172.888L171.404 15.0618C171.044 15.8907 171.32 16.316 172.295 16.316H173.206C173.524 16.316 173.524 16.911 173.227 16.911C172.337 16.911 171.723 16.89 170.769 16.89C170.091 16.89 169.624 16.911 168.883 16.911C168.565 16.911 168.586 16.316 168.883 16.316ZM178.355 10.6831L175.77 4.02999L173.142 10.6831H178.355Z" fill="#070707"/>
<path d="M58.3778 42.4466C58.1447 42.3615 58.0173 42.2127 57.9539 41.9578C57.7841 41.1499 57.6573 40.1722 57.6148 39.1519C57.5934 38.8544 58.1656 38.7271 58.2505 39.0031C58.3778 39.5561 58.4623 39.811 58.6106 40.1296C58.8228 40.8739 59.416 41.5751 60.1575 41.9152C60.7088 42.1702 61.4504 42.3194 62.1919 42.3194C63.9511 42.3194 65.159 41.1499 65.159 39.5986C65.159 38.0469 64.1204 37.0266 62.086 35.8571L61.0689 35.2836C59.0769 34.1571 57.7207 33.0302 57.7207 30.926C57.7207 29.0131 59.3101 27.0146 62.3402 27.0146C63.3998 27.0146 64.6502 27.1639 65.6464 27.504C65.8157 27.5676 65.9005 27.6312 65.943 27.8225C66.0913 28.5664 66.1762 29.2681 66.2606 30.0545C66.282 30.3094 65.7732 30.4156 65.6888 30.1822C65.6039 29.8631 65.4981 29.5866 65.3917 29.3958C65.159 28.7577 64.6926 28.2052 64.0994 27.9928C63.5481 27.8015 62.87 27.6948 62.1919 27.6948C60.4756 27.6948 59.5433 28.7577 59.5433 30.0334C59.5433 31.4364 60.6664 32.3074 62.2558 33.2215L63.273 33.7955C65.6888 35.1769 67.087 36.5799 67.087 38.6845C67.087 40.959 65.0741 42.9996 62.1285 42.9996C60.7088 42.9996 59.395 42.8293 58.3778 42.4466Z" fill="#070707"/>
<path d="M68.9931 42.2554H69.3536C69.9893 42.2554 70.3708 42.0215 70.7733 41.0012L76.3465 27.0999C76.4738 26.8239 76.8763 26.8024 77.0036 27.0999L82.7462 41.3628C83.0003 41.9789 83.276 42.2554 83.8482 42.2554H84.1448C84.4205 42.2554 84.4205 42.8505 84.1238 42.8505C83.276 42.8505 82.5554 42.8294 81.6231 42.8294C80.5425 42.8294 79.5678 42.8505 78.614 42.8505C78.296 42.8505 78.3174 42.2554 78.614 42.2554H79.6737C80.3518 42.2554 80.5001 41.8728 80.2669 41.2141L78.6989 37.2176H72.9984L71.5148 41.0012C71.1548 41.8302 71.4304 42.2554 72.4051 42.2554H73.316C73.634 42.2554 73.634 42.8505 73.3374 42.8505C72.4471 42.8505 71.8329 42.8294 70.8791 42.8294C70.201 42.8294 69.7346 42.8505 68.9931 42.8505C68.6755 42.8505 68.6965 42.2554 68.9931 42.2554ZM78.4657 36.6226L75.8801 29.9694L73.2525 36.6226H78.4657Z" fill="#070707"/>
<path d="M86.7715 42.2769H87.2589C87.8945 42.2769 88.1067 42.1066 88.1067 41.3202V28.7367C88.0853 28.0776 87.916 27.8016 87.2589 27.8016H86.5597C86.2631 27.8016 86.2631 27.2061 86.5807 27.2061H92.4506C96.6042 27.2061 98.1087 28.4602 98.1087 30.8835C98.1302 32.7117 96.9432 34.2634 94.5488 34.9861L97.473 39.6623C98.681 41.6178 99.3381 42.2554 100.715 42.2343C101.012 42.2343 101.054 42.6806 100.779 42.7868C100.334 42.893 99.7616 42.9997 99.2108 42.9997C97.5579 42.9997 96.7525 42.5103 95.8626 41.0863L92.4086 35.3899C92.0057 35.4324 91.5607 35.4324 91.1158 35.4324H90.247L90.2255 41.3202C90.2255 42.1066 90.3528 42.2554 91.1368 42.2769H91.7725C92.0905 42.2769 92.0905 42.8504 91.7725 42.8504C90.9461 42.8504 90.0562 42.8294 89.1449 42.8294C88.276 42.8294 87.492 42.8504 86.7715 42.8504C86.4749 42.8504 86.4749 42.2769 86.7715 42.2769ZM90.9675 34.8158C94.1673 34.8158 95.7992 33.4129 95.7992 31.0322C95.7992 28.9491 94.6547 27.8016 92.0481 27.8016H90.9251C90.4587 27.8016 90.2469 27.9929 90.2469 28.4602V34.8158H90.9675Z" fill="#070707"/>
<path d="M105.314 42.2769H106.161C106.924 42.2769 107.221 41.979 107.221 41.1926V36.4312L102.94 28.8645C102.495 28.0566 102.156 27.7591 101.605 27.7591H101.245C100.948 27.7591 100.948 27.1851 101.245 27.1851C102.05 27.1851 102.855 27.2061 103.724 27.2061H105.08C105.674 27.1851 106.267 27.1851 106.861 27.1851C107.157 27.1851 107.157 27.7801 106.861 27.7801H105.822C105.208 27.7801 105.123 28.269 105.419 28.8004L109.022 35.2411L112.37 29.0769C112.857 28.1628 112.54 27.7801 111.904 27.7801H111.035C110.717 27.7801 110.696 27.1851 111.014 27.1851C111.798 27.1851 112.646 27.2061 113.345 27.2061C114.065 27.2061 114.426 27.1851 115.04 27.1851C115.358 27.1851 115.358 27.7591 115.061 27.7591H114.913C114.129 27.7591 113.599 28.1202 113.112 29.0769L109.403 35.8572V41.1926C109.403 42.043 109.7 42.277 110.442 42.277H111.311C111.628 42.277 111.649 42.8505 111.311 42.8505C110.357 42.8505 109.382 42.8294 108.365 42.8294C107.242 42.8294 106.267 42.8505 105.314 42.8505C104.996 42.8505 104.996 42.2769 105.314 42.2769Z" fill="#070707"/>
<path d="M116.544 35.2195C116.544 29.9482 120.591 27.0361 124.639 27.0361C128.792 27.0361 132.141 29.6507 132.141 34.7947C132.141 40.0875 128.093 42.9995 124.046 42.9995C119.913 42.9995 116.544 40.385 116.544 35.2195ZM124.173 27.7799C121.185 27.7799 119.002 30.4581 119.002 34.9009C119.002 39.5986 121.354 42.2553 124.512 42.2553C127.5 42.2553 129.703 39.556 129.703 35.1133C129.703 30.4371 127.33 27.7799 124.173 27.7799Z" fill="#070707"/>
</g>
<defs>
<clipPath id="clip0_1128_301">
<rect width="127.164" height="42.0543" fill="white" transform="translate(57.0742 0.945312)"/>
</clipPath>
</defs>
</svg>
