<svg width="185" height="43" viewBox="0 0 185 43" fill="none" xmlns="http://www.w3.org/2000/svg">
<g clip-path="url(#clip0_945_655)">
<path d="M38.7588 11.4751H41.9033V1.75403H38.7588V11.4751Z" fill="#F8F8F8"/>
<path d="M41.9033 4.56334V1.75391L31.6508 1.75391V4.56334H41.9033Z" fill="#F8F8F8"/>
<path d="M38.7588 41.8354H41.9033V32.1144H38.7588V41.8354Z" fill="#F8F8F8"/>
<path d="M31.6514 39.026V41.8354H41.9039V39.026H31.6514Z" fill="#F8F8F8"/>
<path d="M38.7588 41.8354H41.9033V32.1144H38.7588V41.8354Z" fill="#F8F8F8"/>
<path d="M31.6514 39.026V41.8354H41.9039V39.026H31.6514Z" fill="#F8F8F8"/>
<path d="M3.14449 32.1143H0V41.8353H3.14449V32.1143Z" fill="#F8F8F8"/>
<path d="M0 39.026L0 41.8354H10.2525V39.026H0Z" fill="#F8F8F8"/>
<path d="M3.14449 1.75391H0V11.475H3.14449V1.75391Z" fill="#F8F8F8"/>
<path d="M10.2529 4.56334V1.75391L0.000386238 1.75391V4.56334H10.2529Z" fill="#F8F8F8"/>
<path d="M3.14449 1.75391H0V11.475H3.14449V1.75391Z" fill="#F8F8F8"/>
<path d="M10.2529 4.56334V1.75391L0.000386238 1.75391V4.56334H10.2529Z" fill="#F8F8F8"/>
</g>
<g clip-path="url(#clip1_945_655)">
<path d="M57.2967 16.338H57.8899C58.5046 16.338 58.6954 16.1041 58.6954 15.3603V2.7978C58.6954 2.01142 58.6319 1.82009 57.848 1.82009H57.3181C57.0001 1.82009 57.0001 1.24609 57.3181 1.24609C58.1446 1.24609 58.9076 1.26715 59.8399 1.26715C60.7297 1.26715 61.5561 1.24609 62.3616 1.24609C62.6582 1.24609 62.6582 1.82009 62.3616 1.82009H61.7044C61.0902 1.82009 60.878 2.05399 60.878 2.79781V9.83361L67.2352 2.904C67.6167 2.45771 67.765 1.82009 67.0235 1.82009H66.2181C65.9639 1.82009 65.9639 1.24609 66.2395 1.24609C66.9601 1.24609 67.6806 1.26715 68.5495 1.26715C69.3759 1.26715 69.7574 1.24609 70.4141 1.24609C70.7321 1.24609 70.7107 1.82009 70.4141 1.82009H70.1599C69.2696 1.82009 68.7398 2.20276 68.1041 2.904L63.9295 7.43142L69.0793 14.361C70.2867 16.0405 70.8166 16.4442 71.9401 16.2103C72.2152 16.2528 72.2577 16.6991 71.9611 16.8268C71.5161 16.9967 70.9014 17.0603 70.3292 17.0603C68.9095 17.0603 68.0831 16.7417 67.2777 15.6152L62.425 9.04722L60.878 10.7262V15.3603C60.878 16.1251 61.0053 16.338 61.7469 16.338H62.3191C62.6367 16.338 62.6367 16.9115 62.3191 16.9115C61.4927 16.9115 60.6024 16.8905 59.6915 16.8905C58.8012 16.8905 58.0597 16.9115 57.2967 16.9115C57.0001 16.9115 57.0001 16.338 57.2967 16.338Z" fill="#F8F8F8"/>
<path d="M73.5282 16.3165H73.8888C74.5244 16.3165 74.9059 16.0826 75.3084 15.0623L80.8817 1.16095C81.009 0.884945 81.4115 0.863426 81.5388 1.16095L87.2813 15.4239C87.5355 16.0405 87.8111 16.3165 88.3834 16.3165H88.68C88.9556 16.3165 88.9556 16.9115 88.659 16.9115C87.8111 16.9115 87.0906 16.8905 86.1583 16.8905C85.0777 16.8905 84.1025 16.9115 83.1492 16.9115C82.8311 16.9115 82.8526 16.3165 83.1492 16.3165H84.2088C84.8869 16.3165 85.0352 15.9338 84.802 15.2751L83.2341 11.2791H77.5335L76.05 15.0623C75.6899 15.8912 75.9651 16.3165 76.9403 16.3165H77.8511C78.1692 16.3165 78.1692 16.9115 77.8726 16.9115C76.9827 16.9115 76.368 16.8904 75.4143 16.8904C74.7362 16.8904 74.2703 16.9115 73.5283 16.9115C73.2106 16.9115 73.2316 16.3165 73.5282 16.3165ZM83.0009 10.6836L80.4153 4.03047L77.7877 10.6836H83.0009Z" fill="#F8F8F8"/>
<path d="M93.002 3.26562V14.7648C93.002 16.0189 93.3835 16.3165 94.4431 16.3165H95.1637C95.5027 16.3165 95.4818 16.9115 95.1637 16.9115C94.2948 16.9115 93.6167 16.8905 92.7269 16.8905C91.8365 16.8905 91.3706 16.9115 90.6501 16.9115C90.311 16.9115 90.311 16.3165 90.6076 16.3165H91.2648C91.9848 16.3165 92.3454 16.0189 92.3454 14.7648V2.41515C91.9848 2.054 91.5824 1.8201 90.9891 1.8201H90.5018C90.2051 1.8201 90.2051 1.26715 90.5018 1.26715H93.8075C94.0831 1.26715 94.2099 1.33124 94.3373 1.50105L102.814 13.2346V3.22305C102.814 2.07505 102.538 1.84114 101.542 1.84114H100.737C100.44 1.84114 100.398 1.24609 100.737 1.24609C101.478 1.24609 102.241 1.26715 103.195 1.26715C104.212 1.26715 104.509 1.24609 105.23 1.24609C105.547 1.24609 105.526 1.84114 105.208 1.84114H104.636C103.788 1.84114 103.471 2.07505 103.471 3.26561V16.6355C103.471 16.9967 103.047 17.0818 102.814 16.7628L93.002 3.26562Z" fill="#F8F8F8"/>
<path d="M105.631 16.3165H105.991C106.627 16.3165 107.008 16.0826 107.411 15.0623L112.984 1.16095C113.112 0.884945 113.514 0.863426 113.641 1.16095L119.384 15.4239C119.638 16.0405 119.914 16.3165 120.486 16.3165H120.783C121.058 16.3165 121.058 16.9115 120.762 16.9115C119.914 16.9115 119.193 16.8905 118.261 16.8905C117.18 16.8905 116.205 16.9115 115.252 16.9115C114.934 16.9115 114.955 16.3165 115.252 16.3165H116.311C116.989 16.3165 117.138 15.9338 116.905 15.2751L115.337 11.2791H109.636L108.153 15.0623C107.792 15.8912 108.068 16.3165 109.043 16.3165H109.954C110.272 16.3165 110.272 16.9115 109.975 16.9115C109.085 16.9115 108.471 16.8904 107.517 16.8904C106.839 16.8904 106.373 16.9115 105.631 16.9115C105.313 16.9115 105.334 16.3165 105.631 16.3165ZM115.103 10.6836L112.518 4.03047L109.89 10.6836H115.103Z" fill="#F8F8F8"/>
<path d="M122.732 16.2955L131.42 1.90533H126.144C125.084 1.90533 124.491 2.3301 124.088 3.71199C124.046 3.88181 123.982 4.05209 123.94 4.28599C123.876 4.54095 123.325 4.49838 123.346 4.2219C123.474 3.3719 123.622 2.39418 123.77 1.52266C123.813 1.24618 123.918 1.20361 124.215 1.20361L126.398 1.26723H133.709C133.984 1.26723 134.112 1.58628 133.899 1.8838L125.296 16.274H130.869C132.183 16.274 132.904 15.7215 133.434 14.0421C133.518 13.8086 133.582 13.5747 133.667 13.2772C133.751 13.0007 134.323 13.0644 134.281 13.3408C134.048 14.4463 133.815 15.5938 133.56 16.5715C133.476 16.848 133.349 16.8906 133.052 16.8906H122.965C122.668 16.8906 122.541 16.5505 122.732 16.2955Z" fill="#F8F8F8"/>
<path d="M135.869 16.3165H136.23C136.865 16.3165 137.247 16.0826 137.649 15.0623L143.222 1.16095C143.35 0.884945 143.752 0.863426 143.88 1.16095L149.622 15.4239C149.876 16.0405 150.152 16.3165 150.724 16.3165H151.021C151.296 16.3165 151.296 16.9115 151 16.9115C150.152 16.9115 149.431 16.8905 148.499 16.8905C147.418 16.8905 146.443 16.9115 145.49 16.9115C145.172 16.9115 145.193 16.3165 145.49 16.3165H146.55C147.228 16.3165 147.376 15.9338 147.143 15.2751L145.575 11.2791H139.874L138.391 15.0623C138.031 15.8912 138.306 16.3165 139.281 16.3165H140.192C140.51 16.3165 140.51 16.9115 140.213 16.9115C139.324 16.9115 138.709 16.8904 137.755 16.8904C137.077 16.8904 136.611 16.9115 135.869 16.9115C135.551 16.9115 135.572 16.3165 135.869 16.3165ZM145.342 10.6836L142.756 4.03047L140.129 10.6836H145.342Z" fill="#F8F8F8"/>
<path d="M160.027 5.2421L156.254 16.7628C156.149 17.0603 155.661 17.0392 155.576 16.7843L150.596 2.94657C150.321 2.16019 149.961 1.84114 149.346 1.84114H148.901C148.626 1.84114 148.626 1.24609 148.922 1.24609C149.812 1.24609 150.511 1.26715 151.487 1.26715C152.737 1.26715 153.479 1.24609 154.411 1.24609C154.686 1.24609 154.707 1.82009 154.411 1.82009H153.5C152.864 1.82009 152.695 2.18124 152.906 2.75524L156.699 13.4044L159.666 4.17924L159.243 2.96762C158.967 2.16019 158.649 1.84114 157.95 1.84114H157.462C157.166 1.84114 157.166 1.24609 157.462 1.24609C158.395 1.24609 159.179 1.26715 160.154 1.26715C161.446 1.26715 162.039 1.24609 163.078 1.24609C163.417 1.24609 163.396 1.84114 163.099 1.84114H162.146C161.51 1.84114 161.361 2.28743 161.552 2.84038L165.028 13.4044L168.291 3.20152C168.651 2.16019 168.397 1.82009 167.486 1.82009H166.765C166.448 1.82009 166.448 1.24609 166.744 1.24609C167.528 1.24609 168.312 1.26715 169.075 1.26715C169.88 1.26715 170.135 1.24609 170.791 1.24609C171.11 1.24609 171.088 1.82009 170.813 1.82009H170.41C169.668 1.82009 169.329 2.30895 168.99 3.28666L164.583 16.7628C164.477 17.0603 163.989 17.0392 163.904 16.7628L160.027 5.2421Z" fill="#F8F8F8"/>
<path d="M168.883 16.3165H169.243C169.879 16.3165 170.26 16.0826 170.663 15.0623L176.236 1.16095C176.363 0.884945 176.766 0.863426 176.893 1.16095L182.636 15.4239C182.89 16.0405 183.166 16.3165 183.738 16.3165H184.034C184.31 16.3165 184.31 16.9115 184.013 16.9115C183.166 16.9115 182.445 16.8905 181.513 16.8905C180.432 16.8905 179.457 16.9115 178.504 16.9115C178.186 16.9115 178.207 16.3165 178.504 16.3165H179.563C180.241 16.3165 180.39 15.9338 180.157 15.2751L178.589 11.2791H172.888L171.404 15.0623C171.044 15.8912 171.32 16.3165 172.295 16.3165H173.206C173.524 16.3165 173.524 16.9115 173.227 16.9115C172.337 16.9115 171.723 16.8904 170.769 16.8904C170.091 16.8904 169.624 16.9115 168.883 16.9115C168.565 16.9115 168.586 16.3165 168.883 16.3165ZM178.355 10.6836L175.77 4.03047L173.142 10.6836H178.355Z" fill="#F8F8F8"/>
<path d="M58.3778 42.4471C58.1447 42.362 58.0173 42.2132 57.9539 41.9583C57.7841 41.1504 57.6573 40.1727 57.6148 39.1524C57.5934 38.8548 58.1656 38.7276 58.2505 39.0036C58.3778 39.5566 58.4623 39.8115 58.6106 40.1301C58.8228 40.8744 59.416 41.5756 60.1575 41.9157C60.7088 42.1707 61.4504 42.3199 62.1919 42.3199C63.9511 42.3199 65.159 41.1504 65.159 39.5991C65.159 38.0474 64.1204 37.0271 62.086 35.8576L61.0689 35.2841C59.0769 34.1576 57.7207 33.0307 57.7207 30.9265C57.7207 29.0136 59.3101 27.0151 62.3402 27.0151C63.3998 27.0151 64.6502 27.1644 65.6464 27.5045C65.8157 27.5681 65.9005 27.6317 65.943 27.823C66.0913 28.5668 66.1762 29.2686 66.2606 30.0549C66.282 30.3099 65.7732 30.4161 65.6888 30.1826C65.6039 29.8636 65.4981 29.5871 65.3917 29.3963C65.159 28.7582 64.6926 28.2057 64.0994 27.9933C63.5481 27.802 62.87 27.6953 62.1919 27.6953C60.4756 27.6953 59.5433 28.7582 59.5433 30.0339C59.5433 31.4368 60.6664 32.3079 62.2558 33.222L63.273 33.796C65.6888 35.1774 67.087 36.5804 67.087 38.685C67.087 40.9595 65.0741 43.0001 62.1285 43.0001C60.7088 43.0001 59.395 42.8298 58.3778 42.4471Z" fill="#F8F8F8"/>
<path d="M68.9931 42.2559H69.3536C69.9893 42.2559 70.3708 42.022 70.7733 41.0017L76.3465 27.1004C76.4738 26.8244 76.8763 26.8029 77.0036 27.1004L82.7462 41.3633C83.0003 41.9794 83.276 42.2559 83.8482 42.2559H84.1448C84.4205 42.2559 84.4205 42.851 84.1238 42.851C83.276 42.851 82.5554 42.8299 81.6231 42.8299C80.5425 42.8299 79.5678 42.851 78.614 42.851C78.296 42.851 78.3174 42.2559 78.614 42.2559H79.6736C80.3518 42.2559 80.5001 41.8732 80.2669 41.2146L78.6989 37.2181H72.9984L71.5148 41.0017C71.1548 41.8307 71.4304 42.2559 72.4051 42.2559H73.316C73.634 42.2559 73.634 42.851 73.3374 42.851C72.4471 42.851 71.8329 42.8299 70.8791 42.8299C70.201 42.8299 69.7346 42.851 68.9931 42.851C68.6755 42.851 68.6965 42.2559 68.9931 42.2559ZM78.4657 36.6231L75.8801 29.9699L73.2525 36.6231H78.4657Z" fill="#F8F8F8"/>
<path d="M86.7715 42.2774H87.2589C87.8945 42.2774 88.1067 42.1071 88.1067 41.3207V28.7372C88.0853 28.0781 87.916 27.8021 87.2589 27.8021H86.5597C86.2631 27.8021 86.2631 27.2065 86.5807 27.2065H92.4506C96.6042 27.2065 98.1087 28.4607 98.1087 30.884C98.1302 32.7122 96.9432 34.2639 94.5488 34.9866L97.473 39.6628C98.681 41.6182 99.3381 42.2559 100.715 42.2348C101.012 42.2348 101.054 42.6811 100.779 42.7873C100.334 42.8935 99.7616 43.0001 99.2108 43.0001C97.5579 43.0001 96.7525 42.5108 95.8626 41.0868L92.4086 35.3903C92.0057 35.4329 91.5607 35.4329 91.1158 35.4329H90.247L90.2255 41.3207C90.2255 42.1071 90.3528 42.2559 91.1368 42.2774H91.7725C92.0905 42.2774 92.0905 42.8509 91.7725 42.8509C90.9461 42.8509 90.0562 42.8299 89.1449 42.8299C88.276 42.8299 87.492 42.8509 86.7715 42.8509C86.4749 42.8509 86.4749 42.2774 86.7715 42.2774ZM90.9675 34.8163C94.1673 34.8163 95.7992 33.4134 95.7992 31.0327C95.7992 28.9496 94.6547 27.8021 92.0481 27.8021H90.9251C90.4587 27.8021 90.2469 27.9934 90.2469 28.4607V34.8163H90.9675Z" fill="#F8F8F8"/>
<path d="M105.314 42.2774H106.161C106.924 42.2774 107.221 41.9794 107.221 41.1931V36.4317L102.94 28.865C102.495 28.0571 102.156 27.7595 101.605 27.7595H101.245C100.948 27.7595 100.948 27.1855 101.245 27.1855C102.05 27.1855 102.855 27.2066 103.724 27.2066H105.08C105.674 27.1855 106.267 27.1855 106.861 27.1855C107.157 27.1855 107.157 27.7806 106.861 27.7806H105.822C105.208 27.7806 105.123 28.2695 105.419 28.8009L109.022 35.2416L112.37 29.0774C112.857 28.1633 112.54 27.7806 111.904 27.7806H111.035C110.717 27.7806 110.696 27.1855 111.014 27.1855C111.798 27.1855 112.646 27.2066 113.345 27.2066C114.065 27.2066 114.426 27.1855 115.04 27.1855C115.358 27.1855 115.358 27.7595 115.061 27.7595H114.913C114.129 27.7595 113.599 28.1207 113.112 29.0774L109.403 35.8577V41.1931C109.403 42.0435 109.7 42.2774 110.442 42.2774H111.311C111.628 42.2774 111.649 42.851 111.311 42.851C110.357 42.851 109.382 42.8299 108.365 42.8299C107.242 42.8299 106.267 42.851 105.314 42.851C104.996 42.851 104.996 42.2774 105.314 42.2774Z" fill="#F8F8F8"/>
<path d="M116.544 35.22C116.544 29.9487 120.591 27.0366 124.639 27.0366C128.792 27.0366 132.141 29.6512 132.141 34.7952C132.141 40.0879 128.093 43 124.046 43C119.913 43 116.544 40.3855 116.544 35.22ZM124.173 27.7804C121.185 27.7804 119.002 30.4586 119.002 34.9014C119.002 39.5991 121.354 42.2558 124.512 42.2558C127.5 42.2558 129.703 39.5565 129.703 35.1138C129.703 30.4376 127.33 27.7804 124.173 27.7804Z" fill="#F8F8F8"/>
</g>
<defs>
<clipPath id="clip0_945_655">
<rect width="41.9035" height="40.0816" fill="white" transform="translate(0 1.75391)"/>
</clipPath>
<clipPath id="clip1_945_655">
<rect width="127.164" height="42.0543" fill="white" transform="translate(57.0742 0.945801)"/>
</clipPath>
</defs>
</svg>
