<svg width="432" height="98" viewBox="0 0 432 98" fill="none" xmlns="http://www.w3.org/2000/svg">
<g clip-path="url(#clip0_1142_396)">
<path d="M78.9176 41.2131C78.9176 52.2321 71.5612 58.2083 62.4011 58.2083C52.8104 58.2083 45.165 52.5187 45.165 35.7403C45.165 18.168 54.9012 5.85341 74.2299 3.76392L74.5188 4.77282C59.0846 7.86939 51.9435 18.3113 51.2957 32.3552C54.1079 28.5383 58.6521 25.5851 64.7827 25.5851C72.2109 25.5851 78.9176 30.4109 78.9176 41.2131ZM73.0041 43.5176C73.0041 34.9483 69.3986 28.8268 61.3925 28.8268C57.3527 28.8268 53.6754 30.9145 51.2957 33.6508C51.2957 34.6597 51.2221 35.8837 51.2221 36.7474C51.2221 49.6391 55.4055 56.9128 62.8355 56.9128C69.0379 56.9128 73.0041 51.9435 73.0041 43.5176Z" fill="#231815"/>
<path d="M95 55.1834C95 60.7297 91.1055 66.2024 84.9031 71.4601L84.0381 70.6681C87.5 67.5697 89.5908 63.3944 89.5908 59.6491C89.5908 56.6242 88.365 54.8967 86.2724 53.8161C86.7049 51.7983 88.2933 49.9275 90.6012 49.9275C93.7742 49.9275 95 52.5187 95 55.1834Z" fill="#231815"/>
<path d="M136.831 26.3054C136.831 43.8778 127.023 56.1924 107.692 58.28L107.403 57.2729C122.839 54.1764 130.05 43.7326 130.7 29.6905C127.888 33.5075 123.344 36.4607 117.213 36.4607C109.785 36.4607 103.076 31.6348 103.076 20.8327C103.076 9.81368 110.433 3.8374 119.593 3.8374C129.185 3.8374 136.831 9.52518 136.831 26.3054ZM130.7 25.2965C130.7 12.4067 126.517 5.13302 119.088 5.13302C112.886 5.13302 108.991 10.1022 108.991 18.5282C108.991 27.0975 112.525 33.219 120.531 33.219C124.569 33.219 128.248 31.1313 130.628 28.3931C130.628 27.386 130.7 26.1621 130.7 25.2965Z" fill="#231815"/>
<path d="M178.876 30.6259C178.876 50.5027 172.241 58.0649 161.638 58.0649C151.252 58.0649 144.474 50.9345 144.474 31.5631C144.474 11.6862 151.109 4.12402 161.712 4.12402C172.097 4.12402 178.876 11.2544 178.876 30.6259ZM172.53 32.787C172.53 11.3977 168.275 5.42147 161.351 5.42147C154.931 5.42147 150.82 11.1111 150.82 29.4019C150.82 50.7912 155.148 56.7675 162.072 56.7675C168.49 56.7675 172.53 51.0797 172.53 32.787Z" fill="#231815"/>
<path d="M220.849 30.6259C220.849 50.5027 214.215 58.0649 203.612 58.0649C193.226 58.0649 186.447 50.9345 186.447 31.5631C186.447 11.6862 193.082 4.12402 203.685 4.12402C214.071 4.12402 220.849 11.2544 220.849 30.6259ZM214.503 32.787C214.503 11.3977 210.248 5.42147 203.324 5.42147C196.905 5.42147 192.793 11.1111 192.793 29.4019C192.793 50.7912 197.122 56.7675 204.046 56.7675C210.464 56.7675 214.503 51.0797 214.503 32.787Z" fill="#231815"/>
<path d="M264.405 26.5593C263.853 27.6252 263.632 28.6543 263.632 29.6467V53.3534C263.632 54.2355 263.338 54.9706 262.675 55.5219C261.718 56.3305 260.172 56.7715 258.074 56.7715C257.632 54.75 256.712 53.9782 251.595 53.0593L251.522 52.2507C253.62 52.3977 256.197 52.508 257.853 52.508C258.884 52.508 259.104 52.2507 259.104 51.7729V40.379H238.859V56.698C237.645 56.7715 235.436 56.845 234.626 56.845C234.479 56.845 234.405 56.8083 234.405 56.6245V24.5011C235.804 24.9054 237.645 25.567 239.08 26.155H258.7L260.835 24.1335C262.049 24.8686 263.374 25.714 264.405 26.5593ZM238.859 38.9824H246.589V27.5517H238.859V38.9824ZM259.104 38.9824V27.5517H251.043V38.9824H259.104Z" fill="#231815"/>
<path d="M232.015 12.499C232.015 14.888 232.541 16.7515 233.914 18.4311L233.719 18.637C232.002 17.312 230.984 15.0479 230.984 12.499C230.984 9.95186 232.002 7.68779 233.719 6.36279L233.914 6.56863C232.541 8.24831 232.015 10.1117 232.015 12.499Z" fill="#231815"/>
<path d="M240.391 11.5856V17.1962C240.024 17.2201 239.349 17.2422 239.108 17.2422C239.062 17.2422 239.029 17.2311 239.029 17.1742V13.1624C238.582 13.9048 238.055 14.5572 237.448 15.1049L237.266 14.9119C238.09 13.6421 238.663 12.0304 238.926 10.2367H237.448L237.369 9.8251H239.029V8.15644C238.513 8.2373 238.009 8.29427 237.518 8.32919L237.38 8.12336C238.663 7.6768 239.978 7.00235 240.95 6.3279L241.981 7.43788C242.003 7.47096 241.981 7.50587 241.946 7.5169C241.455 7.66575 240.928 7.80358 240.391 7.91752V9.82508H240.722L241.237 9.23149C241.569 9.43733 241.856 9.65417 242.119 9.89491L241.9 10.2367H240.391V11.139C241.49 11.4717 242.016 12.1792 242.06 12.7048C242.095 13.0705 241.718 13.4141 241.328 13.4141C241.099 13.4141 240.974 13.2892 240.928 13.0705C240.825 12.5688 240.641 12.0543 240.391 11.5856ZM242.909 12.363L244.602 12.6148C244.591 12.7397 244.567 12.7618 244.51 12.7857L244.328 12.8316C244.282 12.8426 244.258 12.8647 244.247 12.9106C243.834 15.1177 243.034 16.4777 240.836 17.2422L240.676 17.0363C242.233 16.0991 242.77 14.6712 242.909 12.363ZM248.299 15.7573C248.299 16.3398 248.207 16.5916 247.99 16.7735C247.76 16.9684 247.418 17.0492 246.617 17.0492C245.747 17.0492 245.391 16.9683 245.128 16.7166C244.922 16.5218 244.83 16.202 244.83 15.7463V11.9624H243.492V12.2711C243.115 12.2932 242.279 12.3171 242.198 12.3171C242.141 12.3171 242.119 12.306 242.119 12.2491V8.43211C242.553 8.54605 243.102 8.71696 243.549 8.87684H245.117C245.38 8.05354 245.609 7.1402 245.758 6.31689L247.497 6.91048C247.475 7.0134 247.44 7.04831 247.383 7.04831H247.177C247.143 7.04831 247.12 7.05933 247.086 7.09424C246.617 7.6768 246.102 8.31632 245.518 8.87684H246.124L246.731 8.34022C247.062 8.52215 247.475 8.77392 247.784 9.00364C247.635 9.3234 247.578 9.63213 247.578 9.93904V12.2362C247.2 12.2601 246.536 12.2821 246.284 12.2821C246.238 12.2821 246.205 12.2601 246.205 12.2031V11.9624V15.4596C246.205 15.6764 246.216 15.7334 246.238 15.7573C246.273 15.7903 246.33 15.8142 246.696 15.8142C247.074 15.8142 247.155 15.8032 247.201 15.7573C247.247 15.7113 247.291 15.6543 247.326 15.5165C247.429 15.0938 247.532 14.5223 247.6 14.0647L247.83 14.1107C247.852 14.5223 247.887 15.0369 247.944 15.3915C247.979 15.5864 248.069 15.6874 248.299 15.7573ZM243.091 8.38617C242.966 7.74481 242.724 7.08323 242.358 6.4878L242.542 6.36283C243.709 6.69362 244.282 7.44893 244.317 7.99656C244.339 8.38615 243.937 8.7629 243.525 8.7629C243.275 8.7629 243.137 8.62509 243.091 8.38617ZM243.492 11.5618H246.205V9.26644H243.492V11.5618Z" fill="#231815"/>
<path d="M259.891 15.5514C259.718 15.9281 259.558 16.4886 259.479 16.7735C259.444 16.8874 259.387 16.9333 259.262 16.9462C258.54 17.0032 257.029 17.0032 255.792 17.0032C253.035 17.0032 252.141 16.4077 251.614 14.9909C251.066 15.7002 250.368 16.4996 249.704 17.1741C249.669 17.209 249.623 17.209 249.601 17.1741L248.776 15.8822C249.338 15.6433 249.886 15.4025 250.413 15.1508V11.7914H248.879L248.8 11.3797H250.298L250.939 10.8541C251.272 11.0361 251.695 11.2878 252.005 11.5047C251.855 11.8263 251.787 12.1571 251.787 12.5577V14.649C252.29 15.5054 252.873 15.7223 255.781 15.7223C257.097 15.7223 258.573 15.6653 259.891 15.5514ZM250.494 9.02563C250.298 8.47615 249.783 7.52788 249.327 6.94532L249.498 6.78544C250.963 7.17319 251.867 8.12331 251.867 8.60295C251.867 9.00357 251.421 9.42625 250.974 9.42625C250.711 9.42625 250.586 9.28842 250.494 9.02563ZM252.417 15.1287L252.233 14.9559C253.882 13.46 254.946 11.3577 255.347 8.36219L255.255 7.43781H253.182L253.103 7.01329H255.003L255.404 6.54468C255.724 6.76337 255.998 7.00226 256.262 7.26506C256.079 7.34592 255.884 7.45987 255.735 7.56277C256.125 10.5233 257.371 12.9106 259.718 14.0646C259.352 14.4193 259.112 14.7391 258.895 15.0938C258.836 15.1857 258.722 15.1967 258.643 15.1397C257.349 14.3054 256.446 12.9234 255.895 11.128C255.312 12.8425 254.145 14.2705 252.417 15.1287Z" fill="#231815"/>
<path d="M266.137 12.499C266.137 15.0479 265.117 17.312 263.4 18.637L263.218 18.4311C264.591 16.7515 265.106 14.888 265.106 12.499C265.106 10.1118 264.591 8.24831 263.218 6.56863L263.4 6.36279C265.117 7.68779 266.137 9.95189 266.137 12.499Z" fill="#231815"/>
<path d="M325.608 54.0514V55.7747H305.758V54.0514L310.138 53.7197C313.326 53.5207 313.658 53.0563 313.658 49.1453V15.3365C313.658 13.6796 313.193 13.0162 311.6 13.0162H304.229V11.5583C311.6 11.0275 314.586 9.70235 316.513 6.45312H317.774V49.1453C317.774 52.9899 318.106 53.587 321.226 53.7861L325.608 54.0514Z" fill="#231815"/>
<path d="M286.755 6.00122H285.54V58.065H286.755V6.00122Z" fill="#231815"/>
<path d="M23.7744 0H0V98H23.7744V0Z" fill="#231815"/>
<path d="M17.9131 35.4305L17.7035 35.7445H5.72211L5.64258 35.3643H16.2466L16.8636 34.6966C17.2576 34.9192 17.5854 35.155 17.9131 35.4305ZM7.37538 27.8828L7.3091 27.5026H14.7632L15.3537 26.8601C15.7345 27.0707 16.0634 27.3065 16.3779 27.5676L16.1683 27.8828H7.37538Z" fill="white"/>
<path d="M9.11992 40.2556C9.3308 40.3867 9.58023 40.5431 9.77665 40.7007C9.67181 40.9498 9.60554 41.1856 9.60554 41.5261V49.0606C9.35611 49.0738 8.95002 49.087 8.85845 49.087C8.81868 49.087 8.80543 49.0738 8.80543 49.0353V48.3928H6.92924V49.4937C6.67981 49.507 6.22071 49.519 6.18094 49.519C6.14118 49.519 6.12793 49.507 6.12793 49.4673V40.3205C6.41713 40.412 6.67981 40.4914 6.96782 40.6093H8.72713L9.11992 40.2556ZM6.92923 40.9498V44.2261H8.80541V40.9498H6.92923ZM8.80541 48.0655V44.5534H6.92923V48.0655H8.80541ZM17.7815 46.2174H15.7607V50.7378C15.7607 50.9219 15.6956 51.0783 15.5775 51.1842C15.3666 51.3539 14.9991 51.4586 14.6195 51.4586C14.5014 51.0531 14.3038 50.9087 12.3481 50.6596L12.336 50.4238C13.0964 50.4635 14.0544 50.5152 14.6581 50.5152C14.8943 50.5152 14.9473 50.4503 14.9473 50.3323V46.2174H9.8947L9.82963 45.8901H14.9473V44.0155H9.88145L9.81638 43.675H13.1097V41.5923H10.302L10.2357 41.2506H13.1097V39.1943L14.3038 39.2593C14.3038 39.3772 14.2773 39.4169 14.2255 39.4434L14.0026 39.5084C13.9363 39.5349 13.923 39.5613 13.923 39.6131V41.2506H15.7607L16.2595 40.7272C16.5608 40.8969 16.85 41.1074 17.1127 41.3168L16.9283 41.5923H13.923V43.675H16.5873L17.0861 43.1517C17.4007 43.3213 17.6766 43.5307 17.9393 43.7412L17.7549 44.0155H16.1414C16.1282 44.095 16.1017 44.1214 16.0631 44.1335L15.839 44.2129C15.7739 44.2394 15.7607 44.2779 15.7607 44.3176V45.8901H16.6668L17.1127 45.3656C17.4404 45.5617 17.6501 45.7193 17.9393 45.9419L17.7815 46.2174ZM12.5976 49.14C12.283 48.4975 11.6143 47.5674 10.866 46.9249L11.0106 46.7805C12.4011 47.3581 13.3459 48.5504 13.3459 48.9042C13.3459 49.14 13.1097 49.3626 12.8735 49.3626C12.7421 49.3626 12.6638 49.2832 12.5976 49.14Z" fill="white"/>
<path d="M7.24347 59.187V66.8526C6.99404 66.8658 6.58795 66.8911 6.49517 66.8911C6.45661 66.8911 6.44336 66.879 6.44336 66.8393V54.9409C6.70604 55.0203 7.06032 55.1502 7.33506 55.2682H10.1439L10.55 54.8892C10.7741 55.0203 11.0356 55.2032 11.2465 55.3741C11.1284 55.6351 11.0489 55.871 11.0489 56.2777V59.6322C10.7994 59.6454 10.3934 59.6719 10.3018 59.6719C10.262 59.6719 10.2488 59.6586 10.2488 59.6189V59.187H7.24347ZM7.24347 55.5966V57.0513H10.2487V55.5966H7.24347ZM10.2487 58.8597V57.3786H7.24347V58.8597H10.2487ZM13.5167 60.4058L14.159 60.8245C14.0541 61.0604 14.0023 61.2962 14.0023 61.585V65.5423C13.7529 65.5555 13.3589 65.5808 13.2673 65.5808C13.2275 65.5808 13.2143 65.5688 13.2143 65.529V64.9912H10.2487V65.5688C9.99932 65.5808 9.55346 65.6073 9.5137 65.6073C9.47393 65.6073 9.46189 65.594 9.46189 65.5555V60.4576C9.74988 60.537 10.0126 60.6284 10.3018 60.7463H13.136L13.5167 60.4058ZM10.2487 61.0736V62.6859H13.2143V61.0736H10.2487ZM13.2143 64.6639V63.0131H10.2487V64.6639H13.2143ZM17.3354 55.3873C17.1775 55.6881 17.1257 55.9504 17.1257 56.2644V66.1451C17.1257 66.3147 17.0594 66.4591 16.9413 66.5638C16.7582 66.7214 16.3907 66.8129 16.0231 66.8129C15.9183 66.4326 15.7604 66.3015 14.2771 66.1054L14.2518 65.8695C14.8687 65.9093 15.5893 65.9345 16.0496 65.9345C16.2593 65.9345 16.3111 65.8828 16.3111 65.7781V59.187H13.1889V59.6057C12.9395 59.6189 12.519 59.6322 12.4274 59.6322C12.3876 59.6322 12.3744 59.6189 12.3744 59.5804V54.9541L13.2407 55.2682H16.2063L16.6135 54.8892C16.8497 55.0323 17.139 55.2164 17.3354 55.3873ZM13.189 55.5966V57.0513H16.3111V55.5966H13.189ZM16.3111 58.8597V57.3653H13.189V58.8597H16.3111Z" fill="white"/>
<path d="M53.3949 90.1886L59.0801 95.863L58.7456 96.2153L53.0444 90.5202L47.3431 96.2153L47.0087 95.8814L52.71 90.1886L46.9902 84.4775L47.3431 84.1274L53.0444 89.8386L58.7456 84.1459L59.0985 84.4775L53.3949 90.1886ZM48.1111 91.2733C47.5091 91.2733 47.0086 90.7736 47.0086 90.1702C47.0086 89.5715 47.5091 89.0694 48.1111 89.0694C48.713 89.0694 49.2158 89.5715 49.2158 90.1702C49.2158 90.7736 48.713 91.2733 48.1111 91.2733ZM51.9396 85.2466C51.9396 84.6433 52.4424 84.1459 53.0443 84.1459C53.6463 84.1459 54.1491 84.6433 54.1491 85.2466C54.1491 85.8454 53.6302 86.3474 53.0443 86.3474C52.4585 86.3474 51.9396 85.8454 51.9396 85.2466ZM54.1491 95.1307C54.1491 95.7294 53.6463 96.2314 53.0443 96.2314C52.4424 96.2314 51.9396 95.7294 51.9396 95.1307C51.9396 94.5273 52.4424 94.0299 53.0443 94.0299C53.6463 94.0299 54.1491 94.5273 54.1491 95.1307ZM59.1146 90.1702C59.1146 90.7736 58.628 91.2733 58.0099 91.2733C57.3918 91.2733 56.9075 90.7736 56.9075 90.1702C56.9075 89.5715 57.4079 89.0694 58.0099 89.0694C58.6118 89.0694 59.1146 89.5715 59.1146 90.1702Z" fill="#231815"/>
<path d="M72.7707 82.3403V82.893H68.5409V92.6435H67.9043V82.3403H72.7707Z" fill="#231815"/>
<path d="M89.7568 92.1599C89.5561 92.4409 89.4039 92.7264 89.3048 92.9751C89.254 93.0765 89.1871 93.1087 89.1041 93.0949C88.6705 92.9936 88.2346 92.8761 87.8172 92.7264C87.7341 92.9613 87.6995 93.1778 87.6995 93.4587V97.6362C87.3813 97.65 86.8623 97.6846 86.747 97.6846C86.6963 97.6846 86.6963 97.6684 86.6963 97.6178V96.8164H83.6704V97.6684C83.3521 97.6846 82.7847 97.7191 82.734 97.7191C82.6833 97.7191 82.6671 97.7007 82.6671 97.65V92.0586C83.0338 92.1599 83.3521 92.2751 83.7211 92.427H86.5948L86.747 92.2935C85.241 91.5888 83.9379 90.6054 83.0846 89.4517H80.7598C79.7242 90.6722 78.4695 91.6256 76.9151 92.3418L77.148 92.427H79.8741L80.3585 91.9895C80.6099 92.1415 80.9281 92.3418 81.1611 92.5238C81.0273 92.8278 80.9604 93.1087 80.9604 93.4587V97.6362C80.6445 97.65 80.1578 97.6846 80.0402 97.6846C79.9917 97.6846 79.9756 97.6684 79.9756 97.6178V96.8164H77.0811V97.6684C76.7652 97.6846 76.1793 97.7191 76.1448 97.7191C76.0963 97.7191 76.0779 97.7007 76.0779 97.65V92.6942C75.4921 92.9245 74.874 93.1087 74.2051 93.293L74.0391 93.0442C74.7748 92.7771 75.4436 92.4754 76.0779 92.1599V92.0586L76.2116 92.0908C77.5493 91.3907 78.6379 90.5387 79.5743 89.4517H74.3573L74.272 89.0372H79.9249C80.2593 88.6019 80.5753 88.1344 80.8774 87.6186C80.5591 87.6324 80.0909 87.6508 79.9917 87.6508C79.941 87.6508 79.9249 87.6324 79.9249 87.5817V87.181H76.9635V87.6324C76.6475 87.6508 76.0617 87.6831 76.0271 87.6831C75.9787 87.6831 75.9626 87.667 75.9626 87.6186V82.9921C76.3293 83.0911 76.6475 83.2109 77.0142 83.3582H79.8234L80.3077 82.9437C80.5591 83.0911 80.8774 83.2753 81.1103 83.4596C80.9765 83.7589 80.9281 84.0445 80.9281 84.3761V87.5334L81.3294 86.7665L82.7155 87.181V82.9921C83.0845 83.0911 83.4028 83.2109 83.7695 83.3582H86.7124L87.199 82.9253C87.4481 83.0773 87.7664 83.2753 88.0017 83.4596C87.8679 83.7589 87.8171 84.0445 87.8171 84.3761V87.5679C87.4989 87.5817 86.9799 87.6001 86.8623 87.6001C86.8139 87.6001 86.8139 87.5817 86.8139 87.5334V87.181H83.7211V87.6001C83.4028 87.6186 82.817 87.6324 82.7847 87.6324C82.734 87.6324 82.7155 87.6186 82.7155 87.5679V87.2823C82.6833 87.3514 82.6325 87.3837 82.5818 87.3837L82.2981 87.3998C82.2312 87.4159 82.1805 87.4159 82.1482 87.485C81.8299 88.0331 81.4793 88.5535 81.1103 89.0372H87.7157L88.3684 88.3186C88.7697 88.5535 89.1549 88.8207 89.4893 89.1016L89.254 89.4517H83.5366C84.9412 90.8058 87.2636 91.8421 89.7568 92.1599ZM79.9249 86.7665V83.7774H76.9635V86.7665H79.9249ZM77.0811 92.8416V96.3972H79.9756V92.8416H77.0811ZM86.6963 96.3972V92.8416H83.6704V96.3972H86.6963ZM83.7211 83.7774V86.7665H86.8139V83.7774H83.7211Z" fill="#231815"/>
<path d="M95.0888 97.3827C95.0888 97.5992 94.7729 97.9032 94.5376 97.9032C94.3715 97.9032 94.27 97.8341 94.0694 97.4657C93.5851 96.5998 92.681 95.3792 91.4609 94.4443L91.6777 94.2117C93.1169 94.9785 94.1686 95.9642 94.7382 96.7011C95.0219 97.0834 95.0888 97.2354 95.0888 97.3827Z" fill="#231815"/>
<path d="M113.673 96.3005C114.074 96.5169 114.459 96.7657 114.794 97.0328L114.575 97.3828H99.2422L99.1592 96.9683H106.415V94.9648H100.831L100.748 94.5457H106.415V93.0442L107.937 93.1271C107.937 93.2768 107.886 93.3113 107.822 93.3436L107.554 93.4449C107.469 93.4771 107.453 93.5094 107.453 93.5785V94.5457H111.533L112.167 93.8778C112.568 94.0943 112.937 94.3453 113.272 94.6125L113.039 94.9648H107.453V96.9683H113.02L113.673 96.3005ZM99.2422 85.2466L99.4106 85.0301C100.698 85.2144 101.618 85.698 101.968 86.0641C102.22 86.3313 101.918 86.9323 101.551 86.9323C101.417 86.9323 101.332 86.8655 101.267 86.7803C100.797 86.246 100.063 85.6289 99.2422 85.2466ZM100.681 90.1886C101.567 88.5858 102.586 86.5984 103.456 84.8459L103.691 85.0117C102.921 86.7987 102.051 88.869 101.401 90.64C101.332 90.8242 101.316 90.9394 101.417 91.1052C101.701 91.6256 101.885 92.1415 101.918 92.5422C101.936 92.8415 101.599 93.0764 101.267 93.0764C101.064 93.0764 100.965 92.9613 100.93 92.7586C100.681 91.4552 100.312 90.5709 99.3437 89.8386L99.5282 89.6221C99.8949 89.804 100.213 90.0228 100.497 90.2208C100.58 90.2715 100.631 90.2715 100.681 90.1886ZM100.28 82.7088L100.446 82.4923C101.768 82.7088 102.72 83.2246 103.089 83.5931C103.357 83.8602 103.038 84.4613 102.669 84.4613C102.536 84.4613 102.453 84.3945 102.386 84.3116C101.901 83.7451 101.133 83.1256 100.28 82.7088ZM106.5 89.705C105.596 90.8725 104.526 91.7592 103.089 92.4754L102.889 92.275C104.076 91.3907 104.962 90.3866 105.746 88.968L107.068 89.4033C107.035 89.5369 107.001 89.5714 106.934 89.5852L106.634 89.6037C106.567 89.6221 106.549 89.6359 106.5 89.705ZM103.089 86.7665C105.329 85.6634 106.985 84.2425 108.255 82.3403L109.711 82.6259C109.695 82.7733 109.644 82.8101 109.577 82.8239L109.159 82.9069C110.479 84.261 112.619 85.3802 114.842 85.8454C114.626 86.1632 114.476 86.4487 114.358 86.7158C114.307 86.831 114.208 86.8494 114.125 86.8172C112.084 86.1125 110.128 84.7953 108.94 83.174C107.437 84.9104 105.612 86.1816 103.255 86.9991L103.089 86.7665ZM114.173 88.1344L113.957 88.4683H109.243V91.925C109.243 92.1414 109.192 92.3418 109.026 92.4754C108.79 92.6757 108.389 92.777 107.886 92.777C107.787 92.3257 107.603 92.2082 106.032 91.9894L105.997 91.7085C106.65 91.7407 107.421 91.773 107.905 91.773C108.154 91.773 108.239 91.7085 108.239 91.5749V88.4683H103.523L103.44 88.0676H108.239V86.4487H105.548L105.479 86.0296H110.313L110.898 85.4308C111.249 85.6289 111.6 85.8454 111.899 86.0987L111.683 86.4487H109.243V88.0676H112.536L113.138 87.4482C113.505 87.6508 113.858 87.8857 114.173 88.1344ZM114.125 91.6901C114.125 91.9895 113.841 92.2566 113.574 92.2566C113.422 92.2566 113.339 92.1737 113.237 92.0263C112.72 91.2387 111.632 90.0366 110.529 89.2352L110.714 89.0371C112.686 89.7694 114.125 91.2571 114.125 91.6901Z" fill="#231815"/>
<path d="M121.9 93.095C121.732 93.095 121.632 93.0098 121.565 92.8417C121.18 91.9412 120.696 90.9901 120.059 90.1058V97.9357C119.741 97.9518 119.225 97.9863 119.107 97.9863C119.056 97.9863 119.04 97.9679 119.04 97.9172V91.1398C118.288 92.8278 117.25 94.2787 115.979 95.414L115.763 95.1952C117.151 93.5095 118.221 91.2895 118.772 88.853H115.963L115.88 88.4339H119.04V82.3589L120.528 82.4418C120.528 82.5915 120.495 82.626 120.428 82.6583L120.161 82.7596C120.078 82.7918 120.059 82.8241 120.059 82.8932V88.4339H121.499L122.117 87.7845C122.518 88.0332 122.769 88.2013 123.136 88.4846L122.935 88.8531H120.059V89.6222C121.397 90.4236 122.25 91.5244 122.435 92.441C122.502 92.7772 122.184 93.095 121.9 93.095ZM117.402 87.3331C117.234 86.1494 116.983 84.9289 116.565 83.8281L116.798 83.7268C117.702 84.694 118.237 86.0297 118.32 87.066C118.355 87.3999 118.053 87.6325 117.735 87.6325C117.536 87.6325 117.435 87.5335 117.402 87.3331ZM120.811 87.667L120.562 87.5496C121.047 86.3314 121.48 84.9289 121.766 83.561L123.12 84.1091C123.085 84.2426 123.037 84.2795 122.97 84.2795H122.753C122.702 84.2795 122.652 84.2795 122.636 84.3278C122.149 85.4309 121.549 86.6146 120.811 87.667ZM131.563 92.2751L129.105 92.8094V97.9172C128.789 97.9356 128.254 97.9518 128.136 97.9518C128.085 97.9518 128.069 97.9356 128.069 97.885V93.0259L121.999 94.2971L121.833 93.9102L128.069 92.5929V82.4233L129.592 82.5062C129.592 82.6582 129.541 82.7089 129.474 82.7411L129.206 82.8241C129.123 82.8586 129.105 82.8931 129.105 82.9576V92.3765L130.076 92.16L130.528 91.3402C130.945 91.4922 131.363 91.6741 131.732 91.8929L131.563 92.2751ZM123.353 88.1852L123.537 88.001C125.41 88.784 126.748 90.3868 126.748 90.8566C126.748 91.1559 126.464 91.4415 126.18 91.4415C126.012 91.4415 125.913 91.3401 125.83 91.1743C125.378 90.3038 124.407 89.0511 123.353 88.1852ZM124.006 84.2104L124.19 84.0124C126.012 84.7286 127.301 86.2646 127.301 86.7159C127.301 87.0153 127.015 87.2824 126.732 87.2824C126.563 87.2824 126.464 87.1995 126.381 87.0337C125.945 86.2139 125.027 85.0302 124.006 84.2104Z" fill="#231815"/>
<path d="M136.931 97.3827C136.931 97.5992 136.615 97.9032 136.379 97.9032C136.213 97.9032 136.112 97.8341 135.911 97.4657C135.427 96.5998 134.523 95.3792 133.303 94.4443L133.52 94.2117C134.959 94.9785 136.01 95.9642 136.58 96.7011C136.864 97.0834 136.931 97.2354 136.931 97.3827Z" fill="#231815"/>
<path d="M155.464 93.2768C155.464 95.1629 154.06 96.517 151.986 96.517C150.499 96.517 149.362 95.7294 148.877 94.0437L149.145 93.9285C149.68 95.2319 150.649 95.7478 151.769 95.7478C153.409 95.7478 154.41 94.7299 154.41 93.2607C154.41 91.8237 153.442 90.6054 151.518 90.6054C150.282 90.6054 148.893 91.1881 147.54 92.0079C147.54 93.6291 147.572 95.3471 147.572 95.9481C147.572 96.7334 147.171 97.2354 146.553 97.2354C146.419 97.2354 146.25 97.0512 146.084 96.8992C145.632 96.4824 144.645 95.8146 143.476 95.0984C143.275 95.3148 143.109 95.4484 142.906 95.4484C142.456 95.4484 141.854 94.8635 141.854 94.1956C141.854 93.993 141.905 93.811 142.104 93.6429C142.307 94.1127 142.556 94.2601 142.756 94.2601C142.89 94.2601 143.058 94.2118 143.342 94.0114C144.378 93.2929 145.482 92.5237 146.603 91.8559V90.6906C146.603 90.0228 146.619 89.051 146.636 88.0838C146.202 88.1528 145.785 88.2012 145.416 88.2012C144.329 88.2012 143.593 87.9179 142.574 86.6145L142.791 86.398C143.76 87.333 144.396 87.4666 145.249 87.4666C145.667 87.4666 146.151 87.4159 146.652 87.3146C146.686 85.9144 146.737 84.6432 146.737 84.2932C146.737 83.8418 146.67 83.6599 145.9 83.5931C146.052 83.2753 146.32 83.0911 146.737 83.0911C147.438 83.0911 147.957 83.4273 147.957 83.6944C147.957 83.8787 147.807 84.0606 147.756 84.5787C147.69 85.2143 147.657 86.1309 147.623 87.0843C148.158 86.9323 148.693 86.7319 149.193 86.5132C149.798 86.246 150.03 86.0802 150.282 85.7624C151.018 85.9651 151.2 86.1493 151.2 86.2967C151.2 86.4993 151.018 86.7158 149.83 87.1672C149.06 87.4666 148.292 87.7015 147.588 87.8857C147.556 89.0026 147.54 90.1057 147.54 90.8564V91.34C148.944 90.6054 150.349 90.0711 151.703 90.0711C154.127 90.0711 155.464 91.5243 155.464 93.2768ZM146.587 92.6251C145.667 93.2423 144.797 93.9446 143.995 94.5963L143.727 94.8312C144.779 95.4139 146.218 96.0817 146.384 96.0817C146.486 96.0817 146.536 96.0334 146.552 95.7985L146.587 92.6251ZM156.652 88.0331C156.652 88.268 156.318 88.5167 156.05 88.5167C155.882 88.5167 155.799 88.42 155.683 88.1667C155.014 86.7159 153.993 86.048 152.454 86.0296V85.7486C152.722 85.7118 152.939 85.698 153.241 85.698C154.461 85.698 155.732 86.2461 156.435 87.4666C156.585 87.7338 156.652 87.8857 156.652 88.0331Z" fill="#231815"/>
<path d="M174.341 90.5894C174.108 90.9072 173.94 91.2066 173.806 91.4922C173.755 91.6073 173.672 91.6395 173.573 91.6073C170.764 90.7391 168.137 88.9544 166.601 86.7989C164.525 89.1524 161.984 90.8566 158.674 91.9067L158.506 91.658C161.751 90.29 164.159 88.4339 165.965 85.9145L167.42 86.2462C167.385 86.3797 167.335 86.4304 167.27 86.4488L166.968 86.4811C166.901 86.4995 166.869 86.4811 166.818 86.5501C168.49 88.4201 171.315 89.9723 174.341 90.5894ZM158.674 84.4614H163.356V82.3589L164.878 82.4418C164.878 82.5915 164.828 82.626 164.761 82.6583L164.493 82.7596C164.41 82.7918 164.392 82.8241 164.392 82.8932V84.4615H168.389V82.3589L169.895 82.4418C169.895 82.5915 169.86 82.626 169.793 82.6583L169.509 82.7596C169.426 82.7919 169.41 82.8241 169.41 82.8932V84.4615H172.353L173.022 83.7453C173.439 83.9756 173.806 84.2427 174.157 84.5467L173.924 84.8967H169.41V86.8173C169.092 86.8311 168.573 86.8496 168.455 86.8496C168.405 86.8496 168.389 86.8311 168.389 86.7805V84.8967H164.392V86.8173C164.076 86.8311 163.541 86.8496 163.423 86.8496C163.372 86.8496 163.356 86.8311 163.356 86.7805V84.8967H158.757L158.674 84.4614ZM163.072 92.8923L164.461 93.3759C164.426 93.5095 164.375 93.5279 164.309 93.544L164.009 93.5602C163.942 93.5786 163.926 93.5786 163.875 93.6431C162.786 95.2805 161.449 96.5816 159.645 97.5995L159.442 97.4014C160.983 96.1993 162.101 94.7945 163.072 92.8923ZM166.85 91.9412V97.9357C166.532 97.9518 165.997 97.9863 165.882 97.9863C165.831 97.9863 165.815 97.9679 165.815 97.9173V91.9412H161.165L161.082 91.5244H165.815V88.6504L167.335 88.7356C167.335 88.8853 167.302 88.9175 167.235 88.9544L166.952 89.0511C166.869 89.088 166.85 89.1202 166.85 89.1847V91.5244H169.911L170.545 90.8244C170.946 91.0408 171.315 91.308 171.65 91.5889L171.433 91.9413L166.85 91.9412ZM172.904 96.7842C172.904 97.102 172.586 97.4014 172.302 97.4014C172.134 97.4014 172.035 97.3185 171.933 97.1343C171.299 96.0335 169.945 94.3109 168.573 93.1779L168.758 92.9752C171.115 94.1267 172.904 96.25 172.904 96.7842Z" fill="#231815"/>
<path d="M180.412 87.7014V98H175.546V97.4519H179.794V87.7014H180.412Z" fill="#231815"/>
<path d="M198.06 90.2046C198.06 93.3757 195.484 96.1668 190 96.7011L189.85 96.3649C194.831 95.3976 196.956 93.0441 196.956 90.1701C196.956 87.7152 195.401 85.3962 191.923 85.3962C191.704 85.3962 191.487 85.4123 191.287 85.4307C191.789 85.6472 191.939 85.8453 191.939 86.1815C191.939 87.2823 190.551 91.4735 189.264 93.6106C188.678 94.5778 188.06 95.1121 187.525 95.1121C186.171 95.1121 184.85 93.2928 184.85 91.2732C184.85 88.1344 187.825 84.8274 192.105 84.8274C196.204 84.8274 198.06 87.3652 198.06 90.2046ZM190.669 85.5298C187.709 86.1492 185.802 88.8528 185.802 91.188C185.802 92.7908 186.755 94.0297 187.442 94.0297C187.76 94.0297 188.06 93.7119 188.461 93.0948C189.681 91.188 190.92 87.1165 190.92 86.1492C190.92 85.8453 190.885 85.6979 190.669 85.5298Z" fill="#231815"/>
<path d="M214.929 93.2768C214.929 95.1629 213.524 96.517 211.451 96.517C209.963 96.517 208.826 95.7294 208.342 94.0437L208.61 93.9285C209.145 95.2319 210.113 95.7478 211.234 95.7478C212.872 95.7478 213.877 94.7299 213.877 93.2607C213.877 91.8237 212.906 90.6054 210.983 90.6054C209.747 90.6054 208.358 91.1881 207.004 92.0079C207.004 93.6291 207.037 95.3471 207.037 95.9481C207.037 96.7334 206.635 97.2354 206.017 97.2354C205.884 97.2354 205.718 97.0512 205.549 96.8992C205.097 96.4824 204.112 95.8146 202.941 95.0984C202.74 95.3148 202.572 95.4484 202.373 95.4484C201.921 95.4484 201.319 94.8635 201.319 94.1956C201.319 93.993 201.368 93.811 201.571 93.6429C201.769 94.1127 202.02 94.2601 202.221 94.2601C202.355 94.2601 202.523 94.2118 202.807 94.0114C203.845 93.2929 204.947 92.5237 206.068 91.8559V90.6906C206.068 90.0228 206.084 89.051 206.1 88.0838C205.667 88.1528 205.247 88.2012 204.88 88.2012C203.794 88.2012 203.058 87.9179 202.037 86.6145L202.256 86.398C203.224 87.333 203.861 87.4666 204.712 87.4666C205.132 87.4666 205.616 87.4159 206.119 87.3146C206.151 85.9144 206.202 84.6432 206.202 84.2932C206.202 83.8418 206.135 83.6599 205.365 83.5931C205.515 83.2753 205.782 83.0911 206.202 83.0911C206.903 83.0911 207.422 83.4273 207.422 83.6944C207.422 83.8787 207.272 84.0606 207.221 84.5787C207.154 85.2143 207.12 86.1309 207.088 87.0843C207.623 86.9323 208.158 86.7319 208.66 86.5132C209.26 86.246 209.495 86.0802 209.747 85.7624C210.482 85.9651 210.667 86.1493 210.667 86.2967C210.667 86.4993 210.482 86.7158 209.295 87.1672C208.527 87.4666 207.756 87.7015 207.055 87.8857C207.021 89.0026 207.005 90.1057 207.005 90.8564V91.34C208.409 90.6054 209.814 90.0711 211.167 90.0711C213.591 90.0711 214.929 91.5243 214.929 93.2768ZM206.05 92.6251C205.132 93.2423 204.262 93.9446 203.46 94.5963L203.192 94.8312C204.246 95.4139 205.683 96.0817 205.851 96.0817C205.95 96.0817 206.001 96.0334 206.017 95.7985L206.05 92.6251ZM216.117 88.0331C216.117 88.268 215.782 88.5167 215.515 88.5167C215.349 88.5167 215.263 88.42 215.146 88.1667C214.477 86.7159 213.458 86.048 211.919 86.0296V85.7486C212.187 85.7118 212.406 85.698 212.706 85.698C213.926 85.698 215.197 86.2461 215.9 87.4666C216.05 87.7338 216.117 87.8857 216.117 88.0331Z" fill="#231815"/>
<path d="M221.317 86.8656L221.9 87.0153C221.884 87.1167 221.868 87.1996 221.783 87.218L221.55 87.2663C221.467 87.2825 221.451 87.3147 221.451 87.3999V97.9357C221.132 97.9518 220.597 97.9679 220.48 97.9679C220.429 97.9679 220.413 97.9518 220.413 97.9034V88.4201C219.744 89.4886 218.992 90.4881 218.155 91.407L217.922 91.225C219.693 88.7517 221.065 85.8316 222.05 82.3589L223.54 82.8103C223.506 82.9576 223.457 82.9922 223.388 83.0083L223.104 83.0405C223.037 83.059 223.005 83.059 222.97 83.1257C222.502 84.4269 221.935 85.6797 221.317 86.8656ZM233.305 97.2171C233.222 97.733 232.987 97.9679 232.652 97.9679C232.334 97.9679 231.933 97.7698 231.366 97.3185C229.225 95.6327 227.719 92.7587 226.917 88.3349L222.435 88.853L222.318 88.4339L226.85 87.918C226.582 86.283 226.4 84.4453 226.315 82.3727L227.871 82.4579C227.871 82.6076 227.837 82.6582 227.77 82.6905L227.486 82.7918C227.401 82.8241 227.385 82.8102 227.385 82.9576C227.452 84.7447 227.62 86.3475 227.853 87.8006L231.751 87.3654L232.334 86.5501C232.786 86.7482 233.204 86.9647 233.589 87.218L233.388 87.6002L227.92 88.2174C228.656 92.2751 230.044 94.9649 231.933 96.448C232.117 96.5815 232.217 96.6322 232.286 96.6322C232.334 96.6322 232.35 96.6 232.385 96.5171C232.735 95.6466 233.07 94.7116 233.372 93.7628L233.656 93.8457C233.439 94.7945 233.238 95.6811 233.088 96.6644C233.054 96.8993 233.105 97.0513 233.305 97.2171ZM228.722 83.1096L228.891 82.907C230.78 83.4781 232.101 84.8276 232.101 85.2628C232.101 85.5645 231.799 85.8639 231.532 85.8639C231.366 85.8639 231.28 85.7625 231.181 85.6152C230.713 84.8782 229.76 83.8281 228.722 83.1096Z" fill="#231815"/>
<path d="M250.592 88.5352C250.34 88.8345 250.156 89.1201 250.022 89.4033C249.974 89.5208 249.872 89.5369 249.789 89.5024C246.945 88.2496 244.355 85.9144 242.884 83.2937C240.877 86.1816 238.301 88.3002 234.823 89.7188L234.639 89.4885C237.9 87.7844 240.308 85.5298 242.18 82.3403L243.636 82.8424C243.601 82.9759 243.569 83.0082 243.486 83.0266H243.168C243.151 83.0266 243.135 83.0404 243.117 83.0404C244.757 85.3963 247.515 87.5173 250.592 88.5352ZM248.684 96.0656C249.104 96.3005 249.455 96.5492 249.805 96.8348L249.588 97.1848H235.51L235.425 96.7496H242.047V91.3401H236.027L235.944 90.9071H242.047V88.3002H238.702L238.619 87.8673H244.906L245.543 87.2179C245.926 87.4343 246.276 87.6831 246.613 87.9502L246.378 88.3002H243.101V90.9071H247.48L248.133 90.2208C248.534 90.4557 248.92 90.7044 249.254 90.99L249.021 91.34H243.101V96.7495H248.015L248.684 96.0656ZM239.406 95.8146C239.088 94.647 238.603 93.4265 237.9 92.358L238.117 92.2244C239.438 93.1087 240.225 94.3937 240.391 95.43C240.441 95.7985 240.107 96.1163 239.773 96.1163C239.572 96.1163 239.454 96.0149 239.406 95.8146ZM244.505 96.0978C245.19 94.8957 245.792 93.5094 246.244 92.123L247.716 92.708C247.683 92.8415 247.649 92.8922 247.566 92.8922L247.282 92.8761C247.231 92.8761 247.181 92.8761 247.148 92.9429C246.496 94.0298 245.709 95.2458 244.773 96.2498L244.505 96.0978Z" fill="#231815"/>
<path d="M261.462 90.7044C261.462 92.9428 260.943 95.4299 259.672 96.5998C259.271 96.9682 258.787 97.1018 258.166 97.1018C258 97.1018 257.915 97.0327 257.882 96.9176C257.765 96.5491 257.23 96.282 255.959 95.849L256.01 95.5312C257.08 95.849 258.032 96.0471 258.434 96.0471C258.653 96.0471 258.819 95.9826 259.019 95.8145C259.99 94.9463 260.525 92.6941 260.525 90.6721C260.525 89.0186 260.14 88.2679 258.886 88.2679C258.535 88.2679 258.118 88.3001 257.647 88.3508C256.711 91.188 255.507 94.1771 254.338 96.0977C253.853 96.883 253.586 97.2354 253.334 97.2354C253.168 97.2354 252.85 96.8991 252.85 96.5491C252.85 96.3649 253.134 96.1161 253.484 95.5957C254.621 93.91 255.793 91.1396 256.646 88.4844C255.86 88.6179 255.041 88.8022 254.255 89.0509C253.886 89.1706 253.703 89.3871 253.5 89.3871C253.083 89.3871 252.682 88.7354 252.682 88.2679C252.682 87.9685 252.783 87.752 253.016 87.5678C253.233 88.185 253.401 88.2863 253.685 88.2863C254.105 88.2863 255.458 88.0675 256.828 87.8994C257.181 86.748 257.465 85.6288 257.647 84.6616C257.698 84.376 257.716 84.2102 257.716 84.0766C257.716 83.8924 257.615 83.7588 256.978 83.6943C257.131 83.3443 257.481 83.1923 257.882 83.1923C258.567 83.1923 259.086 83.5746 259.086 83.8417C259.086 84.0444 258.851 84.2102 258.717 84.7629C258.484 85.6979 258.166 86.7157 257.832 87.7843C258.284 87.752 258.717 87.7152 259.086 87.7152C260.825 87.7152 261.462 88.5166 261.462 90.7044ZM266.577 91.8927C266.577 92.4269 266.494 92.8276 266.31 93.0948C266.058 93.4771 265.657 93.6774 265.373 93.6774C265.256 93.6774 265.189 93.6613 265.138 93.56C264.988 93.2767 264.654 93.1086 263.835 93.0764L263.801 92.8092C264.354 92.777 264.871 92.7263 265.173 92.6572C265.456 92.5927 265.609 92.3417 265.609 91.8236C265.609 90.3543 264.421 88.1666 262.062 87.2661L262.179 86.9829C265.24 87.7843 266.577 90.1563 266.577 91.8927ZM262.848 84.0122L262.998 83.8095C264.003 84.2286 264.654 84.8619 265.004 85.3962C265.173 85.6288 265.189 85.7486 265.189 85.8637C265.189 86.0479 264.905 86.2828 264.721 86.2828C264.603 86.2828 264.504 86.2137 264.405 85.9788C264.137 85.3801 263.618 84.5948 262.848 84.0122ZM266.829 84.9103C266.829 85.0945 266.561 85.311 266.361 85.311C266.243 85.311 266.125 85.2465 266.026 85.03C265.742 84.3944 265.256 83.6253 264.488 83.0588L264.638 82.8584C265.625 83.2936 266.278 83.9108 266.628 84.4267C266.794 84.6616 266.829 84.7951 266.829 84.9103Z" fill="#231815"/>
<path d="M284.817 87.2664C284.584 87.5818 284.416 87.8674 284.282 88.153C284.234 88.2681 284.132 88.2865 284.049 88.2497C281.291 87.3009 278.664 85.4448 277.11 83.2593C275.02 85.6981 272.412 87.4483 269.017 88.503L268.851 88.2359C272.144 86.8495 274.603 84.9473 276.406 82.3589L277.928 82.6905C277.896 82.8425 277.845 82.8747 277.778 82.8932L277.476 82.9254C277.412 82.9438 277.377 82.9438 277.326 83.0083C279.033 84.9105 281.842 86.5502 284.817 87.2664ZM281.406 91.9896C281.674 92.1416 282.008 92.3765 282.26 92.5745C282.11 92.8923 282.043 93.1779 282.043 93.5786V97.9034C281.708 97.9173 281.173 97.9518 281.056 97.9518C281.005 97.9518 280.989 97.9357 280.989 97.885V97.1159H272.695V97.9173C272.361 97.9357 271.775 97.9679 271.724 97.9679C271.676 97.9679 271.641 97.9518 271.641 97.9034V92.0748C272.026 92.1923 272.377 92.3074 272.762 92.4594H278.364C279.033 91.407 279.568 90.4236 280.069 89.3044H271.526L271.441 88.8853H280.069L280.553 88.4524C280.871 88.6873 281.157 88.9175 281.441 89.2031C281.256 89.4035 281.088 89.6545 280.906 90.0045C280.553 90.6908 280.069 91.5751 279.501 92.4594H280.89L281.406 91.9896ZM280.989 96.6829V92.8762H272.695V96.6829H280.989ZM280.069 87.1489H273.38L273.297 86.7321H278.581L279.215 86.0643C279.6 86.283 279.969 86.5317 280.304 86.7989L280.069 87.1489Z" fill="#231815"/>
<path d="M293.344 89.8707C294.262 89.7372 295.268 89.5207 296.319 89.2536C296.739 89.1522 296.972 89.0371 297.205 88.77C297.943 89.0025 298.077 89.1707 298.077 89.3042C298.077 89.5023 297.841 89.7188 296.937 89.9375C295.567 90.2714 294.396 90.5063 293.376 90.6537L293.545 93.811C295.099 94.1771 296.536 94.9463 297.892 96.0978C298.058 96.2498 298.125 96.3142 298.125 96.4662C298.125 96.7011 297.841 97.1018 297.606 97.1018C297.472 97.1018 297.408 97.0328 297.173 96.7978C296.135 95.7984 294.899 95.0615 293.577 94.6285V94.845C293.577 96.6159 292.86 97.5348 291.035 97.5348C289.179 97.5348 287.726 96.7495 287.726 95.4806C287.726 94.3614 288.911 93.5438 291.236 93.5438C291.688 93.5438 292.122 93.5784 292.558 93.629L292.44 90.755C291.838 90.8241 291.319 90.8564 290.853 90.8564C289.28 90.8564 288.026 90.755 287.491 88.8206L287.742 88.7193C288.427 90.0872 289.313 90.1056 290.634 90.1056C291.153 90.1056 291.739 90.0711 292.408 90.0043L292.341 87.2316C291.672 87.3007 291.035 87.3329 290.452 87.3329C289.064 87.3329 287.809 87.1487 286.672 85.5298L286.873 85.3478C288.076 86.5131 289.114 86.5822 290.249 86.5822C290.902 86.5822 291.587 86.5499 292.325 86.4647C292.306 85.6979 292.306 84.8965 292.306 84.0766C292.306 83.6114 292.191 83.441 291.338 83.3259C291.504 82.9759 291.79 82.8423 292.207 82.8423C292.994 82.8423 293.494 83.1601 293.494 83.441C293.494 83.6437 293.376 83.8417 293.36 84.2425C293.344 84.8619 293.326 85.5781 293.326 86.3151C294.331 86.1631 295.418 85.9144 296.536 85.5966C296.905 85.4952 297.157 85.3478 297.424 85.0807C298.176 85.2972 298.326 85.4446 298.326 85.5966C298.326 85.813 298.093 86.0295 297.173 86.2828C295.717 86.6835 294.447 86.9507 293.31 87.1165C293.31 88.0676 293.326 89.0187 293.344 89.8707ZM292.592 94.3798C292.073 94.2785 291.538 94.2117 291.003 94.2117C289.213 94.2117 288.344 94.7299 288.344 95.4299C288.344 96.282 289.465 96.7011 290.869 96.7011C292.122 96.7011 292.592 96.1669 292.592 94.8128L292.592 94.3798Z" fill="#231815"/>
<path d="M317.538 94.8449C316.671 95.8144 315.7 96.3648 314.697 96.3648C313.442 96.3648 312.723 95.6463 312.723 94.1955C312.723 91.842 312.958 89.47 312.958 88.0008C312.958 86.7319 312.723 86.0801 312.088 86.0801C311.186 86.0801 309.597 87.6185 307.123 90.4372C307.123 93.8962 307.155 95.5128 307.155 95.948C307.155 96.7978 306.772 97.2998 306.285 97.2998C306.119 97.2998 305.986 97.0166 305.767 96.7494C305.349 96.2497 304.632 95.5957 303.527 94.7459L303.41 94.914C303.294 95.0614 303.193 95.1121 303.075 95.1121C302.858 95.1121 302.54 94.7805 302.54 94.4788C302.54 94.3613 302.607 94.2116 302.741 94.0942C303.444 93.4264 304.715 91.8926 305.416 90.9392C305.785 90.4372 306.034 89.82 306.237 89.1844L306.286 87.8994C305.4 88.1021 304.613 88.3347 304.011 88.5673C303.811 88.6502 303.626 88.8206 303.476 88.8206C303.091 88.8206 302.607 88.2356 302.607 87.7336C302.607 87.4987 302.674 87.3145 302.858 87.1326C303.126 87.752 303.377 87.8165 303.645 87.8165C303.928 87.8165 305.049 87.5678 306.302 87.3145C306.352 85.9304 306.419 84.5464 306.419 84.1595C306.419 83.8095 306.269 83.593 305.568 83.4917C305.734 83.1923 305.97 83.0403 306.371 83.0403C307.155 83.0403 307.623 83.3926 307.623 83.6759C307.623 83.8095 307.506 83.9937 307.441 84.5095C307.372 84.9609 307.307 85.9143 307.238 86.9644C307.457 87.0658 307.658 87.3007 307.658 87.3997C307.658 87.5816 307.441 87.8165 307.222 88.3001L307.155 88.4521C307.139 88.8344 307.123 89.1844 307.123 89.5368C309.496 86.9322 311.085 85.3801 312.305 85.3801C313.442 85.3801 313.977 86.2966 313.977 88.0008C313.977 89.47 313.694 91.8558 313.694 94.1449C313.694 95.195 314.079 95.5635 314.881 95.5635C315.684 95.5635 316.519 95.2318 317.404 94.564L317.538 94.8449ZM306.202 95.7661C306.202 94.7943 306.219 92.9105 306.219 91.4735C305.434 92.3762 304.463 93.5438 303.728 94.4949C304.916 95.2802 305.986 95.8997 306.103 95.8997C306.186 95.8997 306.202 95.8812 306.202 95.7661Z" fill="#231815"/>
<path d="M332.585 85.3802C332.585 85.6635 332.368 85.9467 332.017 85.9467C330.963 85.9467 330.078 86.0642 329.575 86.3152C327.05 87.6002 325.412 89.7557 325.412 92.0402C325.412 94.4628 327.486 95.6649 329.776 95.6649C330.011 95.6649 330.161 95.6327 330.26 95.6327C330.511 95.6327 330.98 96.167 330.98 96.3973C330.98 96.6161 330.712 96.7496 330.062 96.7496C326.75 96.7496 324.46 94.9971 324.46 92.1922C324.46 89.8202 326.282 87.5818 328.673 86.2323V86.1977C326.533 86.4165 323.572 86.8817 321.45 87.4989C320.746 87.7015 320.596 87.9687 320.297 87.9687C319.778 87.9687 319.176 87.2179 319.176 86.5639C319.176 86.283 319.259 86.0481 319.494 85.8823C319.826 86.633 320.128 86.732 320.463 86.732C320.564 86.732 320.73 86.6975 320.982 86.6468C323.657 86.0642 326.683 85.6151 330.177 85.2628C330.661 85.2144 330.998 85.0624 331.416 84.7446C332.101 84.9104 332.585 85.1776 332.585 85.3802Z" fill="#231815"/>
<path d="M342.451 90.739L342.785 90.9393C342.082 92.4754 341.431 94.0943 341.094 95.0293C341.011 95.2642 340.945 95.5635 340.896 95.8629C340.845 96.1485 340.712 96.3005 340.41 96.3005C340.043 96.3005 339.575 96.1162 339.023 95.6649C337.568 94.495 336.883 92.5928 336.883 88.5858C336.883 88.1022 336.865 87.0152 336.849 86.6329C336.814 85.9789 336.715 85.7808 336.097 85.5966C336.247 85.3801 336.463 85.2788 336.731 85.2788C337.451 85.2788 338.103 85.797 338.103 86.1977C338.103 86.4809 337.836 87.1165 337.836 89.051C337.836 92.3579 338.371 93.9285 339.575 94.7944C339.775 94.9464 339.909 95.0132 340.024 95.0132C340.209 95.0132 340.444 94.647 342.451 90.739ZM349.824 92.7425C349.824 93.0442 349.506 93.2284 349.121 93.2284C348.888 93.2284 348.754 93.0948 348.719 92.7586C348.336 89.7049 347.199 87.5679 344.941 86.1815L345.126 85.896C348.05 87.0981 349.356 89.553 349.773 92.2427C349.808 92.4408 349.824 92.6573 349.824 92.7425Z" fill="#231815"/>
<path d="M359.571 89.8707C360.491 89.7372 361.492 89.5207 362.546 89.2536C362.963 89.1522 363.199 89.0371 363.434 88.77C364.167 89.0025 364.301 89.1707 364.301 89.3042C364.301 89.5023 364.068 89.7188 363.166 89.9375C361.794 90.2714 360.625 90.5063 359.603 90.6537L359.771 93.811C361.326 94.1771 362.765 94.9463 364.119 96.0978C364.285 96.2498 364.352 96.3142 364.352 96.4662C364.352 96.7011 364.068 97.1018 363.835 97.1018C363.701 97.1018 363.632 97.0328 363.399 96.7978C362.364 95.7984 361.125 95.0615 359.804 94.6285V94.845C359.804 96.6159 359.084 97.5348 357.262 97.5348C355.408 97.5348 353.952 96.7495 353.952 95.4806C353.952 94.3614 355.14 93.5438 357.463 93.5438C357.915 93.5438 358.351 93.5784 358.784 93.629L358.667 90.755C358.065 90.8241 357.548 90.8564 357.078 90.8564C355.507 90.8564 354.252 90.755 353.717 88.8206L353.969 88.7193C354.654 90.0872 355.542 90.1056 356.861 90.1056C357.38 90.1056 357.966 90.0711 358.634 90.0043L358.567 87.2316C357.899 87.3007 357.262 87.3329 356.676 87.3329C355.29 87.3329 354.035 87.1487 352.898 85.5298L353.099 85.3478C354.303 86.5131 355.339 86.5822 356.478 86.5822C357.128 86.5822 357.816 86.5499 358.549 86.4647C358.533 85.6979 358.533 84.8965 358.533 84.0766C358.533 83.6114 358.415 83.441 357.564 83.3259C357.73 82.9759 358.014 82.8423 358.434 82.8423C359.218 82.8423 359.721 83.1601 359.721 83.441C359.721 83.6437 359.603 83.8417 359.587 84.2425C359.571 84.8619 359.555 85.5781 359.555 86.3151C360.556 86.1631 361.644 85.9144 362.765 85.5966C363.132 85.4952 363.383 85.3478 363.651 85.0807C364.402 85.2972 364.552 85.4446 364.552 85.5966C364.552 85.813 364.319 86.0295 363.399 86.2828C361.944 86.6835 360.673 86.9507 359.536 87.1165C359.536 88.0676 359.555 89.0187 359.571 89.8707ZM358.817 94.3798C358.3 94.2785 357.765 94.2117 357.23 94.2117C355.44 94.2117 354.571 94.7299 354.571 95.4299C354.571 96.282 355.691 96.7011 357.096 96.7011C358.351 96.7011 358.817 96.1669 358.817 94.8128V94.3798Z" fill="#231815"/>
<path d="M382.628 86.5131C382.628 86.7158 382.344 87.0981 382.026 87.0658C380.806 86.9645 379.768 86.8655 378.331 86.8655C377.879 86.8655 377.395 86.8655 376.91 86.8816C376.876 88.0008 376.876 89.3042 376.91 90.5892C376.926 91.188 377.044 91.9572 377.044 92.6572C377.044 94.9647 375.656 97.1156 371.608 97.7835L371.458 97.4657C374.952 96.5998 375.923 94.6976 375.939 93.2606C375.605 93.7764 375.037 94.0942 374.267 94.0942C372.996 94.0942 371.926 93.2099 371.926 91.4736C371.926 89.7372 372.929 88.5857 374.401 88.5857C375.12 88.5857 375.639 88.9035 375.939 89.3365C375.939 88.6871 375.958 87.7843 375.958 86.9138C373.933 86.999 371.76 87.2178 369.804 87.5817C369.018 87.7337 368.884 87.9686 368.633 87.9686C368.231 87.9686 367.664 87.3145 367.664 86.748C367.664 86.4993 367.747 86.2644 367.964 86.0986C368.333 86.8493 368.683 86.9829 369.302 86.8816C371.375 86.5638 373.55 86.3657 375.958 86.246C375.958 85.2143 375.958 84.2931 375.939 83.9431C375.923 83.6115 375.84 83.3927 375.021 83.3259C375.187 82.9759 375.471 82.8101 375.939 82.8101C376.71 82.8101 377.194 83.1417 377.194 83.4088C377.194 83.5746 377.06 83.8095 377.028 84.2931L376.926 86.2137C377.964 86.1815 379.05 86.1631 380.188 86.1631C380.688 86.1631 380.956 86.0295 381.357 85.6634C382.194 85.9973 382.628 86.3312 382.628 86.5131ZM375.958 91.2571C375.958 90.0366 375.388 89.12 374.369 89.12C373.416 89.12 372.779 90.1056 372.779 91.3722C372.779 92.6089 373.398 93.1915 374.334 93.1915C375.203 93.1915 375.958 92.5099 375.958 91.2571Z" fill="#231815"/>
<path d="M375.996 35.9505C375.523 37.0017 375.26 37.9463 375.26 39.523V56.1287C374.207 56.1802 372.523 56.2335 372.155 56.2335C371.997 56.2335 371.943 56.1802 371.943 56.024V53.4493H349.999V56.1802C348.947 56.2335 347.263 56.2868 346.895 56.2868C346.736 56.2868 346.683 56.2335 346.683 56.0754V39.0507C342.052 41.9415 337.105 44.2 331.896 45.8301L331.37 45.0417C339.369 41.8882 346.946 37.2645 353.314 31.064H353.156C352.683 31.064 352.42 30.7479 352.105 30.3271C350.684 28.278 347.631 25.1263 344.789 23.0239L345.369 22.3403C350.999 24.1799 354.947 27.9637 354.947 29.1711C354.947 29.2244 354.893 29.3825 354.893 29.4339C358.997 25.1263 362.524 20.1332 365.366 14.4583H351.104C346.526 20.396 340.895 25.231 333.844 28.9083L333.211 28.2265C341.316 22.8126 347.368 15.9818 352.105 6.83911L356.631 8.20455C356.524 8.62538 356.419 8.78344 356.156 8.83673L355.21 8.88818C354.998 8.94147 354.893 8.94147 354.735 9.15098C353.894 10.5164 352.999 11.8304 352.105 13.0929H365.314L367.155 11.7256C368.207 12.514 369.209 13.4605 370.103 14.5116C369.682 14.8259 369.102 15.3 368.734 15.9304C364.103 23.8124 358.42 30.3271 351.842 35.425H371.68L373.155 34.0062C374.049 34.5318 375.155 35.2669 375.996 35.9505ZM371.943 52.0821V36.7903H349.999V52.0821H371.943Z" fill="#231815"/>
<path d="M396.477 34.9526C395.634 32.5341 394.477 30.0642 393.004 27.7009V56.1801C392.003 56.2334 390.424 56.3382 390.056 56.3382C389.897 56.3382 389.897 56.2867 389.897 56.1287V30.0642C388.004 35.5296 385.478 40.4694 382.215 44.5161L381.584 43.8857C385.425 37.5272 388.215 29.2244 389.529 20.5007H382.688L382.425 19.1353H389.897V7.15332L394.53 7.41612C394.53 7.89024 394.425 7.99501 394.213 8.09975L393.319 8.41584C393.056 8.52058 393.004 8.62534 393.004 8.83667V19.1353H395.634L397.423 17.1377C398.529 17.768 399.582 18.6097 400.528 19.3981L399.845 20.5007H393.004V26.1242C396.424 28.3313 398.581 31.483 399.002 33.9529C399.161 34.8993 398.266 35.6877 397.423 35.6877C396.95 35.6877 396.634 35.4249 396.477 34.9526ZM411.897 43.623C408.58 46.3538 403.896 49.4026 398.634 52.24C398.476 52.3448 398.371 52.2933 398.266 52.1868L396.687 49.4541C402.37 47.2488 407.739 44.8303 411.685 42.728L411.897 43.623ZM432 49.6121C431.262 50.5052 430.526 51.6097 430.158 52.2933C430 52.6076 429.736 52.7124 429.473 52.5561C422.947 49.3493 418.158 43.5697 415.475 34.4784V53.5007C415.475 54.2358 415.211 54.868 414.738 55.287C413.949 55.9706 412.528 56.3382 411.002 56.3382C410.581 54.8147 409.949 54.2891 403.37 53.4493L403.265 52.5028C405.897 52.6609 409.055 52.8171 411.107 52.8171C412.002 52.8171 412.211 52.6076 412.211 52.1353V31.3267H398.739L398.476 30.0128H412.211V23.9685H401.318L401.054 22.6563H412.211V16.6121H399.897L399.687 15.2999H408.58C408.212 15.1933 407.949 14.9305 407.791 14.5115C406.949 12.1997 405.633 9.78124 403.791 7.67888L404.422 7.20657C408.212 8.78334 410.369 11.3047 410.632 13.4071C410.739 14.3002 410.054 15.1419 409.211 15.2999H417.368C419.052 12.7767 420.58 9.88598 421.684 6.99707L426 8.88808C425.842 9.30892 425.737 9.41368 425.474 9.41368L424.789 9.36039C424.631 9.36039 424.474 9.36039 424.368 9.51842C422.737 11.516 420.948 13.5118 418.843 15.2999H424.738L426.631 13.3556C427.789 13.9859 428.893 14.7743 429.895 15.5627L429.21 16.6121H415.475V22.6563H422.79L424.631 20.712C425.789 21.3424 426.841 22.0775 427.789 22.8658L427.104 23.9685H415.475V30.0127H426.263L428.262 27.9637C429.473 28.6455 430.577 29.4338 431.63 30.2755L430.947 31.3267H415.528C416.737 35.2668 418.265 38.5251 420.263 41.2045C422.421 38.7346 424.316 35.8457 425.789 33.0082L429.631 35.4781C429.473 35.8457 429.315 35.9504 429.105 35.8971L428.369 35.7409C428.211 35.7409 428.157 35.6876 427.999 35.8457C425.947 37.9995 423.685 40.1533 420.948 42.0461C423.841 45.6187 427.526 48.0886 432 49.6121ZM405.056 41.1531C404.054 38.6299 402.424 35.8972 400.16 33.7434L400.791 33.271C405.056 34.8993 407.422 37.632 407.79 39.8905C407.949 40.8903 407.001 41.9414 406.106 41.9414C405.58 41.9414 405.265 41.6787 405.056 41.1531Z" fill="#231815"/>
</g>
<defs>
<clipPath id="clip0_1142_396">
<rect width="432" height="98" fill="white"/>
</clipPath>
</defs>
</svg>
