<svg width="432" height="96" viewBox="0 0 432 96" fill="none" xmlns="http://www.w3.org/2000/svg">
<g clip-path="url(#clip0_1142_395)">
<path d="M135.329 58.705C135.023 59.0975 134.802 59.4539 134.616 59.8266C134.564 59.9454 134.445 59.9634 134.343 59.9454C131.659 59.3351 129.266 58.1614 127.363 56.5988C126.039 57.6357 124.594 58.4674 123.05 59.1137L123.797 59.4017H130.556L131.134 58.9102C131.49 59.1137 131.899 59.3693 132.237 59.6231C132.068 59.9976 131.999 60.336 131.999 60.8131V65.4504C131.593 65.4685 130.896 65.5026 130.691 65.5026C130.641 65.5026 130.606 65.4684 130.606 65.4162V64.6691H123.797V65.5026C123.388 65.5188 122.692 65.553 122.488 65.553C122.438 65.553 122.404 65.5188 122.404 65.4684V59.3693C121.385 59.7599 120.314 60.066 119.227 60.2856L119.074 59.9796C121.842 59.1479 124.459 57.8229 126.582 55.9201C125.58 54.9857 124.747 53.9146 124.102 52.7769C122.929 54.1702 121.572 55.3422 119.942 56.2927L119.702 56.0551C121.81 54.3395 123.372 52.2494 124.594 49.5491L126.429 50.0243C126.395 50.1773 126.343 50.2277 126.259 50.2458L125.953 50.262C125.886 50.28 125.868 50.2962 125.818 50.3646L125.155 51.3997H129.791L130.538 50.856C130.963 51.1801 131.371 51.5869 131.746 51.9956C131.593 52.1144 131.388 52.2494 131.253 52.4546C130.319 53.812 129.266 55.0019 128.11 56.0046C130.131 57.3296 132.577 58.282 135.329 58.705ZM130.606 64.1759V59.8949H123.797V64.1759H130.606ZM127.193 55.3422C128.195 54.3395 129.079 53.2017 129.791 51.911H124.799L124.374 52.4546C125.121 53.5078 126.071 54.4925 127.193 55.3422Z" fill="#231815"/>
<path d="M151.202 51.3675C150.999 51.7743 150.914 52.1308 150.914 52.6924V65.0599C150.507 65.0779 149.811 65.1103 149.606 65.1103C149.555 65.1103 149.521 65.0779 149.521 65.0257V63.9564H138.872V65.0779C138.464 65.0941 137.717 65.1283 137.548 65.1283C137.496 65.1283 137.479 65.0941 137.479 65.0437V50.6869C137.955 50.8238 138.464 51.0272 138.941 51.2144H149.386L150.065 50.5681C150.421 50.7895 150.864 51.0938 151.202 51.3675ZM149.521 63.4469V51.7239H138.872V63.4469H149.521ZM147.55 54.9679C147.397 55.3243 147.313 55.6826 147.313 56.0894V60.6422C146.922 60.6602 146.244 60.6944 146.057 60.6944C146.006 60.6944 145.988 60.6764 145.988 60.626V59.9635H142.337V60.6764C141.946 60.6944 141.147 60.7286 141.081 60.7286C141.028 60.7286 140.994 60.6944 140.994 60.6422V54.3738C141.453 54.5088 141.93 54.6618 142.387 54.8329H145.87L146.498 54.2712C146.838 54.4584 147.246 54.7303 147.55 54.9679ZM145.988 59.454V55.3243H142.337V59.454H145.988Z" fill="#231815"/>
<path d="M161.743 60.048C161.743 62.6638 159.959 64.1255 157.751 64.1255C155.458 64.1255 153.675 62.8006 153.675 58.9103C153.675 54.6798 155.865 51.8768 160.537 51.2144L160.672 51.7058C157.208 52.4367 155.44 54.4583 155.169 57.8572C155.831 57.0417 156.902 56.3792 158.311 56.3792C160.163 56.3792 161.743 57.5673 161.743 60.048ZM160.35 60.5071C160.35 58.6204 159.517 57.2613 157.648 57.2613C156.596 57.2613 155.696 57.7887 155.169 58.417C155.152 58.6547 155.152 58.9265 155.152 59.1479C155.152 62.1201 156.155 63.5476 157.904 63.5476C159.313 63.5476 160.35 62.4441 160.35 60.5071Z" fill="#231815"/>
<path d="M177.585 58.9787C177.397 59.3855 177.313 59.742 177.313 60.2856V65.4684C176.888 65.4846 176.175 65.5188 175.972 65.5188C175.92 65.5188 175.886 65.5026 175.886 65.4342V64.6187H169.263V65.5026C168.854 65.5188 168.142 65.553 167.92 65.553C167.87 65.553 167.836 65.5188 167.836 65.4684V60.1326C166.392 61.0003 164.83 61.679 163.182 62.1722L163.013 61.8824C165.559 60.8797 167.92 59.3855 169.907 57.398C169.875 57.398 169.841 57.4142 169.806 57.4142C169.585 57.4142 169.466 57.2954 169.348 57.092C168.957 56.4457 168.091 55.4106 167.292 54.7481L167.496 54.5267C169.364 54.9858 170.57 56.1073 170.57 56.5988C170.57 56.6329 170.553 56.6834 170.553 56.7176C171.777 55.3764 172.846 53.812 173.696 52.046H169.517C167.973 53.9992 166.103 55.5798 163.778 56.7518L163.556 56.4979C166.103 54.6959 168.023 52.4546 169.501 49.4626L171.369 49.9901C171.334 50.1431 171.284 50.1773 171.199 50.1935L170.893 50.2277C170.825 50.2457 170.791 50.2457 170.74 50.3123C170.469 50.7372 170.197 51.162 169.907 51.5527H173.679L174.442 50.9748C174.867 51.3151 175.292 51.7237 175.666 52.1486C175.513 52.2674 175.31 52.4204 175.173 52.64C173.661 55.1387 171.862 57.1604 169.823 58.7572H175.801L176.429 58.1793C176.804 58.4007 177.244 58.705 177.585 58.9787ZM175.886 64.1255V59.2667H169.263V64.1255H175.886Z" fill="#231815"/>
<path d="M183.522 62.2065C183.403 61.6449 183.216 61.4414 182.248 61.2884L182.198 60.9482C182.622 61.0004 183.232 61.0328 183.538 61.0328C184.287 61.0328 184.744 60.6097 184.744 59.5728C184.744 58.0264 184.201 56.6835 183.148 55.5637C183.641 54.2712 184.201 52.4026 184.557 51.0776H182.113V65.5028C181.721 65.519 181.042 65.5532 180.855 65.5532C180.805 65.5532 180.771 65.519 180.771 65.4686V50.0245C181.195 50.1595 181.755 50.3647 182.198 50.5681H184.557L185.187 49.9561C185.594 50.2279 186.018 50.6185 186.358 50.975C186.187 51.128 186.036 51.2468 185.918 51.4682C185.306 52.5556 184.49 54.1524 183.657 55.4953C185.271 56.5989 186.087 58.1453 186.087 59.8789C186.087 61.3568 185.203 62.2065 183.522 62.2065ZM196.073 64.176C195.717 64.6008 195.479 64.9753 195.276 65.3659C195.207 65.5027 195.089 65.5352 194.986 65.4685C192.303 63.8879 190.622 60.7286 190.179 57.0921H188.243V63.4973C189.551 63.2596 190.757 63.022 191.775 62.8006L191.81 63.1228C190.248 63.8717 188.21 64.653 185.883 65.3659C185.815 65.3821 185.781 65.3821 185.747 65.3317L185.135 63.9905L186.884 63.7349V49.9902C187.309 50.1271 187.921 50.3467 188.379 50.5501H192.931L193.559 49.974C193.933 50.1937 194.358 50.4835 194.698 50.7553C194.493 51.1622 194.408 51.5366 194.408 52.1145V57.5674C194.002 57.5854 193.321 57.6178 193.118 57.6178C193.068 57.6178 193.033 57.5854 193.033 57.5332V57.0921H190.553C190.859 58.3487 191.352 59.5386 191.997 60.5755C192.949 59.6736 193.814 58.6205 194.477 57.5332L195.92 58.6727C195.835 58.7915 195.785 58.8257 195.7 58.8077L195.479 58.7393C195.427 58.7231 195.395 58.7231 195.342 58.7735C194.408 59.5728 193.406 60.3199 192.218 60.932C193.186 62.3919 194.493 63.5315 196.073 64.176ZM188.243 51.0614V53.5421H193.033V51.0614H188.243ZM188.243 56.5989H193.033V54.0335H188.243V56.5989Z" fill="#231815"/>
<path d="M208.721 63.8878C209.927 63.8878 211.37 63.8536 212.678 63.769C212.491 64.1255 212.286 64.6349 212.201 64.9068C212.167 65.0094 212.117 65.0598 212.014 65.0598C211.318 65.094 209.552 65.1102 208.55 65.1102C204.389 65.1102 202.13 63.9383 200.991 60.9319C200.178 62.9355 199.057 64.3811 197.34 65.5189L197.12 65.2812C199.057 63.463 200.025 61.1857 200.55 57.2612L202.436 57.6519C202.402 57.8229 202.368 57.8733 202.283 57.8913L202.012 57.9417C201.943 57.9579 201.909 57.9759 201.893 58.0425C201.688 58.8922 201.468 59.6573 201.213 60.3702C201.875 61.8482 202.775 62.8167 204.321 63.3442V55.4952H199.497L199.395 54.9857H208.516L209.297 54.1702C209.79 54.4421 210.215 54.7301 210.623 55.0704L210.351 55.4952H205.732V59.1299H208.805L209.568 58.2982C210.045 58.57 210.47 58.858 210.877 59.1983L210.605 59.6231H205.732V63.6844C206.579 63.8194 207.565 63.8878 208.721 63.8878ZM197.46 54.0676C197.46 53.8642 197.579 53.7112 197.799 53.5744C198.563 53.0991 199.091 52.181 199.26 51.1117L199.548 51.1801L199.65 51.8768H204.252V49.5491L206.138 49.6499C206.138 49.8029 206.104 49.8551 206.036 49.8875L205.748 49.9901C205.663 50.0243 205.645 50.0585 205.645 50.1269V51.8768H210.774L211.505 51.2809C211.93 51.5707 212.388 51.9272 212.763 52.3016C212.61 52.3862 212.439 52.505 212.32 52.6401C211.71 53.3205 210.996 54.0334 210.317 54.5429L210.045 54.3899C210.299 53.83 210.555 53.1333 210.758 52.3862H199.667C199.634 53.8462 198.938 54.8669 198.36 54.8669C197.901 54.8669 197.46 54.4241 197.46 54.0676Z" fill="#231815"/>
<path d="M227.567 53.0651C227.567 53.2865 227.346 53.6609 227.006 53.6609C225.884 53.6609 225.121 53.7617 224.594 54.0336C222.148 55.2919 220.687 57.3802 220.687 59.5891C220.687 61.9005 222.607 63.0221 224.747 63.0221C225.003 63.0221 225.138 62.9879 225.24 62.9879C225.562 62.9879 226.225 63.6846 226.225 64.0068C226.225 64.3128 225.868 64.4658 225.154 64.4658C221.724 64.4658 219.449 62.6314 219.449 59.8267C219.449 57.499 221.18 55.2577 223.523 53.9327V53.8986C221.401 54.1182 218.785 54.561 216.816 55.1551C216.051 55.3927 215.864 55.6826 215.524 55.6826C214.964 55.6826 214.233 54.8149 214.233 54.0174C214.233 53.6771 214.336 53.4053 214.608 53.2181C214.98 54.0336 215.286 54.1524 215.644 54.1524C215.779 54.1524 215.948 54.1362 216.254 54.0678C218.853 53.5241 221.605 53.0831 224.95 52.759C225.494 52.7086 225.818 52.606 226.241 52.2838C227.04 52.5214 227.567 52.8778 227.567 53.0651ZM228.058 51.5529C228.229 51.7905 228.28 51.9615 228.28 52.0965C228.28 52.318 227.923 52.5898 227.702 52.5898C227.567 52.5898 227.465 52.5214 227.362 52.2676C227.108 51.6375 226.581 50.84 225.8 50.2621L225.971 50.0587C227.006 50.4314 227.652 51.0092 228.058 51.5529ZM230.029 51.2468C230.029 51.4863 229.689 51.7581 229.451 51.7581C229.316 51.7581 229.198 51.6717 229.095 51.4341C228.823 50.7896 228.33 50.0065 227.549 49.4304L227.72 49.209C228.739 49.5834 229.417 50.1595 229.808 50.7032C229.995 50.9588 230.029 51.0938 230.029 51.2468Z" fill="#231815"/>
<path d="M239.449 61.0166L238.702 64.0067H231.093V63.3442C235.441 58.9949 236.952 57.0075 236.952 54.8994C236.952 53.5079 236.188 52.4367 234.507 52.4367C233.454 52.4367 232.588 52.93 231.858 53.6933L231.483 53.2684C232.282 52.1811 233.504 51.3494 235.221 51.3494C237.055 51.3494 238.567 52.4205 238.567 54.561C238.567 56.8706 236.918 58.8923 232.47 62.8348H237.258C238.005 62.8348 238.243 62.6313 238.601 61.8663L238.992 61.0165L239.449 61.0166Z" fill="#231815"/>
<path d="M246.255 51.6051C246.086 51.9777 246.001 52.3342 246.001 52.8112V62.3758C245.611 62.392 244.93 62.4262 244.727 62.4262C244.677 62.4262 244.642 62.41 244.642 62.3596V61.5261H242.535V62.9879C242.145 63.0041 241.347 63.0383 241.279 63.0383C241.229 63.0383 241.194 63.0041 241.194 62.9537V50.975C241.653 51.1118 242.145 51.281 242.603 51.4521H244.524L245.168 50.8742C245.508 51.0776 245.933 51.3495 246.255 51.6051ZM242.535 51.9435V56.1236H244.642V51.9435H242.535ZM244.642 61.0328V56.5989H242.535V61.0328H244.642ZM256.378 58.7051H253.898V64.4154C253.898 64.7197 253.797 64.9753 253.592 65.1445C253.27 65.4164 252.71 65.5874 252.064 65.5874C251.893 64.9249 251.589 64.6351 249.125 64.2786L249.091 63.9564C250.078 64.023 251.283 64.0752 252.064 64.0752C252.437 64.0752 252.523 63.9726 252.523 63.8034V58.7052H246.323L246.239 58.2137H252.523V55.868H246.307L246.205 55.3766H250.178V52.7248H246.799L246.698 52.2334H250.178V49.5654L252.064 49.668C252.064 49.8211 252.014 49.8715 251.946 49.9057L251.674 50.0065C251.589 50.0407 251.571 50.0749 251.571 50.1433V52.2334H253.542L254.273 51.4521C254.748 51.7059 255.154 51.9957 255.547 52.318L255.275 52.7248H251.571V55.3766H254.56L255.307 54.5773C255.784 54.8491 256.191 55.1389 256.582 55.4612L256.328 55.868H254.391C254.373 55.9706 254.341 56.021 254.289 56.039L254.001 56.1236C253.916 56.1578 253.898 56.2082 253.898 56.2605V58.2137H254.782L255.444 57.4486C255.903 57.7384 256.209 57.9581 256.616 58.2821L256.378 58.7051ZM249.415 62.3074C249.091 61.4919 248.276 60.2857 247.445 59.4702L247.666 59.2668C249.534 59.8951 250.74 61.3388 250.74 61.9005C250.74 62.3074 250.297 62.698 249.89 62.698C249.653 62.698 249.516 62.545 249.415 62.3074Z" fill="#231815"/>
<path d="M259.937 55.5116V65.4686C259.531 65.4848 258.85 65.519 258.647 65.519C258.597 65.519 258.562 65.5028 258.562 65.4506V49.8877C259.003 50.0245 259.615 50.2459 260.056 50.4313H263.216L263.879 49.8031C264.235 50.0065 264.676 50.3125 265 50.5844C264.813 50.975 264.71 51.3494 264.71 51.9111V56.0552C264.303 56.0732 263.623 56.1074 263.436 56.1074C263.386 56.1074 263.369 56.0732 263.369 56.021V55.5116H259.937ZM259.937 50.9084V52.7086H263.369V50.9084H259.937ZM263.369 55.0363V53.1839H259.937V55.0363H263.369ZM268.752 57.6358C268.601 57.9923 268.515 58.3325 268.515 58.7394V63.7188C268.124 63.735 267.446 63.7692 267.258 63.7692C267.208 63.7692 267.19 63.7511 267.19 63.7007V63.0221H263.81V63.7512C263.42 63.7692 262.623 63.8034 262.554 63.8034C262.502 63.8034 262.47 63.7692 262.47 63.7188V57.0237C262.927 57.1606 263.404 57.3298 263.861 57.499H267.071L267.699 56.9391C268.04 57.1263 268.448 57.3982 268.752 57.6358ZM263.81 57.9761V59.9977H267.19V57.9761H263.81ZM267.19 62.545V60.473H263.81V62.545H267.19ZM272.846 50.6024C272.625 51.0272 272.541 51.4179 272.541 51.8427V64.329C272.541 64.6189 272.438 64.8385 272.235 65.0257C271.929 65.2814 271.437 65.4344 270.791 65.4344C270.638 64.7719 270.401 64.5163 268.72 64.2444L268.686 63.9222C269.398 63.9726 270.232 63.9906 270.757 63.9906C271.079 63.9906 271.166 63.9042 271.166 63.735V55.5116H267.599V56.0048C267.19 56.021 266.512 56.0552 266.306 56.0552C266.256 56.0552 266.222 56.021 266.222 55.9706V49.9057C266.647 50.0245 267.24 50.2459 267.683 50.4313H271.013L271.675 49.7869C272.065 50.0245 272.524 50.3305 272.846 50.6024ZM267.599 50.9084V52.7086H271.166V50.9084H267.599ZM271.166 55.0363V53.1839H267.599V55.0363H271.166Z" fill="#231815"/>
<path d="M282.893 54.4925C283.352 54.7301 283.742 55.002 284.133 55.308L283.861 55.7166H280.057V57.8913H281.874L282.486 57.3296C282.843 57.5331 283.233 57.7887 283.523 58.0263C283.352 58.3324 283.267 58.6384 283.267 58.9102V62.9193C283.267 63.1569 283.183 63.3784 282.996 63.5476C282.74 63.7852 282.299 63.922 281.687 63.922C281.586 63.3279 281.433 63.1227 280.481 62.9193L280.447 62.6132C280.872 62.6474 281.365 62.6636 281.671 62.6636C281.925 62.6636 282.011 62.597 282.011 62.444V58.3665H280.057V65.4846C279.684 65.5026 279.022 65.535 278.851 65.535C278.801 65.535 278.784 65.5188 278.784 65.4684V58.3665H276.898V64.0066C276.524 64.0228 275.862 64.057 275.693 64.057C275.642 64.057 275.624 64.0408 275.624 63.9904V57.38C276.015 57.4988 276.558 57.704 276.983 57.8913H278.784V55.7166H274.588L274.503 55.2395H278.784V52.793H276.661C276.218 53.6085 275.693 54.3394 275.081 55.0019L274.827 54.7985C275.523 53.4393 275.98 51.8929 276.321 50.0063L278.104 50.4491C278.088 50.6021 278.036 50.6525 277.951 50.6706L277.663 50.721C277.595 50.7372 277.561 50.7372 277.526 50.8236C277.339 51.333 277.136 51.8425 276.898 52.3177H278.784V49.531L280.55 49.6336C280.55 49.7866 280.499 49.837 280.431 49.8712L280.159 49.9559C280.075 49.9901 280.057 50.0243 280.057 50.0927V52.3177H281.772L282.486 51.5869C282.945 51.8245 283.336 52.0801 283.726 52.3862L283.471 52.793H280.057V55.2395H282.146L282.893 54.4925ZM286.069 61.5764C285.679 61.5944 285.033 61.6286 284.847 61.6286C284.795 61.6286 284.763 61.6105 284.763 61.5601V51.1963L286.545 51.2989C286.545 51.4519 286.512 51.4861 286.444 51.5185L286.172 51.6211C286.087 51.6553 286.069 51.6895 286.069 51.7579V61.5764ZM289.755 49.8371C289.755 49.9901 289.705 50.0405 289.636 50.0748L289.365 50.1594C289.28 50.1936 289.262 50.2458 289.262 50.2962V64.2947C289.262 64.5845 289.177 64.806 288.974 64.9752C288.686 65.229 288.175 65.382 287.547 65.382C287.412 64.7718 287.156 64.5665 285.204 64.2785L285.186 63.9563C285.969 64.0067 286.919 64.0571 287.531 64.0571C287.853 64.0571 287.937 63.9725 287.937 63.8032V49.7363L289.755 49.8371Z" fill="#231815"/>
<path d="M99.71 83.3536C100.083 83.5733 100.541 83.8793 100.882 84.1511C100.678 84.5598 100.576 84.9324 100.576 85.5103V92.8336C100.151 92.8498 99.4544 92.884 99.251 92.884C99.1989 92.884 99.1665 92.8498 99.1665 92.7994V91.7805H87.7188L87.6162 91.271H99.1665V88.0252H88.6024L88.4999 87.5157H99.1665V84.4752H88.0068L87.9222 83.9657H93.6793V77.1177L95.5816 77.2203C95.5816 77.3733 95.5474 77.4237 95.4808 77.4579L95.191 77.5605C95.1064 77.5929 95.0902 77.6271 95.0902 77.6955V83.9657H99.0477L99.71 83.3536ZM90.4021 82.7416C90.08 81.5174 89.1963 79.701 88.1939 78.4264L88.4495 78.2554C90.4705 79.4634 91.777 81.7388 91.777 82.4193C91.777 82.8262 91.3361 83.2006 90.8952 83.2006C90.6396 83.2006 90.4867 83.0476 90.4021 82.7416ZM101.035 78.8675C100.982 79.0205 100.95 79.0727 100.864 79.0727L100.576 79.0547C100.525 79.0547 100.473 79.0547 100.439 79.1231C99.539 80.5507 98.3674 82.1133 97.0249 83.3878L96.7369 83.2168C97.6889 81.6542 98.5708 79.8018 99.1485 78.0358L101.035 78.8675Z" fill="#231815"/>
<path d="M117.282 78.6136C117.095 79.0205 116.994 79.3769 116.994 79.9386V92.7147C116.569 92.7309 115.873 92.7831 115.652 92.7831C115.601 92.7831 115.567 92.7651 115.567 92.6967V91.5086H107.414V92.7489C106.99 92.7651 106.225 92.8155 106.072 92.8155C106.022 92.8155 105.987 92.7831 105.987 92.7309V77.9331C106.462 78.0861 107.006 78.2553 107.481 78.4426H115.43L116.127 77.7981C116.501 78.0177 116.942 78.3238 117.282 78.6136ZM107.414 78.9701V84.5939H115.567V78.9701H107.414ZM115.567 90.9991V85.1034H107.414V90.9991H115.567Z" fill="#231815"/>
<path d="M135.957 83.5734C135.786 83.6598 135.599 83.7444 135.48 83.8632C134.071 85.2908 132.458 86.7346 130.913 87.7373L130.675 87.4817C131.762 86.4447 132.865 85.0532 133.749 83.5914H129.129V91.7968C129.129 92.1028 129.027 92.3585 128.823 92.5277C128.501 92.7995 127.957 92.9345 127.277 92.9345C127.108 92.3062 126.802 92.1208 124.373 91.7806L124.356 91.4565C125.325 91.5249 126.496 91.5591 127.261 91.5591C127.634 91.5591 127.72 91.4745 127.72 91.3035V83.5914H121.045L120.942 83.0639H128.195C127.617 82.1476 126.359 80.8388 125.087 79.9549L125.29 79.7173C126.768 80.126 127.958 80.8388 128.686 81.4851C129.689 80.6696 130.691 79.6489 131.557 78.5616H123.201L123.098 78.0521H131.778L132.559 77.458C133.002 77.746 133.493 78.1709 133.884 78.5615C133.715 78.6299 133.511 78.7146 133.393 78.8172C131.982 79.9387 130.454 80.9918 128.992 81.7911C129.282 82.0954 129.435 82.3672 129.435 82.5382C129.435 82.7254 129.35 82.9109 129.23 83.0639H133.918L134.649 82.486C135.073 82.7758 135.583 83.1827 135.957 83.5734Z" fill="#231815"/>
<path d="M153.105 80.6353C152.901 80.9737 152.799 81.2978 152.783 81.7046C152.545 89.8092 151.983 91.6616 151.39 92.2719C150.981 92.6968 150.49 92.8678 149.656 92.8678C149.419 92.2215 149.079 92.0181 146.719 91.7804L146.701 91.4744C147.72 91.5248 148.91 91.559 149.64 91.559C149.912 91.559 150.099 91.4906 150.234 91.3556C150.659 90.9307 151.168 89.4528 151.424 80.9233H146.514C145.852 82.0791 145.089 83.1664 144.171 84.0845L143.934 83.8631C144.409 84.4409 144.68 85.0854 144.749 85.6129C144.799 86.0197 144.392 86.378 143.984 86.378C143.746 86.378 143.611 86.2592 143.559 86.0197C143.475 85.6813 143.39 85.341 143.271 85.0008L141.878 85.3752V92.9344C141.488 92.9524 140.808 92.9866 140.62 92.9866C140.57 92.9866 140.554 92.9524 140.554 92.902V85.6813C139.721 85.8667 138.821 86.0377 137.87 86.207C137.802 86.225 137.752 86.207 137.734 86.1566L137.359 84.9324L139.076 84.8478C139.483 84.3041 139.857 83.7443 140.248 83.1664H140.145C139.942 83.1664 139.823 83.0638 139.721 82.8604C139.33 82.1133 138.446 80.9917 137.565 80.2446L137.752 80.0394C138.243 80.1924 138.686 80.3976 139.076 80.6173C139.704 79.4453 140.264 78.1204 140.707 76.9304L142.49 77.6451C142.456 77.7801 142.422 77.8323 142.337 77.8323H142.031C141.981 77.8323 141.947 77.8485 141.895 77.8989C141.198 78.799 140.332 79.8864 139.415 80.8387C140.179 81.3482 140.673 81.9098 140.826 82.2663C141.522 81.1447 142.166 79.9728 142.694 78.8855L144.374 79.6668C144.324 79.8018 144.29 79.854 144.205 79.854L143.899 79.836C143.849 79.836 143.815 79.836 143.763 79.9044C142.676 81.3986 141.182 83.251 139.62 84.8316C140.91 84.7632 142.1 84.6948 143.134 84.6102C142.897 84.0161 142.609 83.404 142.269 82.8603L142.506 82.7253C143.084 83.0476 143.559 83.4382 143.916 83.8631C145.121 81.926 145.971 79.6667 146.566 76.9646L148.485 77.4921C148.451 77.6451 148.435 77.6955 148.35 77.7117L148.044 77.7459C147.976 77.7639 147.941 77.7801 147.907 77.8485C147.585 78.7324 147.229 79.5821 146.804 80.3976H151.321L151.967 79.7855C152.34 80.0232 152.799 80.3454 153.105 80.6353ZM138.515 87.0225L140.316 87.4311C140.298 87.5841 140.248 87.6345 140.179 87.6507L139.873 87.7029C139.807 87.7191 139.773 87.7191 139.739 87.8038C139.263 89.3159 138.634 90.7273 137.734 91.8993L137.48 91.712C137.971 90.3367 138.295 88.8587 138.515 87.0225ZM144.731 90.0972C144.765 90.5059 144.358 90.8281 143.934 90.8281C143.678 90.8281 143.543 90.6931 143.509 90.4375C143.372 89.2493 143.084 88.0414 142.625 86.9721L142.881 86.8352C144.034 87.7191 144.664 89.0783 144.731 90.0972ZM147.823 87.5319C147.398 86.1728 146.719 84.7632 145.733 83.5408L145.955 83.3698C147.788 84.3041 148.859 85.8001 149.063 86.9883C149.147 87.4653 148.706 87.8902 148.282 87.8902C148.044 87.8902 147.891 87.7714 147.823 87.5319Z" fill="#231815"/>
<path d="M159.381 87.091L159.739 87.2441C159.433 88.5348 159.196 89.7752 159.109 90.5403C159.043 91.066 159.059 91.4242 159.059 91.8148C159.059 92.1029 158.89 92.2559 158.6 92.2559C157.463 92.2559 156.291 90.5061 156.291 86.9219C156.291 83.6923 157.225 81.0765 157.225 79.7858C157.225 79.4797 157.157 79.2763 156.46 79.0729C156.664 78.7831 156.935 78.648 157.31 78.648C158.075 78.648 158.906 79.2763 158.906 79.7516C158.906 80.0234 158.703 80.261 158.533 80.7705C157.99 82.3673 157.446 84.9002 157.446 86.7004C157.446 89.435 158.175 90.3369 158.328 90.3369C158.38 90.3369 158.415 90.2847 158.447 90.1659C158.719 89.3162 159.059 88.2288 159.381 87.091ZM169.488 90.6591C169.488 90.9813 169.114 91.4404 168.826 91.4404C168.689 91.4404 168.588 91.372 168.383 91.1343C167.857 90.5223 167.262 90.0308 166.652 89.6564C166.533 91.1523 165.718 91.9678 163.985 91.9678C162.235 91.9678 160.927 91.0839 160.927 89.894C160.927 88.7725 161.98 88.0092 163.866 88.0092C164.393 88.0092 164.884 88.0416 165.36 88.1442C165.327 87.0406 165.225 85.5447 165.174 83.6256C164.426 83.7264 163.763 83.7606 163.169 83.7606C161.845 83.7606 160.979 83.388 159.977 81.9946L160.248 81.757C161.301 82.6733 162.066 82.7921 163.033 82.7921C163.628 82.7921 164.341 82.7417 165.14 82.6049C165.122 81.7048 165.106 80.7201 165.106 79.6669C165.106 79.1395 165.021 78.8856 164.103 78.7992C164.273 78.3924 164.596 78.189 165.156 78.189C165.955 78.189 166.634 78.5796 166.634 78.9198C166.634 79.1575 166.499 79.4113 166.481 79.8703C166.447 80.7363 166.414 81.5175 166.414 82.351L167.433 82.0792C167.789 81.9766 168.045 81.8416 168.333 81.5697C169.114 81.892 169.351 82.0612 169.351 82.2484C169.351 82.4699 169.148 82.7255 168.298 82.9631C167.62 83.1486 166.99 83.3016 166.414 83.4222C166.414 83.676 166.43 83.9316 166.43 84.2035C166.464 86.2071 166.599 87.4313 166.652 88.5528C167.552 88.9255 168.367 89.4691 169.148 90.1658C169.385 90.3692 169.488 90.5061 169.488 90.6591ZM165.378 89.0785C164.834 88.9093 164.273 88.8067 163.697 88.8067C162.354 88.8067 161.692 89.1973 161.692 89.8256C161.692 90.5223 162.541 90.9471 163.832 90.9471C165.037 90.9471 165.378 90.3873 165.378 89.1289V89.0785Z" fill="#231815"/>
<path d="M185.82 88.1099C185.82 90.0973 184.359 91.5087 182.169 91.5087C180.675 91.5087 179.468 90.6932 178.992 88.9434L179.316 88.7904C179.86 90.0127 180.76 90.5222 181.847 90.5222C183.443 90.5222 184.427 89.5212 184.427 88.0757C184.427 86.6661 183.493 85.4599 181.609 85.4599C180.436 85.4599 179.129 86.0198 177.837 86.8029C177.855 88.4339 177.889 90.1495 177.889 90.7778C177.889 91.6959 177.38 92.272 176.615 92.272C176.446 92.272 176.275 92.137 176.122 91.9677C175.681 91.4745 174.797 90.812 173.626 90.0811C173.404 90.3187 173.27 90.4717 173.032 90.4717C172.555 90.4717 171.826 89.7589 171.826 88.9776C171.826 88.7219 171.911 88.5185 172.132 88.3313C172.352 88.8407 172.589 88.9938 172.794 88.9938C172.946 88.9938 173.133 88.9434 173.439 88.7381C174.475 88.0595 175.528 87.3286 176.599 86.6841V85.3231C176.599 84.729 176.615 83.8631 176.631 82.9792C176.225 83.0296 175.85 83.0639 175.494 83.0639C174.339 83.0639 173.575 82.7254 172.589 81.2798L172.845 81.0602C173.813 82.0107 174.407 82.1475 175.273 82.1475C175.697 82.1475 176.174 82.0953 176.665 81.9945C176.7 80.7037 176.734 79.548 176.734 79.2078C176.734 78.5453 176.665 78.3581 175.784 78.2735C175.969 77.8828 176.293 77.6614 176.802 77.6614C177.668 77.6614 178.314 78.052 178.314 78.3761C178.314 78.5957 178.143 78.8171 178.076 79.4454C178.024 80.0233 177.974 80.8046 177.94 81.6705C178.415 81.5175 178.892 81.3662 179.316 81.161C179.86 80.9072 180.132 80.7362 180.385 80.3797C181.269 80.6173 181.507 80.873 181.507 81.0422C181.507 81.2798 181.285 81.5175 180.148 81.9765C179.367 82.2826 178.62 82.5382 177.889 82.7254C177.855 83.8127 177.837 84.9001 177.837 85.6634V86.0036C179.198 85.3069 180.538 84.8317 181.881 84.8317C184.445 84.8317 185.82 86.3259 185.82 88.1099ZM176.599 87.6184C175.731 88.2287 174.9 88.9092 174.153 89.5536L173.914 89.7751C174.882 90.3025 176.174 90.8624 176.36 90.8624C176.48 90.8624 176.531 90.794 176.547 90.5744C176.565 90.1657 176.599 88.9434 176.599 87.6184ZM187.01 82.792C187.01 83.0819 186.551 83.4041 186.195 83.4041C185.973 83.4041 185.871 83.3015 185.752 82.9973C185.158 81.5355 184.19 80.7704 182.628 80.7362V80.3978C182.916 80.3456 183.188 80.3113 183.546 80.3113C184.818 80.3113 186.092 80.9234 186.754 82.0953C186.942 82.4194 187.01 82.5886 187.01 82.792Z" fill="#231815"/>
<path d="M190.467 80.2448C190.449 81.5355 189.837 82.4356 189.293 82.4356C188.852 82.4356 188.428 82.0108 188.428 81.6706C188.428 81.4671 188.53 81.3321 188.75 81.1953C189.43 80.8047 189.905 80.0576 190.074 79.1737L190.364 79.2241L190.449 79.7857H195.596V78.4608H189.939L189.837 77.9855H200.997L201.778 77.1682C202.271 77.4419 202.678 77.7299 203.086 78.0701L202.83 78.4608H196.989V79.7857H202.406L203.086 79.1916C203.511 79.4635 203.968 79.8361 204.324 80.1926L203.901 80.5166C203.374 81.0423 202.78 81.5517 202.202 81.9424L201.931 81.8074C202.1 81.3663 202.271 80.8227 202.39 80.2448H196.989V84.6283C196.58 84.6445 195.884 84.6787 195.68 84.6787C195.628 84.6787 195.596 84.6445 195.596 84.5941V80.2448L190.467 80.2448ZM190.67 83.7948L190.586 83.3537H193.404L194.016 82.6733C194.406 82.8947 194.763 83.1485 195.085 83.4222L194.847 83.7948H190.67ZM204.189 91.3557C204.189 91.8472 204.07 92.1028 203.815 92.29C203.527 92.5115 202.983 92.6123 199.926 92.6123C196.886 92.6123 196.359 92.5277 195.986 92.2216C195.715 92.0002 195.612 91.678 195.612 91.1181V89.912H192.029V90.659C191.62 90.6752 190.823 90.7274 190.737 90.7274C190.686 90.7274 190.636 90.6933 190.636 90.641V84.6607C191.111 84.7975 191.638 84.9667 192.113 85.154H200.606L201.268 84.5419C201.607 84.7471 202.049 85.0352 202.372 85.2908C202.202 85.6634 202.118 86.0199 202.118 86.4447V90.4556C201.709 90.4718 201.013 90.506 200.809 90.506C200.759 90.506 200.725 90.4718 200.725 90.4214V89.9119H197.005V90.9993C197.005 91.2531 197.021 91.3377 197.09 91.3899C197.208 91.4745 197.498 91.5087 199.944 91.5087C202.456 91.5087 202.728 91.4565 202.865 91.3557C202.967 91.2873 203.034 91.1847 203.068 91.0154C203.187 90.5222 203.289 89.8777 203.374 89.3502L203.646 89.4187C203.662 89.8939 203.696 90.4898 203.765 90.947C203.799 91.1847 203.917 91.2873 204.189 91.3557ZM193.388 81.5859L193.998 80.9235C194.372 81.1449 194.728 81.3987 195.034 81.6705L194.797 82.0288H190.857L190.771 81.5859H193.388ZM192.029 85.613V87.2602H195.612V85.613H192.029ZM195.612 89.4349V87.7193H192.029V89.4349H195.612ZM197.005 85.613V87.2602H200.725V85.613H197.005ZM200.725 89.4349V87.7193H197.005V89.4349H200.725ZM197.548 83.3537H200.453L201.063 82.6571C201.456 82.8785 201.828 83.1485 202.15 83.4222L201.913 83.7948H197.633L197.548 83.3537ZM201.709 82.0288H197.667L197.583 81.5859H200.282L200.894 80.9073C201.268 81.1269 201.625 81.3987 201.947 81.6706L201.709 82.0288Z" fill="#231815"/>
<path d="M212.149 80.8045H205.456L205.355 80.3292H210.432L211.163 79.5641C211.622 79.8198 212.03 80.1078 212.403 80.4138L212.149 80.8045ZM206.255 78.5614L206.153 78.1041H209.889L210.603 77.339C211.062 77.5929 211.453 77.8827 211.825 78.1887L211.572 78.5614H206.255ZM210.501 81.8072C210.96 82.061 211.35 82.3346 211.725 82.6389L211.469 83.0295H206.306L206.221 82.5723H209.788L210.501 81.8072ZM210.501 84.0665C210.96 84.3221 211.35 84.5939 211.725 84.9L211.469 85.2906H206.306L206.221 84.8136H209.788L210.501 84.0665ZM210.603 86.5976C210.943 86.7848 211.368 87.0566 211.69 87.2943C211.519 87.6507 211.453 88.0252 211.453 88.4158V92.5437C211.044 92.5617 210.366 92.5959 210.162 92.5959C210.11 92.5959 210.076 92.5617 210.076 92.5113V91.7966H207.664V92.9344C207.258 92.9524 206.459 92.9866 206.39 92.9866C206.34 92.9866 206.289 92.9524 206.289 92.902V86.7002C206.765 86.8352 207.258 86.9882 207.733 87.1592H209.975L210.603 86.5976ZM210.076 91.3214V87.6345H207.664V91.3214H210.076ZM217.294 83.0638V86.6318H218.756L219.418 86.0539C219.758 86.2591 220.183 86.513 220.505 86.7686C220.336 87.1413 220.268 87.4977 220.268 87.9226V92.8156C219.859 92.8336 219.163 92.8678 218.959 92.8678C218.909 92.8678 218.875 92.8336 218.875 92.7832V92.0523H214.39V92.902C213.983 92.9182 213.15 92.9524 213.083 92.9524C213.031 92.9524 212.999 92.9182 212.999 92.8678V86.1566C213.474 86.2916 213.967 86.4446 214.442 86.6318H215.902V83.0638H212.165L212.063 82.5885H215.902V79.3949C214.798 79.6326 213.677 79.8018 212.606 79.9206L212.421 79.6164C214.883 79.0043 217.431 78.0178 219.316 77.0168L220.42 78.052C220.455 78.0862 220.437 78.1546 220.386 78.1708C219.434 78.511 218.381 78.7991 217.294 79.0727V82.5885H219.486L220.233 81.7568C220.708 82.0287 221.099 82.3347 221.489 82.6569L221.236 83.0638L217.294 83.0638ZM214.39 87.107V91.559H218.875V87.107H214.39Z" fill="#231815"/>
<path d="M227.173 87.0909L227.532 87.2601C227.173 88.5527 226.97 89.64 226.885 90.4033C226.817 90.9308 226.835 91.3376 226.817 91.7463C226.817 92.0181 226.648 92.1712 226.392 92.1712C225.374 92.1712 224.236 90.2161 224.236 86.7345C224.236 83.8127 225.237 80.6515 225.237 79.683C225.237 79.2924 225.152 79.0727 224.542 78.8513C224.746 78.5795 225.017 78.4949 225.39 78.4949C226.121 78.4949 226.97 79.1574 226.97 79.6164C226.97 79.9044 226.716 80.2951 226.529 80.7884C226.02 82.1295 225.424 84.4914 225.424 86.4969C225.424 88.9091 226.036 90.0973 226.173 90.0973C226.205 90.0973 226.239 90.0469 226.274 89.928L227.173 87.0909ZM237.178 90.3367C237.178 90.8282 235.988 91.118 233.866 91.118C230.215 91.118 228.804 90.1495 228.804 88.5185C228.804 87.7534 229.247 86.7849 230.181 85.7479L230.503 85.9352C229.909 86.8191 229.688 87.5157 229.688 88.1278C229.688 89.3682 230.706 89.9118 233.679 89.9118C235.463 89.9118 235.887 89.6058 236.141 89.6058C236.65 89.6058 237.178 90.0811 237.178 90.3367ZM229.365 82.6732L229.11 82.4013C230.587 80.9071 232.151 80.3113 234.358 80.3113C235.972 80.3113 236.465 80.7541 236.465 81.179C236.465 81.3662 236.244 81.6704 235.853 81.7046C235.479 81.7227 235.106 81.8577 234.698 82.0791C234.054 82.4193 233.407 82.81 232.558 83.4725L232.27 83.2006C233.085 82.4697 233.713 81.9603 234.307 81.5174V81.485C234.138 81.467 233.901 81.4508 233.679 81.4508C232.049 81.4508 230.825 81.6884 229.365 82.6732Z" fill="#231815"/>
<path d="M253.508 80.1079C253.508 80.4643 253.204 80.8226 252.779 80.8226C251.64 80.8226 250.758 80.9414 250.23 81.2132C247.751 82.4698 246.273 84.594 246.273 86.8353C246.273 89.181 248.226 90.3367 250.4 90.3367C250.655 90.3367 250.79 90.3025 250.911 90.3025C251.233 90.3025 251.877 90.9992 251.877 91.3214C251.877 91.6275 251.521 91.7805 250.808 91.7805C247.326 91.7805 245.017 89.9118 245.017 87.0747C245.017 84.7128 246.782 82.4535 249.16 81.1106V81.0602C247.004 81.2798 244.355 81.7389 242.35 82.3347C241.569 82.5724 241.365 82.8784 241.025 82.8784C240.447 82.8784 239.717 82.0107 239.717 81.179C239.717 80.8387 239.801 80.5831 240.091 80.3797C240.464 81.2132 240.804 81.314 241.16 81.314C241.297 81.314 241.466 81.2978 241.772 81.2294C244.405 80.6695 247.326 80.2267 250.706 79.9044C251.267 79.854 251.623 79.7172 252.117 79.3428C252.914 79.53 253.508 79.854 253.508 80.1079Z" fill="#231815"/>
<path d="M261.739 83.0637C260.602 87.0224 258.8 89.7066 256.407 91.2529L256.186 90.9991C258.106 89.2997 259.668 86.5309 260.381 82.5543H256.779L256.695 82.061H260.312L260.974 81.5173C261.383 81.8072 261.739 82.1294 262.079 82.4859C261.961 82.6227 261.808 82.8261 261.739 83.0637ZM272.321 89.7408C271.947 90.1314 271.675 90.4716 271.454 90.8281C271.369 90.9649 271.234 90.9811 271.132 90.8965C269.23 89.2313 267.837 86.6156 267.072 83.6596L266.903 83.9476H264.932V85.8343H265.816L266.409 85.1538C266.784 85.3752 267.14 85.6471 267.464 85.9189L267.209 86.3095H264.932V88.297H266.75L267.396 87.5841C267.802 87.8217 268.177 88.0935 268.517 88.3816L268.261 88.7722H264.932V91.865C264.932 92.153 264.831 92.4087 264.628 92.5959C264.304 92.8677 263.778 93.0027 263.116 93.0027C262.963 92.3582 262.657 92.1368 260.431 91.8146L260.415 91.4905C261.315 91.5427 262.402 91.5931 263.098 91.5931C263.454 91.5931 263.541 91.4905 263.541 91.3213V88.7722H260.228L260.127 88.297H263.541V86.3095H261.18L261.077 85.8343H263.541V83.9476H261.79L261.689 83.4724H263.541V80.9413L264.61 81.0079C265.612 80.3112 266.615 79.4291 267.48 78.4605H258.988L258.903 77.9673H267.736L268.499 77.3894C268.924 77.6792 269.417 78.0861 269.807 78.4767L269.332 78.6982C268.517 79.2418 267.684 79.7675 266.852 80.2446C267.09 81.4327 267.412 82.6046 267.837 83.692C268.855 82.5885 269.757 81.2977 270.453 80.0231L272.1 81.1447C272.032 81.2635 271.981 81.3139 271.897 81.2977L271.607 81.2293C271.557 81.2293 271.522 81.2131 271.472 81.2635C270.469 82.214 269.332 83.2509 267.99 84.0844C268.992 86.4787 270.435 88.5004 272.321 89.7408ZM267.021 83.4382C266.784 82.4697 266.615 81.4507 266.512 80.43L265.34 81.0421H265.425C265.425 81.1951 265.375 81.2635 265.306 81.2977L265.035 81.3823C264.95 81.4165 264.932 81.4669 264.932 81.5173V83.4724H265.578L266.156 82.7919C266.462 82.9791 266.75 83.2167 267.021 83.4382Z" fill="#231815"/>
<path d="M285.648 84.882C285.648 88.3996 283.898 91.5428 278.463 92.6805L278.224 92.2719C282.98 90.6751 284.186 88.1098 284.186 84.8478C284.186 81.2977 283.626 79.8198 282.487 79.8198C281.434 79.8198 280.347 81.773 279.397 85.6975C279.192 86.5634 279.192 87.1413 279.176 87.7533C279.176 88.0756 278.836 88.297 278.548 88.297C277.733 88.297 276.714 86.8028 276.714 84.1853C276.714 81.6884 277.324 79.5641 277.324 78.5794C277.324 78.2554 277.257 78.0699 276.577 77.8827C276.781 77.5767 277.07 77.4417 277.511 77.4417C278.242 77.4417 279.039 77.9853 279.039 78.4264C279.039 78.664 278.836 78.8332 278.632 79.4291C278.071 81.1447 277.886 82.7253 277.886 84.0161C277.886 85.3068 278.173 86.0719 278.429 86.3942H278.463C279.822 81.2473 280.994 78.9196 282.844 78.9196C284.593 78.9196 285.648 80.6352 285.648 84.882Z" fill="#231815"/>
<path d="M298.786 84.5419C299.651 84.4069 300.603 84.2034 301.572 83.9478C302.012 83.829 302.234 83.6922 302.506 83.4041C303.405 83.6922 303.575 83.9136 303.575 84.0846C303.575 84.3384 303.287 84.5941 302.318 84.8317C300.976 85.1719 299.804 85.4096 298.802 85.5446L298.989 88.5528C300.517 88.9254 301.928 89.6905 303.218 90.7778C303.422 90.947 303.506 91.0497 303.506 91.2189C303.506 91.5429 303.116 92.0686 302.81 92.0686C302.659 92.0686 302.59 92.0002 302.3 91.7122C301.366 90.794 300.245 90.0469 299.039 89.6059V89.6905C299.039 91.5591 298.258 92.5276 296.322 92.5276C294.353 92.5276 292.876 91.6617 292.876 90.3188C292.876 89.1288 294.114 88.2629 296.559 88.2629C296.95 88.2629 297.324 88.2809 297.699 88.3151L297.596 85.6814C297.036 85.7318 296.543 85.748 296.084 85.748C294.454 85.748 293.113 85.613 292.602 83.5067L292.926 83.3879C293.604 84.7795 294.506 84.7975 295.847 84.7975C296.356 84.7975 296.934 84.7633 297.562 84.6949L297.477 82.1134C296.849 82.1818 296.271 82.198 295.712 82.198C294.216 82.198 292.876 81.9424 291.771 80.1602L292.042 79.9549C293.248 81.1611 294.301 81.2475 295.472 81.2475C296.084 81.2475 296.747 81.2133 297.461 81.1269C297.443 80.3978 297.443 79.6327 297.443 78.8514C297.443 78.3761 297.308 78.1889 296.356 78.0701C296.559 77.6452 296.9 77.458 297.427 77.458C298.377 77.458 298.989 77.8486 298.989 78.2051C298.989 78.4085 298.854 78.6803 298.836 79.1232L298.786 80.9414C299.72 80.7884 300.704 80.5508 301.723 80.2447C302.115 80.1259 302.403 79.9387 302.675 79.6489C303.609 79.9387 303.778 80.1421 303.778 80.3294C303.778 80.5832 303.506 80.855 302.506 81.1269C301.095 81.5175 299.873 81.7911 298.768 81.9604C298.768 82.8263 298.768 83.6922 298.786 84.5419ZM297.733 89.2494C297.24 89.1468 296.73 89.0964 296.221 89.0964C294.472 89.0964 293.639 89.6059 293.639 90.2684C293.639 91.0659 294.691 91.4907 296.084 91.4907C297.342 91.4907 297.733 90.9128 297.733 89.6221V89.2494Z" fill="#231815"/>
<path d="M322.93 81.2798C322.93 81.5175 322.591 81.9603 322.233 81.9423C321.164 81.8757 320.043 81.7047 318.328 81.7047C317.937 81.7047 317.529 81.7047 317.122 81.7227C317.088 82.8262 317.07 84.117 317.122 85.4096C317.138 86.0036 317.291 86.7507 317.291 87.4978C317.291 89.9281 315.864 92.1712 311.534 92.8157L311.363 92.425C314.896 91.5249 315.779 89.7067 315.814 88.3817C315.492 88.8246 314.964 89.0784 314.286 89.0784C312.961 89.0784 311.84 88.1441 311.84 86.3601C311.84 84.5095 312.927 83.3537 314.421 83.3537C315.067 83.3537 315.558 83.6255 315.848 84.0162C315.848 83.3699 315.864 82.5724 315.864 81.7731C313.895 81.8757 311.788 82.0792 309.904 82.4356C309.139 82.5886 308.986 82.8443 308.664 82.8443C308.223 82.8443 307.559 82.1134 307.559 81.4329C307.559 81.1269 307.661 80.855 307.917 80.6516C308.307 81.5013 308.732 81.6381 309.461 81.5355C311.431 81.2475 313.521 81.026 315.864 80.9234C315.864 80.0071 315.864 79.1916 315.848 78.783C315.832 78.3581 315.729 78.1205 314.777 78.0521C314.982 77.6272 315.304 77.4238 315.882 77.4238C316.832 77.4238 317.462 77.8145 317.462 78.1547C317.462 78.3581 317.309 78.648 317.257 79.2078L317.156 80.873C318.072 80.8388 319.024 80.8226 320.027 80.8226C320.621 80.8226 320.961 80.6516 321.418 80.2448C322.42 80.6516 322.93 81.0602 322.93 81.2798ZM315.864 86.0378C315.864 84.8659 315.339 84.0162 314.405 84.0162C313.521 84.0162 312.927 84.9325 312.927 86.1728C312.927 87.3628 313.505 87.9406 314.387 87.9406C315.202 87.9406 315.864 87.244 315.864 86.0378Z" fill="#231815"/>
<path d="M24 -3H0V96H24V-3Z" fill="#231815"/>
<path d="M17.7565 34.5905L17.5082 34.9542H5.80313L5.72754 34.5239H15.9568L16.6227 33.8056C17.051 34.054 17.4038 34.2899 17.7565 34.5905ZM7.00532 26.1835L6.91534 25.7532H14.9131L15.5645 25.0493C15.9821 25.2833 16.3348 25.5318 16.6731 25.8198L16.4248 26.1835H7.00532ZM14.1284 29.8523L14.7691 29.1736C15.1722 29.4077 15.5105 29.6435 15.8525 29.9171L15.6041 30.2826H7.67118L7.5776 29.8523H14.1284Z" fill="white"/>
<path d="M11.9906 44.4594C12.3542 44.6682 12.6673 44.877 12.9696 45.1237L12.7609 45.4495H5.63419L5.55859 45.0589H9.70503C10.047 44.1065 10.3313 43.0354 10.5293 42.0183L11.9762 42.5404C11.951 42.6574 11.9114 42.697 11.8467 42.697H11.6235C11.5839 42.697 11.5587 42.697 11.5335 42.7492C11.116 43.4927 10.6337 44.3154 10.0722 45.0589H11.4147L11.9906 44.4594ZM5.97613 41.4566H8.66123V39.7068L10.0974 39.786C10.0974 39.903 10.0578 39.9426 10.0074 39.9696L9.79863 40.047C9.73383 40.074 9.71944 40.1118 9.71944 40.1514V41.4566H11.1016L11.6631 40.8553C12.0158 41.0516 12.329 41.273 12.6277 41.5214L12.419 41.8491H6.05172L5.97613 41.4566ZM11.1556 46.5332C11.4147 46.6772 11.7423 46.8987 11.9906 47.0823C11.8574 47.3685 11.7927 47.6422 11.7927 47.9554V51.572C11.4795 51.5846 10.9576 51.6098 10.8028 51.6098C10.7633 51.6098 10.7488 51.5846 10.7488 51.545V50.8411H7.68221V51.7412C7.36907 51.7538 6.74278 51.7808 6.69239 51.7808C6.65281 51.7808 6.6276 51.7538 6.6276 51.7142V46.6124L7.7218 46.9778H10.6589L11.1556 46.5332ZM8.48128 44.2631C8.49208 44.589 8.17894 44.8626 7.8262 44.8626C7.61744 44.8626 7.48787 44.7456 7.46265 44.5368C7.36907 43.7411 7.1891 42.931 6.88676 42.2001L7.07033 42.1083C7.97016 42.67 8.44169 43.5844 8.48128 44.2631ZM10.7489 50.4487V47.3559H7.68223V50.4487H10.7489ZM17.5732 48.0994C17.5732 49.2624 16.8569 49.9393 15.4748 49.9393C15.3812 49.4964 15.2372 49.3398 14.4418 49.2228L14.4022 48.9347C14.7549 48.9743 15.2516 48.9996 15.5 48.9996C16.1262 48.9996 16.5042 48.6737 16.5042 47.8384C16.5042 46.6125 16.0075 45.5809 15.0033 44.6412C15.4208 43.5971 15.8779 42.1623 16.191 41.0912H14.1178V51.9231C13.8047 51.9375 13.2936 51.9627 13.1388 51.9627C13.0992 51.9627 13.074 51.9501 13.074 51.9105V40.2559C13.398 40.3603 13.8695 40.5421 14.2222 40.7005H16.1767L16.713 40.1911C17.0405 40.4125 17.3644 40.7131 17.638 40.9994C17.5084 41.1182 17.3896 41.2082 17.2852 41.3774C16.7777 42.2523 16.1011 43.5323 15.4208 44.589C16.8677 45.4891 17.5732 46.7024 17.5732 48.0994Z" fill="white"/>
<path d="M12.0158 59.2086C12.3685 59.3904 12.6672 59.5992 12.9696 59.835L12.7608 60.1483H9.83815V61.8189H11.2311L11.7026 61.3886C11.9762 61.5452 12.2749 61.7415 12.4981 61.9233C12.3685 62.1591 12.3037 62.3931 12.3037 62.602V65.6821C12.3037 65.8639 12.2389 66.035 12.0949 66.1646C11.897 66.3482 11.5586 66.4526 11.0907 66.4526C11.0115 65.9954 10.8928 65.8387 10.1621 65.6821L10.1369 65.4463C10.4644 65.4733 10.8424 65.4859 11.0763 65.4859C11.2707 65.4859 11.3355 65.4337 11.3355 65.3167V62.1843H9.83815V67.6534C9.55021 67.666 9.03911 67.693 8.90952 67.693C8.86993 67.693 8.85913 67.6786 8.85913 67.6389V62.1843H7.4086V66.5174C7.12425 66.53 6.61315 66.557 6.48358 66.557C6.44399 66.557 6.42958 66.5444 6.42958 66.5048V61.4282C6.73192 61.5182 7.14944 61.6748 7.4734 61.8188H8.85913V60.1482H5.63413L5.56934 59.7828H8.85913V57.9034H7.22863C6.88669 58.5298 6.48356 59.0915 6.01205 59.5992L5.81768 59.4444C6.35399 58.4002 6.70671 57.2121 6.96587 55.7629L8.33722 56.1031C8.32283 56.2202 8.28322 56.258 8.21845 56.2724L7.99529 56.312C7.94491 56.3246 7.9197 56.3246 7.89092 56.3894C7.75054 56.78 7.59217 57.1725 7.4086 57.5379H8.85913V55.3975L10.2161 55.4767C10.2161 55.5937 10.1765 55.6315 10.1225 55.6585L9.91375 55.7233C9.84895 55.7503 9.83815 55.7755 9.83815 55.8277V57.5379H11.1555L11.7026 56.9762C12.0554 57.1599 12.3541 57.3561 12.6564 57.5901L12.4585 57.9034H9.83815V59.7828H11.4399L12.0158 59.2086ZM14.4561 64.6506C14.1538 64.665 13.6606 64.6902 13.5167 64.6902C13.4771 64.6902 13.4519 64.6776 13.4519 64.638V56.6756L14.8196 56.7549C14.8196 56.8719 14.7944 56.8989 14.744 56.9241L14.5353 57.0033C14.4669 57.0285 14.4561 57.0555 14.4561 57.1077L14.4561 64.6506ZM17.2852 55.6315C17.2852 55.7503 17.2492 55.7899 17.1952 55.8151L16.9864 55.88C16.9216 55.907 16.9073 55.9448 16.9073 55.9844V66.7389C16.9073 66.9621 16.8425 67.1313 16.6877 67.2609C16.4645 67.4572 16.0722 67.5742 15.5899 67.5742C15.4855 67.1043 15.2912 66.9477 13.7902 66.7263L13.7758 66.4778C14.3769 66.5174 15.1076 66.557 15.5791 66.557C15.8239 66.557 15.8923 66.4904 15.8923 66.3608V55.5541L17.2852 55.6315Z" fill="white"/>
<path d="M68.7823 17.9004C68.7823 24.976 63.5436 30.3226 56.3373 30.3226C49.1311 30.3226 43.9189 25.1089 43.9189 17.9004C43.9189 10.6919 49.1311 5.45166 56.3373 5.45166C63.5436 5.45166 68.7823 10.6919 68.7823 17.9004ZM68.012 17.9004C68.012 11.1171 63.1186 6.22218 56.3373 6.22218C49.556 6.22218 44.6892 11.1171 44.6892 17.9004C44.6892 24.6838 49.556 29.5521 56.3373 29.5521C63.1186 29.5521 68.012 24.5509 68.012 17.9004ZM58.3315 24.5509L59.6616 24.6306V25.2683H53.2256V24.6306L54.6354 24.5509C55.6447 24.4712 55.7509 24.3118 55.7509 23.2204V13.1384C55.7509 12.421 55.4322 12.1553 54.8213 12.1553H52.7475V11.5953C55.0338 11.4359 55.9389 10.9842 56.6826 10.0788H57.2139V23.2204C57.2139 24.3118 57.3732 24.4712 58.3315 24.5509Z" fill="#231815"/>
<path d="M86.7875 27.3184V28.0092H78.8355V27.3184L80.5906 27.1855C81.8676 27.1038 82.0004 26.9178 82.0004 25.3481V11.7814C82.0004 11.1172 81.8144 10.8515 81.177 10.8515H78.2246V10.267C81.177 10.0524 82.3722 9.52099 83.1446 8.21704H83.6492V25.3481C83.6492 26.8912 83.782 27.1303 85.0325 27.2121L86.7875 27.3184Z" fill="#231815"/>
<path d="M104.23 17.9802C104.23 25.483 101.865 28.1154 98.0336 28.1154C94.1515 28.1154 91.8652 25.5627 91.8652 18.3256C91.8652 10.8249 94.2312 8.21704 98.0622 8.21704C101.944 8.21704 104.23 10.7452 104.23 17.9802ZM102.422 18.6179C102.422 11.0375 100.72 8.98958 97.9539 8.98958C95.3488 8.98958 93.6469 11.1172 93.6469 17.7146C93.6469 25.295 95.3754 27.3184 98.1419 27.3184C100.747 27.3184 102.422 25.2153 102.422 18.6179Z" fill="#231815"/>
<path d="M107.181 16.0121C107.181 15.2416 107.818 14.6284 108.564 14.6284C109.334 14.6284 109.945 15.2416 109.945 16.0121C109.945 16.7294 109.334 17.316 108.564 17.316C107.818 17.316 107.181 16.7294 107.181 16.0121ZM109.945 26.8646C109.945 27.584 109.334 28.1686 108.564 28.1686C107.818 28.1686 107.181 27.584 107.181 26.8646C107.181 26.0941 107.818 25.483 108.564 25.483C109.334 25.483 109.945 26.0941 109.945 26.8646Z" fill="#231815"/>
<path d="M125.289 17.9802C125.289 25.483 122.923 28.1154 119.094 28.1154C115.21 28.1154 112.924 25.5627 112.924 18.3256C112.924 10.8249 115.29 8.21704 119.121 8.21704C123.003 8.21704 125.289 10.7452 125.289 17.9802ZM123.481 18.6179C123.481 11.0375 121.779 8.98958 119.012 8.98958C116.407 8.98958 114.705 11.1172 114.705 17.7146C114.705 25.295 116.434 27.3184 119.2 27.3184C121.806 27.3184 123.481 25.2153 123.481 18.6179Z" fill="#231815"/>
<path d="M140.605 17.9802C140.605 25.483 138.239 28.1154 134.41 28.1154C130.526 28.1154 128.239 25.5627 128.239 18.3256C128.239 10.8249 130.605 8.21704 134.436 8.21704C138.318 8.21704 140.605 10.7452 140.605 17.9802ZM138.796 18.6179C138.796 11.0375 137.094 8.98958 134.328 8.98958C131.723 8.98958 130.021 11.1172 130.021 17.7146C130.021 25.295 131.749 27.3184 134.516 27.3184C137.121 27.3184 138.796 25.2153 138.796 18.6179Z" fill="#231815"/>
<path d="M184.467 18.1795C184.467 25.2551 179.31 30.6017 172.216 30.6017C165.123 30.6017 159.992 25.3879 159.992 18.1795C159.992 10.971 165.123 5.73071 172.216 5.73071C179.31 5.73071 184.467 10.971 184.467 18.1795ZM183.709 18.1795C183.709 11.3961 178.891 6.50123 172.216 6.50123C165.541 6.50123 160.75 11.3961 160.75 18.1795C160.75 24.9628 165.541 29.8312 172.216 29.8312C178.891 29.8312 183.709 24.83 183.709 18.1795ZM177.112 21.6376H177.715L176.746 25.4676H167.243V24.5909C173.003 19.2974 174.783 17.3292 174.783 14.5885C174.783 12.6469 173.657 11.3164 171.747 11.3164C170.41 11.3164 169.389 11.8478 168.289 13.0189L167.846 12.5141C168.788 11.157 170.306 10.1453 172.296 10.1453C174.441 10.1453 176.405 11.3695 176.405 14.2697C176.405 16.9021 175.018 18.8171 168.684 24.2189H174.913C175.804 24.2189 176.197 24.0329 176.589 23.0212L177.112 21.6376Z" fill="#231815"/>
<path d="M202.695 27.5972V28.288H194.867V27.5972L196.596 27.4643C197.852 27.3826 197.983 27.1966 197.983 25.6269V12.0602C197.983 11.396 197.799 11.1303 197.172 11.1303H194.267V10.5458C197.172 10.3312 198.349 9.7998 199.109 8.49585H199.605V25.6269C199.605 27.17 199.738 27.4091 200.968 27.4909L202.695 27.5972Z" fill="#231815"/>
<path d="M219.897 22.8618C219.897 25.8948 217.882 28.4741 213.405 28.4741C209.74 28.4741 207.75 26.3465 207.75 25.0426C207.75 24.644 207.985 24.2455 208.483 24.2455C209.242 24.2455 209.399 25.016 209.924 25.8151C210.578 26.8248 211.624 27.7036 213.667 27.7036C216.415 27.7036 218.195 25.8948 218.195 23.3135C218.195 20.4399 216.415 18.764 212.488 18.764H211.101L211.442 17.8872L212.069 17.8607C215.551 17.6215 217.306 15.6268 217.306 13.3112C217.306 11.1305 215.97 9.74682 213.405 9.74682C211.546 9.74682 210.394 10.5991 209.374 11.6353L208.929 11.1305C210.079 9.5874 211.861 8.44287 214.243 8.44287C217.226 8.44287 219.006 10.0922 219.006 12.7532C219.006 15.3325 217.306 17.1413 215.159 17.8075V17.8873C217.725 18.1264 219.897 19.6429 219.897 22.8618Z" fill="#231815"/>
<path d="M222.781 16.2909C222.781 15.5183 223.409 14.9072 224.142 14.9072C224.9 14.9072 225.503 15.5183 225.503 16.2909C225.503 17.0083 224.9 17.5948 224.142 17.5948C223.409 17.5948 222.781 17.0083 222.781 16.2909ZM225.503 27.1434C225.503 27.8629 224.9 28.4474 224.142 28.4474C223.409 28.4474 222.781 27.8629 222.781 27.1434C222.781 26.3729 223.409 25.7618 224.142 25.7618C224.9 25.7618 225.503 26.3729 225.503 27.1434Z" fill="#231815"/>
<path d="M240.608 18.2593C240.608 25.7621 238.278 28.3945 234.509 28.3945C230.686 28.3945 228.437 25.8418 228.437 18.6047C228.437 11.104 230.766 8.49609 234.535 8.49609C238.356 8.49609 240.608 11.0243 240.608 18.2593ZM238.828 18.897C238.828 11.3165 237.153 9.26864 234.431 9.26864C231.865 9.26864 230.19 11.3962 230.19 17.9936C230.19 25.574 231.892 27.5974 234.613 27.5974C237.179 27.5974 238.828 25.4943 238.828 18.897Z" fill="#231815"/>
<path d="M255.689 18.2593C255.689 25.7621 253.36 28.3945 249.59 28.3945C245.767 28.3945 243.516 25.8418 243.516 18.6047C243.516 11.104 245.847 8.49609 249.617 8.49609C253.437 8.49609 255.689 11.0243 255.689 18.2593ZM253.909 18.897C253.909 11.3165 252.234 9.26864 249.512 9.26864C246.946 9.26864 245.271 11.3962 245.271 17.9936C245.271 25.574 246.973 27.5974 249.694 27.5974C252.26 27.5974 253.909 25.4943 253.909 18.897Z" fill="#231815"/>
<path d="M299.779 18.4717C299.779 25.5473 294.622 30.8939 287.528 30.8939C280.434 30.8939 275.304 25.6802 275.304 18.4717C275.304 11.2632 280.434 6.02295 287.528 6.02295C294.622 6.02295 299.779 11.2632 299.779 18.4717ZM299.021 18.4717C299.021 11.6883 294.203 6.79346 287.528 6.79346C280.853 6.79346 276.062 11.6883 276.062 18.4717C276.062 25.2551 280.853 30.1234 287.528 30.1234C294.203 30.1234 299.021 25.1222 299.021 18.4717ZM292.372 21.5844C292.372 23.9511 290.67 25.9724 287.189 25.9724C284.676 25.9724 282.921 24.7768 282.921 23.4995C282.921 23.0743 283.158 22.7024 283.654 22.7024C284.177 22.7024 284.439 23.0478 284.676 23.5792C285.121 24.4846 285.959 25.1754 287.45 25.1754C289.334 25.1754 290.852 24.1105 290.852 21.9298C290.852 19.6959 289.334 18.4186 286.455 18.4186H285.068L285.225 17.7543L285.748 17.6746C288.157 17.3272 289.963 16.3175 289.963 14.19C289.963 12.3792 288.785 11.5821 287.109 11.5821C285.644 11.5821 284.7 12.2729 283.863 13.2846L283.446 12.8063C284.23 11.5555 285.538 10.411 287.765 10.411C290.094 10.411 291.508 11.6883 291.508 13.6565C291.508 15.731 290.041 17.1146 287.973 17.6215V17.6747C290.513 17.7012 292.372 19.0297 292.372 21.5844Z" fill="#231815"/>
<path d="M318.006 27.8894V28.5802H310.179V27.8894L311.907 27.7566C313.164 27.6748 313.295 27.4888 313.295 25.9192V12.3525C313.295 11.6882 313.111 11.4225 312.484 11.4225H309.578V10.838C312.484 10.6234 313.66 10.092 314.42 8.78809H314.917V25.9192C314.917 27.4622 315.05 27.7014 316.28 27.7831L318.006 27.8894Z" fill="#231815"/>
<path d="M335.312 22.4878C335.312 26.3996 332.721 28.7132 329.397 28.7132C325.809 28.7132 323.245 26.6387 323.245 20.6524C323.245 14.2165 326.308 9.74675 333.428 8.54907L333.663 9.24192C328.036 10.411 325.286 13.9222 324.972 19.1359C326.046 17.7809 327.748 16.6895 330.024 16.6895C332.826 16.6895 335.312 18.4717 335.312 22.4878ZM333.69 22.968C333.69 19.9351 332.303 17.7809 329.317 17.7809C327.46 17.7809 325.889 18.7905 324.972 19.935C324.947 20.2539 324.947 20.6258 324.947 20.9202C324.947 25.6536 326.596 27.9426 329.528 27.9426C331.91 27.9426 333.69 26.1073 333.69 22.968Z" fill="#231815"/>
<path d="M338.093 16.5834C338.093 15.8108 338.72 15.1997 339.454 15.1997C340.212 15.1997 340.814 15.8108 340.814 16.5834C340.814 17.3007 340.212 17.8873 339.454 17.8873C338.72 17.8873 338.093 17.3007 338.093 16.5834ZM340.814 27.4359C340.814 28.1553 340.212 28.7399 339.454 28.7399C338.72 28.7399 338.093 28.1553 338.093 27.4359C338.093 26.6654 338.72 26.0543 339.454 26.0543C340.212 26.0543 340.814 26.6654 340.814 27.4359Z" fill="#231815"/>
<path d="M355.919 18.5515C355.919 26.0543 353.59 28.6867 349.82 28.6867C345.998 28.6867 343.748 26.134 343.748 18.8969C343.748 11.3962 346.077 8.78833 349.847 8.78833C353.668 8.78833 355.919 11.3165 355.919 18.5515ZM354.14 19.1892C354.14 11.6088 352.464 9.56087 349.743 9.56087C347.176 9.56087 345.501 11.6885 345.501 18.2858C345.501 25.8663 347.203 27.8896 349.925 27.8896C352.491 27.8896 354.14 25.7866 354.14 19.1892Z" fill="#231815"/>
<path d="M371 18.5515C371 26.0543 368.671 28.6867 364.902 28.6867C361.079 28.6867 358.827 26.134 358.827 18.8969C358.827 11.3962 361.158 8.78833 364.928 8.78833C368.749 8.78833 371 11.3165 371 18.5515ZM369.221 19.1892C369.221 11.6088 367.545 9.56087 364.824 9.56087C362.258 9.56087 360.582 11.6885 360.582 18.2858C360.582 25.8663 362.284 27.8896 365.006 27.8896C367.572 27.8896 369.221 25.7866 369.221 19.1892Z" fill="#231815"/>
</g>
<defs>
<clipPath id="clip0_1142_395">
<rect width="371" height="96" fill="white"/>
</clipPath>
</defs>
</svg>
