<svg width="323" height="393" viewBox="0 0 323 393" fill="none" xmlns="http://www.w3.org/2000/svg">
<g clip-path="url(#clip0_945_621)">
<path d="M239.713 45.5715H254.533V0.279053H239.713V45.5715Z" fill="white"/>
<path d="M254.533 13.3688V0.279053L206.213 0.279053V13.3688L254.533 13.3688Z" fill="white"/>
<path d="M239.713 187.027H254.533V141.735H239.713V187.027Z" fill="white"/>
<path d="M206.213 173.938V187.027H254.533V173.938H206.213Z" fill="white"/>
<path d="M239.713 187.027H254.533V141.735H239.713V187.027Z" fill="white"/>
<path d="M206.213 173.938V187.027H254.533V173.938H206.213Z" fill="white"/>
<path d="M71.8611 141.735H57.041V187.027H71.8611V141.735Z" fill="white"/>
<path d="M57.041 173.938V187.027H105.362V173.938H57.041Z" fill="white"/>
<path d="M71.8611 0.279053H57.041V45.5715H71.8611V0.279053Z" fill="white"/>
<path d="M105.362 13.3688V0.279053L57.0417 0.279053V13.3688L105.362 13.3688Z" fill="white"/>
<path d="M71.8611 0.279053H57.041V45.5715H71.8611V0.279053Z" fill="white"/>
<path d="M105.362 13.3688V0.279053L57.0417 0.279053V13.3688L105.362 13.3688Z" fill="white"/>
<path d="M0.563835 325.345H2.06754C3.62564 325.345 4.10915 324.754 4.10915 322.874V291.128C4.10915 289.141 3.94837 288.657 1.96115 288.657H0.618221C-0.188012 288.657 -0.188012 287.207 0.618221 287.207C2.71302 287.207 4.64705 287.26 7.01019 287.26C9.26577 287.26 11.3606 287.207 13.4022 287.207C14.154 287.207 14.154 288.657 13.4022 288.657H11.7365C10.1796 288.657 9.6417 289.248 9.6417 291.128V308.908L25.7558 291.396C26.7228 290.269 27.0988 288.657 25.2191 288.657H23.1775C22.5332 288.657 22.5332 287.207 23.2319 287.207C25.0583 287.207 26.8848 287.26 29.0872 287.26C31.182 287.26 32.149 287.207 33.8135 287.207C34.6197 287.207 34.5653 288.657 33.8135 288.657H33.1692C30.9124 288.657 29.5695 289.624 27.9582 291.396L17.3767 302.837L30.4301 320.349C33.4908 324.593 34.8337 325.613 37.6815 325.022C38.379 325.129 38.4866 326.257 37.7347 326.58C36.607 327.009 35.0489 327.17 33.5983 327.17C29.9998 327.17 27.905 326.365 25.8634 323.518L13.563 306.921L9.64175 311.163V322.874C9.64175 324.807 9.96449 325.345 11.8441 325.345H13.2946C14.0997 325.345 14.0997 326.794 13.2946 326.794C11.1998 326.794 8.94309 326.741 6.63432 326.741C4.37756 326.741 2.49792 326.794 0.563897 326.794C-0.187966 326.794 -0.188027 325.345 0.563835 325.345Z" fill="white"/>
<path d="M41.707 325.29H42.6208C44.2321 325.29 45.1992 324.699 46.2194 322.121L60.3463 286.992C60.669 286.294 61.6892 286.24 62.0119 286.992L76.568 323.035C77.2122 324.593 77.9109 325.29 79.3614 325.29H80.1133C80.8119 325.29 80.8119 326.794 80.0601 326.794C77.9109 326.794 76.0844 326.741 73.7213 326.741C70.9822 326.741 68.5103 326.794 66.094 326.794C65.2877 326.794 65.3421 325.29 66.094 325.29H68.7798C70.4987 325.29 70.8746 324.323 70.2836 322.659L66.3091 312.561H51.8595L48.099 322.121C47.1864 324.216 47.8839 325.29 50.3558 325.29H52.6645C53.4708 325.29 53.4708 326.794 52.7189 326.794C50.4634 326.794 48.9053 326.741 46.4877 326.741C44.7689 326.741 43.5879 326.794 41.7071 326.794C40.902 326.794 40.9552 325.29 41.707 325.29ZM65.718 311.056L59.1641 294.243L52.5038 311.056H65.718Z" fill="white"/>
<path d="M91.0685 292.31V321.369C91.0685 324.538 92.0355 325.29 94.7214 325.29H96.5478C97.4073 325.29 97.3541 326.794 96.5478 326.794C94.3455 326.794 92.6266 326.741 90.371 326.741C88.1143 326.741 86.9333 326.794 85.1068 326.794C84.2474 326.794 84.2474 325.29 84.9992 325.29H86.6649C88.4902 325.29 89.404 324.538 89.404 321.369V290.161C88.4902 289.248 87.47 288.657 85.9662 288.657H84.7309C83.979 288.657 83.979 287.26 84.7309 287.26H93.1101C93.8087 287.26 94.1303 287.422 94.453 287.851L115.939 317.502V292.203C115.939 289.302 115.24 288.711 112.716 288.711H110.675C109.923 288.711 109.815 287.207 110.675 287.207C112.554 287.207 114.488 287.26 116.906 287.26C119.484 287.26 120.236 287.207 122.063 287.207C122.868 287.207 122.814 288.711 122.008 288.711H120.559C118.41 288.711 117.605 289.302 117.605 292.31V326.097C117.605 327.009 116.53 327.224 115.939 326.418L91.0685 292.31Z" fill="white"/>
<path d="M123.08 325.29H123.994C125.605 325.29 126.572 324.699 127.592 322.121L141.719 286.992C142.042 286.294 143.062 286.24 143.385 286.992L157.941 323.035C158.585 324.593 159.284 325.29 160.734 325.29H161.486C162.185 325.29 162.185 326.794 161.433 326.794C159.284 326.794 157.457 326.741 155.094 326.741C152.355 326.741 149.883 326.794 147.467 326.794C146.661 326.794 146.715 325.29 147.467 325.29H150.153C151.872 325.29 152.248 324.323 151.657 322.659L147.682 312.561H133.233L129.472 322.121C128.559 324.216 129.257 325.29 131.729 325.29H134.038C134.844 325.29 134.844 326.794 134.092 326.794C131.836 326.794 130.278 326.741 127.861 326.741C126.142 326.741 124.961 326.794 123.08 326.794C122.275 326.794 122.328 325.29 123.08 325.29ZM147.091 311.056L140.537 294.243L133.877 311.056H147.091Z" fill="white"/>
<path d="M166.426 325.237L188.449 288.872H175.074C172.388 288.872 170.884 289.946 169.864 293.438C169.757 293.867 169.596 294.297 169.488 294.888C169.326 295.533 167.93 295.425 167.983 294.726C168.306 292.578 168.682 290.108 169.058 287.905C169.165 287.207 169.434 287.099 170.186 287.099L175.718 287.26H194.25C194.949 287.26 195.271 288.066 194.733 288.818L172.926 325.183H187.053C190.383 325.183 192.209 323.786 193.552 319.543C193.766 318.953 193.928 318.361 194.143 317.61C194.357 316.911 195.808 317.072 195.7 317.77C195.109 320.564 194.519 323.464 193.874 325.934C193.66 326.633 193.337 326.741 192.585 326.741H167.017C166.264 326.741 165.943 325.881 166.426 325.237Z" fill="white"/>
<path d="M199.727 325.29H200.64C202.252 325.29 203.219 324.699 204.239 322.121L218.366 286.992C218.689 286.294 219.709 286.24 220.031 286.992L234.587 323.035C235.232 324.593 235.93 325.29 237.381 325.29H238.133C238.831 325.29 238.831 326.794 238.08 326.794C235.93 326.794 234.104 326.741 231.741 326.741C229.002 326.741 226.53 326.794 224.113 326.794C223.307 326.794 223.362 325.29 224.113 325.29H226.799C228.518 325.29 228.894 324.323 228.303 322.659L224.329 312.561H209.879L206.119 322.121C205.206 324.216 205.903 325.29 208.375 325.29H210.684C211.49 325.29 211.49 326.794 210.738 326.794C208.483 326.794 206.925 326.741 204.507 326.741C202.788 326.741 201.607 326.794 199.727 326.794C198.922 326.794 198.975 325.29 199.727 325.29ZM223.738 311.056L217.184 294.243L210.523 311.056H223.738Z" fill="white"/>
<path d="M260.959 297.305L251.398 326.418C251.13 327.17 249.894 327.117 249.679 326.472L237.056 291.504C236.358 289.517 235.445 288.711 233.886 288.711H232.759C232.061 288.711 232.061 287.207 232.813 287.207C235.069 287.207 236.841 287.26 239.313 287.26C242.481 287.26 244.362 287.207 246.725 287.207C247.423 287.207 247.477 288.657 246.725 288.657H244.415C242.804 288.657 242.374 289.57 242.911 291.02L252.526 317.931L260.047 294.619L258.972 291.557C258.273 289.517 257.467 288.711 255.695 288.711H254.46C253.708 288.711 253.708 287.207 254.46 287.207C256.823 287.207 258.81 287.26 261.282 287.26C264.558 287.26 266.061 287.207 268.694 287.207C269.554 287.207 269.499 288.711 268.747 288.711H266.331C264.72 288.711 264.343 289.838 264.826 291.236L273.636 317.931L281.908 292.148C282.821 289.517 282.177 288.657 279.867 288.657H278.04C277.235 288.657 277.235 287.207 277.987 287.207C279.974 287.207 281.962 287.26 283.896 287.26C285.936 287.26 286.582 287.207 288.246 287.207C289.052 287.207 288.998 288.657 288.3 288.657H287.279C285.399 288.657 284.54 289.893 283.681 292.363L272.508 326.418C272.239 327.17 271.004 327.117 270.789 326.418L260.959 297.305Z" fill="white"/>
<path d="M283.409 325.29H284.323C285.934 325.29 286.901 324.699 287.922 322.121L302.048 286.992C302.371 286.294 303.391 286.24 303.714 286.992L318.27 323.035C318.914 324.593 319.613 325.29 321.064 325.29H321.815C322.514 325.29 322.514 326.794 321.762 326.794C319.613 326.794 317.787 326.741 315.423 326.741C312.684 326.741 310.214 326.794 307.796 326.794C306.99 326.794 307.044 325.29 307.796 325.29H310.482C312.201 325.29 312.577 324.323 311.986 322.659L308.011 312.561H293.562L289.801 322.121C288.889 324.216 289.587 325.29 292.058 325.29H294.367C295.173 325.29 295.173 326.794 294.421 326.794C292.164 326.794 290.607 326.741 288.19 326.741C286.471 326.741 285.289 326.794 283.409 326.794C282.604 326.794 282.657 325.29 283.409 325.29ZM307.42 311.056L300.866 294.243L294.206 311.056H307.42Z" fill="white"/>
<path d="M67.0644 391.324C66.4733 391.109 66.1506 390.733 65.9898 390.088C65.5595 388.047 65.238 385.576 65.1304 382.998C65.076 382.246 66.5265 381.924 66.7417 382.622C67.0644 384.019 67.2784 384.663 67.6543 385.468C68.1922 387.349 69.6959 389.121 71.5756 389.981C72.9729 390.625 74.8525 391.002 76.7322 391.002C81.1913 391.002 84.2531 388.047 84.2531 384.127C84.2531 380.205 81.6205 377.627 76.4638 374.672L73.8855 373.222C68.8365 370.376 65.3988 367.528 65.3988 362.211C65.3988 357.377 69.4276 352.326 77.1081 352.326C79.794 352.326 82.9634 352.704 85.4885 353.563C85.9176 353.724 86.1328 353.885 86.2404 354.368C86.6163 356.248 86.8314 358.021 87.0454 360.008C87.0998 360.652 85.8101 360.921 85.5961 360.331C85.3809 359.525 85.1126 358.826 84.843 358.344C84.2531 356.731 83.071 355.335 81.5672 354.798C80.1699 354.315 78.4511 354.045 76.7322 354.045C72.3818 354.045 70.0187 356.731 70.0187 359.955C70.0187 363.5 72.8653 365.701 76.8941 368.011L79.4725 369.462C85.5961 372.953 89.1402 376.498 89.1402 381.817C89.1402 387.564 84.038 392.721 76.5714 392.721C72.9729 392.721 69.6427 392.291 67.0644 391.324Z" fill="white"/>
<path d="M93.9727 390.84H94.8865C96.4978 390.84 97.4648 390.249 98.485 387.671L112.612 352.541C112.935 351.844 113.955 351.79 114.278 352.541L128.834 388.585C129.478 390.141 130.177 390.84 131.627 390.84H132.379C133.078 390.84 133.078 392.344 132.326 392.344C130.177 392.344 128.35 392.291 125.987 392.291C123.248 392.291 120.777 392.344 118.36 392.344C117.553 392.344 117.608 390.84 118.36 390.84H121.045C122.764 390.84 123.14 389.873 122.549 388.209L118.575 378.109H104.125L100.365 387.671C99.452 389.766 100.151 390.84 102.621 390.84H104.93C105.736 390.84 105.736 392.344 104.985 392.344C102.728 392.344 101.171 392.291 98.7534 392.291C97.0345 392.291 95.8523 392.344 93.9727 392.344C93.1676 392.344 93.2208 390.84 93.9727 390.84ZM117.984 376.606L111.43 359.793L104.769 376.606H117.984Z" fill="white"/>
<path d="M139.037 390.895H140.273C141.884 390.895 142.422 390.464 142.422 388.477V356.678C142.368 355.012 141.939 354.315 140.273 354.315H138.501C137.749 354.315 137.749 352.81 138.554 352.81H153.433C163.961 352.81 167.775 355.979 167.775 362.103C167.829 366.723 164.821 370.644 158.751 372.471L166.163 384.288C169.225 389.229 170.891 390.84 174.382 390.787C175.134 390.787 175.241 391.915 174.543 392.183C173.415 392.452 171.964 392.721 170.568 392.721C166.379 392.721 164.337 391.485 162.081 387.886L153.326 373.491C152.305 373.598 151.177 373.598 150.049 373.598H147.847L147.793 388.477C147.793 390.464 148.115 390.84 150.103 390.895H151.714C152.52 390.895 152.52 392.344 151.714 392.344C149.619 392.344 147.364 392.291 145.054 392.291C142.851 392.291 140.864 392.344 139.038 392.344C138.286 392.344 138.286 390.895 139.037 390.895ZM149.673 372.04C157.784 372.04 161.921 368.495 161.921 362.479C161.921 357.215 159.02 354.315 152.413 354.315H149.566C148.384 354.315 147.847 354.798 147.847 355.979V372.04L149.673 372.04Z" fill="white"/>
<path d="M186.036 390.895H188.184C190.118 390.895 190.87 390.142 190.87 388.154V376.122L180.02 357.001C178.892 354.959 178.032 354.207 176.636 354.207H175.723C174.971 354.207 174.971 352.757 175.723 352.757C177.764 352.757 179.805 352.81 182.007 352.81H185.445C186.949 352.757 188.453 352.757 189.958 352.757C190.709 352.757 190.709 354.261 189.958 354.261H187.325C185.768 354.261 185.553 355.496 186.305 356.839L195.436 373.115L203.922 357.538C205.158 355.228 204.353 354.261 202.741 354.261H200.539C199.733 354.261 199.68 352.757 200.485 352.757C202.473 352.757 204.621 352.81 206.394 352.81C208.22 352.81 209.133 352.757 210.69 352.757C211.497 352.757 211.497 354.207 210.745 354.207H210.369C208.382 354.207 207.039 355.12 205.803 357.538L196.403 374.672V388.154C196.403 390.304 197.155 390.895 199.035 390.895H201.238C202.043 390.895 202.096 392.344 201.238 392.344C198.82 392.344 196.35 392.291 193.771 392.291C190.925 392.291 188.453 392.344 186.036 392.344C185.23 392.344 185.23 390.895 186.036 390.895Z" fill="white"/>
<path d="M214.502 373.061C214.502 359.74 224.761 352.381 235.021 352.381C245.549 352.381 254.036 358.988 254.036 371.987C254.036 385.362 243.776 392.721 233.517 392.721C223.042 392.721 214.502 386.114 214.502 373.061ZM233.839 354.26C226.266 354.26 220.733 361.028 220.733 372.255C220.733 384.127 226.695 390.84 234.698 390.84C242.272 390.84 247.858 384.019 247.858 372.792C247.858 360.975 241.843 354.26 233.839 354.26Z" fill="white"/>
</g>
<defs>
<clipPath id="clip0_945_621">
<rect width="322.333" height="392.442" fill="white" transform="translate(0 0.279053)"/>
</clipPath>
</defs>
</svg>
